<?xml version="1.0" encoding="UTF-8" standalone="no"?>
<svg id="svg2" xmlns="http://www.w3.org/2000/svg" height="400" width="400" version="1.0" viewBox="0 0 595.27557 841.88977">
 <path id="ellipse-big" d="m706.97 420.94c0 226.08-183.26 409.34-409.33 409.34s-409.34-183.26-409.34-409.34c0-226.07 183.27-409.33 409.34-409.33 226.07-0.003 409.33 183.26 409.33 409.33z" stroke="#0053a0" stroke-width="21.127" fill="#fff"/>
 <path id="ellipse-small" fill-rule="evenodd" fill="#0053a0" d="m-80.881 425.78c-2.645-209 164.7-380.64 373.71-383.29 209-2.646 380.64 164.71 383.29 373.71 2.64 209-164.71 380.64-373.71 383.28-209 2.65-380.64-164.7-383.29-373.7h-0.001zm373.65-388.01c-211.61 2.679-381.05 176.46-378.37 388.07 2.681 211.61 176.46 381.04 388.07 378.37 211.61-2.68 381.04-176.46 378.37-388.07-2.68-211.61-176.46-381.05-388.07-378.37z"/>
 <path id="kinda-ellipse" fill-rule="evenodd" fill="#0053a0" d="m283.74 169.4c-46.47-0.11-100.46 18.31-136.75 48.35-0.12 0.08-0.12 0.4 0.13 0.53 20.75 8.23 34.98 19.15 57.16 31.57 0.8 0.44 1.08 0.25 1.25-0.47 10.73-54.5 77.26-39.38 83.47-79.12-0.27-0.27-0.23-0.76-0.8-0.79-1.47-0.04-2.97-0.06-4.46-0.07zm27.67 0.07c-0.46 0-0.61 0.19-0.59 0.92-2.79 7 5.41 14.29 10.19 19.01 0.46 0.43 1.22 0.93 1.79 1.18 29.7 12.09 62.57 21.02 69.77 55.18 0.15 0.53 0.25 0.87 0.8 0.4 15.83-10.5 31.53-21.15 47.55-31.25 0.82-0.34 0.52-0.72 0-1.05-36.2-25.74-81.43-42.49-129.51-44.39zm-185.21 65.58c-28.961 25.68-53.811 59.27-66.753 97.01-0.145 0.37 0.076 0.54 0.592 0.59 28.34 2.56 37.6-34.4 59.321-48.14 0.29-0.17 0.55-0.32 0.53-0.67-1.54-16.84-2.28-31.03 6.31-48.79zm349.59 8.08c1.6 13.07 0.38 25.47-3.09 37.55-0.15 0.57-0.13 1.01 0.52 1.45 20.94 11.2 32.29 43.91 56.49 45.19 0.3 0.13 0.76 0.15 0.59-0.25-8.4-29.19-32.56-63.73-54.51-83.94zm62.28 103.07c-29.7 29.78 18.5 79.68-46.89 107.53-5.77 1.7-11.31 3.72-16.53 3.74-14.54 0.07-35.23-11.02-35.1 11.05 0 0.4 0.36 0.68 0.84 0.87 20.2 8.65 47.5 27.4 47.94 56.3 0.99 34.45-35.27 57.65-29.52 90.37 77.49-67.01 109.36-165.95 79.26-269.86zm-484.42 4.92c-0.25 0.07-0.433 0.34-0.659 0.87-29.345 80.19-0.511 204.85 89.508 270.7 0.02-1.7 1.01-5.24 2.04-7.62 0.38-0.92 0.32-2.1 0-3.22-3.3-14.5-11.95-29.12-20.18-43.35-28.392-47.13-12.63-79.45 33.21-100.42 0.59-0.19 0.72-0.52 0.4-1.13-0.71-1.56-1.41-3.1-2.1-4.68-0.21-0.42 0-1.26-1.05-1.11-10.28 1.28-21.85 2.19-32.31 1.72-15.74-3.51-30.772-9.78-42.091-26.45-20.264-28.29 7.488-66.34-25.979-85.1-0.277-0.16-0.538-0.27-0.789-0.21zm424.37 115.91c0.76 0 1.54 0.11 2.3 0.32 10.16 1.85 25.53 7.83 34.66 19.13 0.59 0.73 0.32 1.34-0.59 1.26-14.67-0.44-31.15-2.06-42.56-11.05-1.62-1.28-3.11-2.55-1.97-5.6 0.84-1.93 3.53-3.41 5.78-3.81 0.82-0.14 1.6-0.27 2.38-0.25zm-362.87 5.98c0.82-0.02 1.62 0 2.44 0.06 0.68 0.08 1.37 0.08 1.83 0.53 2.82 3.36 2.26 8.06-3.01 11.7-11.13 7.13-24.032 7.53-35.916 8.04-0.465 0.02-1.279-0.49-0.46-1.26 10.828-9.92 22.806-18.95 35.116-19.07zm201.21 135.16c-0.15-0.02-0.32 0.02-0.46 0.13-9.12 4.33-23.45 6.44-31.51 1.91-0.97-0.48-1.54-0.12-1.92 0.44-14.48 24.52-48.89 23.94-73.32 17.71-18.15-4.09-35.91-9.27-50.58 5.26 76.38 55.08 194.12 56.8 282.49-3.81-16.67-7.87-31.8-2.21-50.13 2.04-20.75 4.82-49.88 9.18-73.39-23.15-0.4-0.11-0.76-0.51-1.18-0.53zm-15.26 5.52c0.21 0.02 0.44 0.04 0.72 0.06 2.65 0.31 4.16 1.66 5.78 3.49 0.78 1.03 1.06 2.23 0.93 3.5-0.44 11.32-2.38 22.77-6.19 32.68-0.08 0.47-0.42 0.57-0.59 0-4.42-13.95-11.97-28.07-2.44-39.06 0.61-0.53 1.12-0.7 1.79-0.67z"/>
 <path id="leicester" fill-rule="evenodd" fill="#0053a0" d="m325.56 63.904c2.27 2.997 4.54 6.333 3.74 9.93-2.92 16.455-6.06 32.876-9.4 49.266-0.59 3.66-3.25 5.23-5.92 7.69 18 3.27 51.67 9.63 69.73 13.03-0.48-7.13 4.97-11.3 7.16-17.76-6 4.2-13.66 5.74-20.78 4.21-7.41-1.4-25.76-5.05-33.15-6.58 1.2-5.73 1.96-11.57 3.29-17.3 7.2 1.27 18.79 4 25.97 4.87 6.12 1.45 10.75-7.05 14.08-11.05-2.34 0.53-6.74 0.8-9.13 0.26-7.54-1.463-21.09-4.317-28.63-5.85 0.67-5.463 1.83-10.851 2.97-16.181 12.92 3.397 39.93 4.664 49.52 15.523 0.32-5.995-3.07-13.443 0.34-17.429-17.85-3.465-51.94-9.299-69.79-12.629zm-8.61 0.263c-17.2 0.08-50.16 1.89-67.35 2.105 3.68 6.053-1.79 11.368-1.92 17.429 5.83-5.289 20.38-6.872 27.95-6.642-0.02 16.591 1.69 33.251 1.92 49.791 0.1 3.13-2.34 5.12-4.34 6.38 7.48-0.08 19.3-1 26.31-1.12-3.45-3.17-5.2-3.43-5.26-7.89-1.22-15.27-1.83-33.072-2.25-48.281 7.74-0.564 21.97 0.825 28.29 4.67-0.03-6.68-6.49-13.324-3.35-16.442zm-75.24 4.473c-10.99 2.397-35.47 4.119-44.94 11.313-11.32 7.859-13.93 25.297 0.74 32.947 9.24 3.78 26.77-0.33 35.9 0.4 6.28 0.26 8.93 8.96 4.8 13.22-8.92 7.93-33.15 7.93-43.73 4.73 2.59 6.07 5.49 11.31 8.23 17.3 3.6-2.26 9.99-2.82 14.06-3.55 8.67-1.26 29.21-6.82 35-13.81 6.92-8.13 7.26-19.91 0.52-27.36-6.06-6.64-24.83-5.467-32.81-4.935-4.55 0-8.31 1.605-12.63-0.526-3.68-2.532-3.47-8.853 0.65-10.985 7.92-4.196 25.87-4.845 34.14-1.448-0.48-5.794 0.26-11.502 0.07-17.296zm177.04 14.798c1.48 3.664 2.34 7.124 0.59 10.589-6.52 14.053-13.93 28.003-20.83 42.163-1.94 4.13-4.42 6.75-9.01 8.48 6.12 3.13 16.63 8.38 22.81 11.51-2.59-9.46 3.83-17.95 7.5-25.58 3.53 1.93 13 6.35 15.32 10.19 3.11 5.26 3.87 10.66 4.54 16.11 0.3 4.93 0.7 8.65-4.39 10.4 7.15 2.91 18.39 8.9 25.04 12.1-5.28-10.88-2.02-25.68-9.07-36.37 4.59 0.2 12.29 0.97 17.17-2.04 8.82-5.17 10.97-13.35 7.96-24.14-1.66-5.68-7.24-8.92-11.98-11.18-11.32-5.6-34.32-16.703-45.65-22.232zm-257.89 7.234c-15.78 8.861-46.11 24.018-61.684 33.148 4.064 1.07 6.884 2.59 8.814 6.12 7.79 13.99 15.56 27.97 23.28 41.96 2 3.47 1.39 7.65-0.19 11.51 16.19-8.99 46.5-24.75 62.74-33.67-5.07-2.88-1.85-12.49-3.89-18.81-1.6 5.52-7.3 10.54-11.95 13.94-7.54 5.06-25.24 14.08-33.09 18.55-2.86-5.07-5.77-10.26-8.48-15.46 6.12-3.8 20.31-10.08 26.31-14.07 3.51-4.4 1.45-10.75 2.23-15.92-1.54 1.86-3.54 3.54-5.73 4.67-6.58 3.66-21.02 11.66-27.69 15.26-2.53-4.8-5.56-9.35-7.75-14.34 12.19-5.53 34.05-20.33 47.94-19.54-3.47-5.058-9.05-7.352-10.86-13.348zm272.16 12.758c6.02 3.01 14.86 6.94 20.33 9.93 14.51 7.54 4.19 23.31-6.31 17.37-6-2-16.5-7.93-22.35-10.33 2.52-5.86 5.74-11.11 8.33-16.97zm-348.11 30.98c-1.667 2.4-3.85 4.59-6.447 5.99-8.677 4.04-24.223 18.06-27.952 26.9-5.197 10.12-5.142 19.43 0.985 31.24 6.983 13.93 16.884 20.39 32.031 20.39 15.047-0.93 28.597-14.11 34.787-22.23 3.41-3.93 6.72-8.26 11.72-10.46-4.2-4.66-8.62-9.08-12.9-13.68-1.53 5.59-4.23 10.4-7.89 15.06-5.41 6.14-13.806 15.79-23.349 15.33-9.545-0.47-12.582-5.02-16.838-9.67-4.255-4.65-7.183-10.08-6.444-18.42 0.738-8.34 17.271-23.74 29.205-24.2-2.737-5.2-4.168-10.99-6.908-16.25zm-58.077 56.1c-4.355 5.62-12.094 15.39-16.707 20.8 4.283-0.63 8.183-0.27 11.445 2.29 12.525 9.75 25.033 19.6 37.489 29.41 3.199 2.42 4.645 6.04 5.064 10.18 4.609-5.49 12.03-15.11 16.509-20.46-3.879 0.51-7.657 0.72-10.654-1.7-12.723-9.81-25.231-19.78-37.884-29.66-3.461-2.63-5.391-6.19-5.262-10.86zm-29.729 37.76c-7.937 16.31-24.36 46.62-32.162 62.93 4.329-1.72 7.581-1.41 11.509 0.59 14.118 7.07 28.306 13.94 42.422 20.92 3.464 1.75 6.497 5.22 7.892 8.82 7.87-16.58 22.39-45.92 31.441-62.36-1.865 0-3.734-1.56-5.064-2.88-3.73-3.54-5.612-7.58-9.406-11.05 1.056 6.58 0.105 14.46-2.764 20.85-3.334 7.12-12.186 24.38-15.52 31.51-5.529-1.87-9.801-5.05-15.128-7.45 2.668-6.38 10.55-20.84 13.284-27.15 0.03-3.7-4.369-9.95-7.496-14.42-0.135 2.4-1.169 4.84-2.303 7.05-3.401 6.93-11.067 22.27-14.535 29.13-4.862-2.46-11.187-4.84-16.048-7.24 3.401-6.92 11.988-24.24 15.522-31.1 2.7337-5.39 7.1641-9.9 12.628-12.63-5.6617-2.28-9.4123-1.58-14.272-5.52zm10.193 90.69c2.2668 3.67 2.761 9.88 2.896 14.27 0.598 8.28-4.2598 23.98-5.5269 32.04-15.253-2.99-30.587-6.67-45.777-10-4.195-0.8-5.887-4.17-8.352-7.77-1.599 6.87-4.323 19.85-5.787 26.78 3.064-2.26 5.348-4.02 8.945-3.22 16.252 3.41 32.418 6.98 48.606 10.65 3.729 0.8 7.4711 3.64 9.403 7.17 3.465-15.72 9.955-44.45 13.352-60.25-1.664 0.14-3.401 0.42-4.866-0.51-4.731-2.61-8.096-6.69-12.893-9.16z"/>
 <path id="football" fill-rule="evenodd" fill="#0053a0" d="m7.4867 453.67c-2.2858 3.28-5.5628 5.97-9.4712 6.71-14.868 4.21-30.724 7.43-47.684 11.51-3.404 1.22-5.464-0.21-8.682-2.69 1.504 6.88 3.822 18.1 5.459 24.98 6.039-8.46 17.282-8.14 26.176-11.11 2.113 7.13 4.599 22.08 6.973 29.06 3.732 3.88 9.928 4.42 14.798 6.13-1.2646-1.9-3.6429-5.94-4.0113-8.23-1.7277-7.54-4.9857-21.93-6.7097-29.4 5.689-1.27 11.264-2.95 17.035-3.75 3.0543 11.93 10.208 34.14 4.6707 45.52 5.8073-1.85 10.597-8.25 15.785-6.9-3.42-16.02-11.182-45.67-14.339-61.83h-0.0003zm0.7892 72.94c-1.8984-0.06-3.8116 0.11-5.7227 0.32-12.876 2.76-24.839 9.11-30.32 22.56-7.223 18.76 7.044 47.61 26.178 54.66 12.304 4.4 24.474 1.1 33.608-5.72 8.484-5.81 14.238-15.52 14.011-28.54-0.532-14.69-8.745-29.26-20.719-37.55-5.695-4-11.336-5.58-17.035-5.73h-0.0001zm-0.5262 16.38c7.1013-0.04 14.314 1.77 19.205 9.07 6.081 7.56 7.926 18.18 3.618 24.54-6.12 8.04-15.985 12.84-26.374 12.42-11.296-0.4-22.741-14.86-19.403-28.73 3.174-11.3 15.994-16.73 22.954-17.3zm44.529 54.66c-2.776 0.08-5.479 0.63-8.158 1.64-12.849 4.74-22.278 13.03-26.043 27.23-5.279 19.43 15.97 44.94 36.04 48.54 12.885 2.17 24.293-2.48 32.093-10.8 7.345-7.2 11.912-17.97 9.408-30.77-3.094-14.37-14.71-26.69-27.951-32.75-5.84-2.17-10.765-3.26-15.389-3.09zm6.379 15.72c5.618 0.02 10.726 2.27 14.535 6.25 7.036 6.5 10.353 14.48 7.104 22.94-4.473 9.94-12.784 16.36-23.087 17.77-11.193 1.55-25.66-13.26-24.139-25.47 1.823-11.2 9.128-15.77 15.129-18.94 3.555-1.73 7.086-2.57 10.458-2.55zm49.992 29c-0.11 6.4-6.67 4.51-11.853 12.57 7.783-0.78 20.833 6.16 26.923 10.71-9.05 13.74-18.46 27.17-27.638 40.77-1.705 2.86-4.694 3.18-7.83 3.43 5.725 3.96 16.118 10.9 21.848 14.86-1.14-4.57-0.72-8.36 1.77-12.1 8.1-11.98 16.31-23.93 24.39-35.97 0.46-0.49 0.84-1.62 1.73-1.33 6.63 3.6 16.98 12.61 19.32 19.87 2.78-5.35 2.25-13.89 7.36-15.98-14.08-9.7-41.88-27.34-56.02-36.83zm59.52 39.78c2.06 3.75 1.53 8.04 0.33 11.98-4.6 15.4-10.46 29.25-15.07 44.6-1.03 3.72-3.36 5.93-8.08 7.03 14.61 4.63 31.57 10.81 47.02 15.53 16 5.18 30.37 1.32 32.1-15.47 1.01-9.64-9.26-14.1-13.28-16.25 10.58 1.31 17.7-4.34 18.27-14.27 0.9-7.07-5.54-14.8-20.12-19.53-10.46-3.41-30.63-10.67-41.17-13.62zm221.39 12.1c-6.78 1.75-18.12 6.49-24.79 8.76 3.72 1.6 6.29 2.69 7.55 6.44 4.76 14.46 10.51 27.95 15.45 42.37 1.35 4.54 3.01 9.68 0.53 14.14 15.36-4.73 42.01-14.35 57.23-19.4-0.87-1.27-2.19-2.3-2.11-3.9-0.38-5.43 0.99-9.83 0.53-15.32-3.52 7.32-11.26 11.07-19.14 14.14-4.44 1.43-16.92 6.99-21.32 7.43-4.86-14.63-10.65-30.03-15.57-44.66-1.35-3.79-0.36-6.44 1.64-10zm-206.91 4.8c5.62 1.98 21.63 5.64 27.09 7.92 7.61 3.15 2.67 16.79-5.27 15.04-5.57-0.9-21.21-5.28-26.43-7.24 1.47-5.24 2.99-10.52 4.61-15.72zm74.5 7.92c0.49 1.01 0.19 3.47-0.65 4.58l-28.6 48.41c-2.55 4.15-4.95 6.04-8.5 8.76 6.52 1.01 17.8 4.25 24.35 5.51-2.11-4.59-1.92-10.27 1.49-14.65 10.1 0.89 28.98 2.26 39.02 3.48 2.04 4.77 4.65 10.5 0 14.86 6.65-0.05 18.25-0.3 24.73 0.14-2.92-3.47-5.76-6.96-6.98-11.45-3.04-8.96-14.34-42.24-17.89-52.55-0.61-1.87 0.21-4.19 0.27-4.4l-27.24-2.69zm75.58 0.37c-7.3 1.2-19.72 2.64-26.7 3.5 3.32 2.33 5.78 3.77 6.25 7.7 1.72 15.11 4.77 29.59 6.71 44.71 0.4 4.73 0.48 10.81-2.84 14.67 16-1.52 45.44-6.3 61.37-8.15-0.61-1.41-1.64-2.74-1.24-4.27 0.72-5.41 2.74-10.06 3.41-15.53-5.28 6.04-12.92 9.28-21.24 10.73-4.77 0.8-18.69 3.05-23.02 2.95-1.81-15.33-4.46-31.51-6.32-46.83-0.52-4 0.95-6.4 3.62-9.48zm-63.87 11.26l11.66 31.76c-7.29-0.42-21.22-1.28-28.5-2.1l16.84-29.66zm-93.39 6.26c6.69 2.61 17.79 6.37 23.74 8.67 13.03 4.54 9.6 22.01-6.19 16.58-7.09-2.25-16.54-5.2-23.27-7.76 1.62-5.73 4.1-11.71 5.72-17.49z"/>
 <path id="city" fill-rule="evenodd" fill="#0053a0" d="m525.04 156.44c-10.31-0.44-17.13 2.4-24.33 8.49-8.06 7.33-13.55 15.84-13.49 28.61 0.27 10.06 11.26 25.87 24.48 34.21 3.72 2.75 9.62 6.18 10.18 10.77 4.38-4.48 8.95-8.9 13.43-13.09-10.73-3.22-28.9-13.64-31.51-25.64-1.66-9.55 0.68-12.67 4.74-17.89 7.58-9.15 15.26-12.46 26.77-9.28 10.29 4.1 19.51 16.99 20.31 26.38 5.35-2.8 10.42-5.03 15.85-7.76-4.31-2.67-6.21-5.87-9.13-9.74-6.32-9.21-18.21-22.36-32.63-24.66-1.62-0.19-3.2-0.33-4.67-0.4zm56.76 49.14c-0.21 6.74-3.76 8.82-8.6 12.42-11.75 8.04-22.88 16.23-34.6 24.02-3.33 2.12-7.64 4.84-12.38 2.56 3.81 5.92 11.34 15.92 15.2 21.77 0.4-6.04 3.64-8.78 7.3-11.18 12.67-8.46 24.58-17.59 37.29-25.97 3.67-2.48 5.77-3.56 10.65-1.92-3.78-5.78-11.05-15.91-14.86-21.7zm22.5 31.7c-3.51 5.3-11.3 2.08-16.83 4.21 6.73 3.79 14.16 15.95 16.96 23.09-15.05 7.05-27.49 13.38-42.56 20.52-2.86 1.45-7.38 0.53-10.31-0.59 3.11 6.31 8.31 17.41 11.43 23.68 1.66-4.86 6.52-8.99 11.05-10.99 13.47-6.12 24.56-12.04 38.16-17.82 3.45 6.79 9.24 19.57 7.3 27.23 5.2-3.14 7.75-9.98 13.68-9.34-7.2-15.6-21.61-44.41-28.88-59.99zm32.69 67.48c-1.43 6.54-7.37 10.31-11.05 15.19-7.37 8.61-16.23 18.31-24.86 27.03-2.06 1.93-7.17 2.54-10.27 3.24-6.42 0.93-9.41 1.68-14.33-2.44 1.54 6.92 4.06 19.26 5.45 26.18 2.74-4.15 5.66-6.59 11.05-7.96 4.8-0.86 9.05-2.71 12.5-1.2 15.75 8.57 45.3 20.78 49 24.61l-5.39-25.85c-1.75 2.53-3.81 3.75-5.91 2.95-9.45-3.66-20.67-8.88-28.69-11.95 5.87-6.82 12.73-13.41 18.94-19.87 2.7-3.29 6.4-4.59 9.68-1.39l-6.12-28.54z"/>
 <path id="club" fill-rule="evenodd" fill="#0053a0" d="m599.63 457.29c-2.99 0.08-6.38 1.15-10 3.55-5.15 4.53-7.05 11.62-8.75 17.96-2.32 10.71-8.08 32.72-10.19 43.46 3.56-2.86 6.63-3.18 10.65-2.3 15.72 3.39 31.38 6.95 47.04 10.34 3.79 0.73 6.59 3.7 8.74 7.03 2.31-14.9 11.57-45.19 11.32-60.39-0.3-12.46-11.85-20.41-22.9-17.82-6.27 1.76-9.79 9-11.18 14.08-0.02-7.56-5.76-16.15-14.73-15.91zm0.06 18.07c4.61 0.03 8.87 4.28 7.64 9.62-1.22 5.56-3.43 17.26-4.79 22.76-5.35-1.08-10.91-2.28-16.19-3.5 1.52-5.74 2.95-13.89 4.46-19.72 1.52-6.61 5.31-9.16 8.88-9.16zm28.82 0.99c4.8 0.17 9.2 4.99 8.14 10.86-1.49 7.06-4.21 20.08-5.51 27.03-5.83-1.18-11.87-2.59-17.76-3.75 1.49-7.07 3.78-17.26 5.66-24.33 1.74-7.24 5.72-9.93 9.47-9.81zm-58.93 49c-4.42 7.94-8.46 15.51-13.09 23.55 3.51-1.68 6.98-1.87 9.87-0.33 10.27 5.43 19.02 10.52 29.19 16.18 3.93 2.27 8.19 6.5 8.63 12.1-0.17 7.5-5.35 16.57-12.25 19.62-4.99 2.34-10.67-0.06-14.46-2.25-9.32-5.6-16.67-9.58-25.99-15.26-3.22-1.85-6.09-3.22-6.38-9.2-4.46 7.56-8.48 15.83-13.16 23.62 6.21-2.78 10.49-0.93 14.95 1.83 8.29 4.77 15.19 8.77 23.4 13.55 6.27 3.56 12.55 5.91 21.11 4 7.39-1.71 13.66-8.86 18.17-16.23 4.77-7.72 8.96-16.71 8.48-25.25-0.42-8.82-5.79-14.84-11.77-18.82-9.76-5.91-17.51-9.98-27.36-15.72-3.79-2.28-9.22-5.71-9.34-11.39zm5.38 90.9c-0.21 7.43-4.37 16.17-9.66 22.23-2.67 3.58-11.26 13.32-14.73 17.05-11.76-9.98-22.46-19.03-34.26-28.94-3.12-2.57-5.58-6.15-5.73-10.21-4.88 5.03-11.47 12.5-15.99 17.89 4.04-0.57 7.83 1.39 10.86 3.96 11.57 9.87 22.79 19.99 34.53 29.71 3.52 3.2 5.33 6.3 5.52 11.39 10.65-12.02 30.41-34.73 40.79-46.95-1.41-0.61-3.29-0.83-4.09-2.51-3.07-5.6-3.99-9.18-7.24-13.62zm-81.49 19.41c-3.3 4.33-9.91 6.84-14.67 8.94-10.29 4.91-24.73 16.65-27.74 30.4-2.4 11.85 0.21 21.42 6.76 30.05 6.48 8.76 14.65 13.85 25.93 14.14 12.62-0.12 26.07-8.23 36.03-18.35 3.28-3.28 7.3-7.79 12.1-8.16-4-4.76-7.34-10.13-11.7-14.67-2.82 8.69-16.4 22.96-25.59 25.46-8.11 1.83-13.54-0.36-19.47-5.47-6.59-6.82-10.69-15.22-7.96-25.05 4.06-12.67 20.88-21.95 31.45-20.12-1.92-5.66-3.37-11.72-5.14-17.17z"/>
 <path id="leaf-top" fill-rule="evenodd" fill="#0053a0" d="m299.52 171.64c-1.34 3.86-2.25 8.95-3.15 13.42-0.19 0.98-0.68 1.65-1.27 2.36-29.93 30.12-66.91 21.35-80.69 65.52-1.56 3.73 0.42 7.68 7.09 11.37 0.67 0.4 1.26 0.23 1.26-0.47-1.68-47.96 63.12-44.72 77.29-78 0.15-0.34 0.63-0.25 0.78 0 11.91 22.22 31.59 25.13 49.58 35.53 13.47 7.77 23.18 14.82 25.93 36.89 0.09 1.04 0.38 0.85 0.91 0.32 2.04-2.25 6.99-3.41 6.84-6.78-4.36-32.56-40.22-39.59-68.99-53-1.2-0.92-2.42-1.84-3.62-2.76-6.02-7.12-10.61-15.15-11.96-24.4zm-0.52 40.72c-0.32 0.02-0.59 0.09-0.87 0.25-0.31 0.15-0.61 0.47-0.78 0.8-0.16 0.3-0.1 1.25 0 1.9 0.11 0.42 0.49 0.65 0.72 0.92 0.48 0.59 0.9 0.93 1.52 1.39 0.77 0.51 1.72-0.12 1.89-0.73 0.23-1.06 0.23-2.23 0-3.16-0.06-0.34-0.32-0.55-0.53-0.86-0.29-0.32-0.61-0.49-1.11-0.51-0.21-0.02-0.55-0.04-0.84 0zm9.78 9.07c-0.1 0.02-0.14 0.04-0.25 0.13-0.19 0.15-0.34 0.4-0.34 0.65-0.02 1.31-0.61 3.22 0.59 3.9 0.59 0.27 1.33 0.37 1.79-0.15 0.23-0.38 0.68-0.51 0.65-1.18 0-0.32-0.44-0.42-0.58-0.78-0.19-0.53-0.09-1.47-0.28-1.85-0.17-0.28-0.34-0.55-0.65-0.59-0.32-0.06-0.61-0.21-0.93-0.13zm-18.01 0.19c-0.87 0.3-1.79 0.93-2.11 2.04-0.38 0.66-0.36 1.18 0 1.58 0.46 0.68 1.03 1.48 1.83 1.85 0.68 0.32 1.56 0.32 1.86-1.13 0.33-1.2 0.35-2.89-0.19-3.35-0.7-0.5-0.53-1.2-1.39-0.99zm9.53 15.85c-3.83 11.53-4.82 17.34-7.55 26.52 5 0.04 7.76 0.06 11.36 0.13-2.93-10.46-3.07-14.61-3.81-26.65z"/>
 <path id="leaf-left" fill-rule="evenodd" fill="#0053a0" d="m123.51 294.44c-0.17 0-0.38 0.09-0.59 0.26-26.67 18.81-33.91 52.15-68.208 46.64 24.345 11.38 23.758 39.36 26.241 65.31 2.097 21.86 18.812 51.31 63.877 45.18 0.5-0.04 0.84-0.44 0.52-0.92-2.88-4.11-12.54-2.76-14.94-3.16-35.675-6.69-41.716-39.5-49.126-76.63-1.724-10.73-8.686-17.51-12.959-25.57-0.309-0.82-0.587-1.08 0.461-1.27 22.729-4.35 39.864-24.07 58.084-45.04 0.38-0.23 0.45-0.75 0-1.13-1.03-1.03-1.97-2.17-2.9-3.41-0.17-0.17-0.27-0.28-0.46-0.26zm-3.41 43.15c-0.32 0.02-0.66 0.09-0.93 0.25-0.32 0.15-0.61 0.47-0.8 0.8-0.15 0.3-0.08 1.25 0 1.9 0.13 0.42 0.57 0.65 0.8 0.92 0.48 0.59 0.91 0.93 1.52 1.39 0.77 0.51 1.66-0.12 1.83-0.73 0.23-1.06 0.23-2.23 0-3.16-0.07-0.34-0.32-0.55-0.53-0.86-0.29-0.32-0.61-0.49-1.11-0.51-0.22-0.02-0.49-0.04-0.78 0zm10.25 9.32c-0.11 0.03-0.21 0.07-0.32 0.15-0.19 0.13-0.34 0.38-0.34 0.65-0.06 1.29-0.73 3.18 0.47 3.88 0.57 0.31 1.3 0.38 1.76-0.13 0.26-0.38 0.72-0.46 0.72-1.11 0.02-0.34-0.38-0.43-0.5-0.8-0.17-0.53-0.09-1.48-0.28-1.84-0.15-0.29-0.33-0.61-0.65-0.65-0.32-0.08-0.55-0.21-0.86-0.15zm-18.15 1.39c-0.86 0.3-1.79 0.99-2.1 2.11-0.38 0.65-0.36 1.11 0 1.51 0.44 0.68 1.09 1.48 1.89 1.84 0.68 0.33 1.56 0.4 1.86-1.06 0.33-1.2 0.29-2.94-0.28-3.41-0.69-0.5-0.5-1.2-1.37-0.99zm10.53 15.66c-1.41 11.64-5.66 24.94-9.81 33.68 4.84-0.65 8.71 2.29 9.01 6.04 1.22-4.25 4.48-7.52 8.35-6.38-2.54-10.56-5.68-21.91-7.55-33.34z"/>
 <path id="leaf-bottom-left" fill-rule="evenodd" fill="#0053a0" d="m160.8 477.34c-0.19 0.05-0.4 0.11-0.65 0.21-41.3 15.96-49.55 53.04-26.46 85.69 17.35 29.15 25.03 41.16 16.78 64.59 32.28-38.43 89.47 23.74 122.28-24.2 0.44-0.59-0.25-0.99-0.93-1.65-1.6-1.11-3.28-1.85-4.92-2.5-1.22-0.46-1.89-0.19-2.63 0.86-13.43 14.15-56.98 11.01-89.91 11.11-1.01 0-4.02 0.53-5.01 1.06-3.16 1.62-6.36 3.05-9.73 2.75-0.9 0-2.27-0.48-2.04-2.35 1.64-23.95-12.61-39.17-21.64-58.93-2.82-6.74-23.74-44.54 26.57-67.5 0.23-0.44 0.71-0.7 0.65-1.37-0.15-2.34-0.63-4.65-1.31-7.05-0.12-0.59-0.46-0.8-1.05-0.72zm37.36 45.65c-0.32 0.05-0.65 0.11-0.93 0.26-0.31 0.17-0.61 0.48-0.77 0.8-0.15 0.31-0.11 1.26 0 1.91 0.1 0.42 0.54 0.63 0.77 0.91 0.51 0.59 0.91 0.92 1.52 1.39 0.78 0.5 1.75-0.13 1.91-0.74 0.21-1.05 0.24-2.23 0-3.16-0.08-0.33-0.4-0.52-0.58-0.84-0.32-0.34-0.57-0.48-1.06-0.53-0.23-0.02-0.54-0.04-0.86 0zm10.4 8.82c-0.11 0.02-0.23 0.04-0.34 0.13-0.17 0.15-0.34 0.4-0.32 0.65-0.06 1.31-0.73 3.18 0.45 3.9 0.59 0.29 1.24 0.35 1.72-0.15 0.23-0.38 0.78-0.44 0.78-1.12 0.02-0.31-0.44-0.4-0.59-0.78-0.17-0.52-0.02-1.47-0.19-1.85-0.17-0.29-0.33-0.61-0.67-0.65-0.3-0.09-0.53-0.19-0.84-0.13zm-18.55 1.12c-0.86 0.29-1.78 0.99-2.1 2.1-0.4 0.63-0.36 1.12 0 1.52 0.44 0.67 1.03 1.45 1.83 1.83 0.67 0.34 1.56 0.4 1.83-1.05 0.34-1.2 0.38-2.95-0.19-3.41-0.69-0.51-0.5-1.2-1.37-0.99zm9.48 14.98c-1.41 11.64-5.67 24.94-9.81 33.68 4.84-0.65 8.71 2.23 9.01 6 1.22-4.25 4.48-7.47 8.35-6.32-2.55-10.56-5.7-21.91-7.55-33.36z"/>
 <path id="leaf-bottom-right" fill-rule="evenodd" fill="#0053a0" d="m434.08 477.28c-0.21 0.02-0.45 0.23-0.53 0.46-0.91 1.94-1.83 3.79-2.76 5.73-0.82 2.19-0.86 4.06 2.44 5.11 59.17 24.19 30.04 69.96 14.61 96.82-1.6 2.76-5.43 10.9-5.72 14.48-0.59 3.81 0 7.13-0.09 11.11 0 0.93-1.3 1.18-2.02 1.05-37.88-7.28-70.65 26.19-101.7-9.93-2.86-3.09-6.29-3.39-7.55-2.42-1.37 1.03-2.38 2.17-3.35 3.68-0.65 0.91-0.63 1.43 0.13 2.36 32.28 45.27 80-8.19 120.95 14.33-9.59-23.02 9.31-45.35 20-65.43 23.76-40.37-4.04-65.18-34.2-77.35-0.09-0.04-0.13 0-0.21 0zm-31.36 44.85c-0.32 0.04-0.59 0.11-0.87 0.27-0.31 0.15-0.61 0.47-0.78 0.78-0.14 0.32-0.1 1.33 0 1.98 0.11 0.42 0.49 0.59 0.72 0.86 0.48 0.57 0.9 0.93 1.51 1.37 0.78 0.53 1.73-0.1 1.9-0.71 0.23-1.05 0.23-2.25 0-3.16-0.06-0.36-0.32-0.55-0.51-0.86-0.31-0.32-0.63-0.49-1.13-0.53-0.21-0.02-0.55-0.04-0.84 0zm9.93 9.09c-0.11 0-0.23 0.05-0.34 0.13-0.19 0.13-0.33 0.4-0.33 0.65-0.05 1.29-0.72 3.18 0.46 3.87 0.59 0.32 1.3 0.38 1.79-0.12 0.23-0.38 0.71-0.44 0.71-1.12 0-0.31-0.37-0.42-0.52-0.8-0.17-0.52-0.09-1.45-0.25-1.83-0.17-0.29-0.28-0.61-0.62-0.65-0.29-0.08-0.61-0.19-0.9-0.13zm-18.35 1.37c-0.87 0.3-1.73 1.01-2.04 2.11-0.38 0.65-0.36 1.11 0 1.51 0.46 0.68 1.03 1.47 1.83 1.83 0.67 0.34 1.55 0.4 1.85-1.05 0.34-1.2 0.29-2.95-0.28-3.41-0.67-0.5-0.5-1.2-1.36-0.99zm10.06 15.01c-1.39 11.64-5.66 24.94-9.81 33.67 4.86-0.65 8.73 2.3 9.01 6.04 1.22-4.25 4.48-7.51 8.35-6.37-2.54-10.57-5.68-21.91-7.55-33.34z"/>
 <path id="leaf-right" fill-rule="evenodd" fill="#0053a0" d="m470 293.83c-0.12 0.05-0.23 0.15-0.33 0.28-0.45 0.52-0.82 3.41-0.93 5.32-0.02 0.4-0.02 0.72 0.4 0.99 8.48 5.16 33.89 33.97 56.03 39 0.97 0.21 1.09 1.03 0.61 1.52-26.33 30.94 5.07 79.26-46.83 97.68-9.64 2.65-19.34 1.39-21.13 7.81-0.05 0.23 0.27 0.52 0.46 0.52 31.21 1.98 50.68-8.54 56.51-30.83 7.51-24.84-6.63-60.13 20-79.39 0.67-0.51 0.31-1.39-0.28-1.33-26.92 2.74-44.13-25.82-64.13-41.5-0.1-0.07-0.27-0.09-0.38-0.07zm8.55 41.57c-0.32 0.07-0.65 0.17-0.93 0.34-0.31 0.15-0.61 0.46-0.78 0.8-0.14 0.29-0.1 1.24 0 1.89 0.11 0.42 0.49 0.66 0.72 0.93 0.48 0.59 0.9 0.86 1.51 1.3 0.78 0.53 1.73-0.04 1.9-0.65 0.23-1.05 0.23-2.23 0-3.16-0.06-0.33-0.32-0.61-0.51-0.92-0.31-0.32-0.63-0.49-1.13-0.53-0.21 0-0.49-0.04-0.78 0zm9.13 10.15c-0.1 0.02-0.21 0.04-0.31 0.12-0.19 0.15-0.28 0.4-0.28 0.66-0.06 1.3-0.71 3.17 0.47 3.89 0.56 0.29 1.24 0.36 1.7-0.15 0.25-0.38 0.74-0.44 0.74-1.11 0-0.32-0.4-0.4-0.53-0.78-0.17-0.53-0.08-1.48-0.27-1.85-0.15-0.3-0.28-0.61-0.59-0.66-0.32-0.08-0.61-0.19-0.93-0.12zm-18.79 0.12c-0.87 0.3-1.73 0.99-2.04 2.11-0.38 0.65-0.36 1.11 0 1.51 0.44 0.68 1.03 1.48 1.83 1.83 0.67 0.34 1.55 0.4 1.85-1.05 0.31-1.2 0.29-2.88-0.27-3.34-0.7-0.51-0.51-1.27-1.37-1.06zm10.12 14.86c-1.39 11.64-5.66 24.94-9.81 33.68 4.84-0.65 8.74 2.29 9.01 6.06 1.22-4.25 4.48-7.54 8.36-6.4-2.55-10.54-5.69-21.91-7.56-33.34z"/>
 <path id="fox-outline" fill-rule="evenodd" fill="#0053a0" d="m452.11 221.75c-0.1 0.02-0.21 0.02-0.33 0.08-23.91 6.76-56.2 34.35-82.8 58.53-0.78 0.89-1.85 1.08-2.72 0.78-17.68-5.81-38.24-6.56-55.37-7.03-24.44-2.25-53.82 0.74-80.11 9.26-1.13 0.4-1.98-0.63-2.82-1.64-20.81-23.15-50.13-42.11-81.77-55.31-0.88-0.42-1.62-0.8-2.63 0.13-16.24 14.98-12.67 59.35 1.27 83.41 1.64 3.49 2 9.61 2.04 11.7 0.99 12.94 3.51 24.12 6.9 36.18 0.84 7.49 3.71 15.11 8.02 21.57 0.84 1.03 0.48 1.96-0.13 2.63-5.51 5.52-10.54 10.74-16.05 16.25-0.4 0.38-1.16 0.65-1.9 0.78-4.57 0.53-6 2.02-8.16 7.3-0.32 0.76-0.28 1.29 0.12 1.92 0.78 1.45 6.08 10.63 10.46 15.51 4.23 4.19 2.65 8.17-0.92 11.98 6.75 5.05 18.83 14.71 19.55 16.18 0.76 3.89 7.62 5.2 3.53 10.78 1.08 0.25 1.73 0.65 2.57 1.32 0.61 0.66 0.74 1.29 0.8 1.98 0.55 6.06 1.69 11.56 5.05 17.36 13.68 23.2 29.01 19.62 47.23 39.4 10.9 11.85 21.66 12.32 29.07 33.22-0.68 7.93-1.1 12.79 2.17 19.65 3.87 8.38 13.4 8.7 25.65 14.27 1.64 0.64 2.55 1.14 3.75 2.38 3.2 3.12 6.88 5.12 11.05 7.1 3.37 1.43 7.36 1.43 10.46-0.13 5.89-3.37 7.13-0.93 18.02-8.76 10.27-3.03 27.04-15.68 25.25-37.21 0.06-0.63 0.21-1.05 0.4-1.6 0.32-0.99 1.24-1.98 2.11-2.94 4.14-4.95 8.88-9.33 11.78-15.33 0.59-1.45 1.1-2.86 2.42-3.95 41-33.47 26.5-18.76 41.32-30.12 30.39-23.11 10.44-50.09 46.03-65.18-4.82-10.21-3.18-11.14 12.5-32.88-8.29-4.38-14.06-9.41-19.81-13.43-18.03-14.14-1.66-26.14-0.18-33.08 1.03-3.94 2.58-8.91 2.96-13.94 1.92-11.59 0.84-25.25 6.76-31.31 4.36-4.21 5.62-27.26 6.31-29.13 4.78-15.05 3.03-17.07 3.9-26.52 0.14-1.26 0.59-2.27 0-3.66-3.33-9.18-7.41-18.06-12.11-26.86-0.42-0.76-0.73-1.49-1.32-1.64-0.09-0.02-0.21 0-0.32 0zm-14.2 35.4c-1.92 18.88-8.8 31.38-6.65 47.21-8.02 9.85-5.33 28.22-12.7 39.21-0.48 0.63-1.13 0.99-1.91 0.92-9.79-1.62-16.65-13.95-24.98-20.92-0.85-0.67-1.27-1.3-0.99-1.97 3.39-7.54 11.17-15.1 5.13-22.76 0.3-21.95 26.52-25.48 42.1-41.69zm-281.97 3.62c15.38 8.61 25.19 23.07 32.75 23.28 1.18 1.83 2.86 3.72 4.27 5.2 11.32 12.88 2.34 17.68 12.29 34.2 1.08 2.31 1.56 4.56 0 5.97-6.65 5.79-12.56 11.66-18.08 18.02-7.3 8.86-10.86 5.6-13.02 0-1.35-4.15-2.78-8.84-0.91-13.62 1.16-2.63 0.46-4.79-1.52-7.3-2.65-3.72-4.81-7.66-6.9-11.58-0.74-1.47-1.22-2.73-1.51-4.58-2.63-16.29-2.15-40.65-7.37-49.59zm191.06 161.26c1.12-0.12 2.11 0.65 2.24 1.77 0.12 1.14-0.72 2.19-1.84 2.31-1.13 0.11-2.12-0.71-2.25-1.85-0.1-1.11 0.74-2.1 1.85-2.23zm-105.04 0.19c1.14-0.1 2.12 0.65 2.23 1.79 0.13 1.12-0.72 2.1-1.83 2.23-1.12 0.13-2.13-0.65-2.23-1.77-0.13-1.13 0.71-2.12 1.83-2.25zm169.24 45.72c1.66 0.02 2.17 1.57 1.98 3.15-1.77 22.31-12.17 16.17-35.93 37.3-6.21 4.96-4.17 9.78-12.55 16.84-7.02 6.56-13.57 13.42-19.55 21.91-0.97 1.45-1.68-0.09-1.77-0.74-0.29-1.77-1.34-3.77-2.82-5.39-3.93-4.42 2.34-3.87-4.73-14.46-2.93-4.29-6.32 1.24-8.36-5.72-1.26-4.49-0.06-2.28-1.64-12.7l4.15-3.43c1.95 5.56 4.69 10.21 7.68 14.08 0.44 0.53-0.38 5.22 1.45 9.35 0.38-6.52 6.21-10.27-2.1-21.97-1.08-1.52-1.64-3.01-2.04-4.8-0.05-0.19-0.09-0.34-0.13-0.53 15.74-10.23 33.36-18.58 49.99-25.47-0.85 0.95-1.67 1.9-2.51 2.91-0.38 0.46 0.36 0.63 0.59 0.53 1.01-0.28 1.49-0.15 2.29 0 0.53 0.31 0.47 0.86 0.47 1.36 0.12 1.94-1.43 2.05-0.97 4.21 2.74-3.51 5.35-6.92 8.14-10.12 0.66-0.82 1.52-1.79 2.82-1.64l3.04 0.4c1.03 0.04 2.02-0.15 3.15-0.47 2.68-1.05 4.68-2.35 7.24-4.08 0.84-0.4 1.54-0.52 2.11-0.52zm-223.5 3.55c0.1 0 0.27 0.07 0.4 0.13 7.89 3.96 18.65 6.44 24.14 8.75 2.88 1.35 5.98 3.35 8.21 3.69 0.92 0.06 0.92-0.44 0.46-0.99-0.59-0.93-1.18-1.81-1.77-2.63 13.56 6.29 26.12 13.59 39.4 22.37-0.04 0.11-0.1 0.21-0.12 0.32-0.38 1.13-0.76 2.16-1.14 3.09-0.21 0.53-0.44 1.12-0.65 1.58-0.17 0.4-0.36 0.82-0.53 1.18-0.31 0.67-0.63 1.41-0.92 1.98-0.38 0.73-0.8 1.59-1.12 2.23-0.1 0.25-0.21 0.48-0.32 0.73-0.21 0.47-0.44 0.93-0.58 1.37-0.11 0.32-0.19 0.61-0.28 0.93-0.04 0.14-0.1 0.29-0.12 0.46-0.09 0.42-0.11 0.84-0.15 1.3-0.02 0.43-0.02 0.87 0 1.33 0.04 0.49 0.06 0.97 0.15 1.52 0.16 1.32 0.54 1.83 0.98 2.04 0.13 0.06 0.32 0.08 0.47 0.12 0.31 0.07 0.92 0.17 1.11-0.33 0.15-0.47 0.38-0.93 0.59-1.37 0.21-0.46 0.4-0.88 0.66-1.33 0.48-0.88 1.05-1.76 1.64-2.63 0.12-0.19 0.25-0.4 0.4-0.59 1.07-1.51 2.25-2.96 3.34-4.46 0.11-0.15 0.17-0.27 0.28-0.4 0.44-0.65 0.84-1.32 1.24-1.98 0.15-0.23 0.31-0.48 0.46-0.71 0.38-0.66 0.76-1.31 1.05-1.98l8.49 6.31c-1.41 3.45-3.22 8.13-3.75 11.45-0.99 7.47-5.58 5.79-9.01 2.95 0.21 7.7 0.8 11.01-3.49 17.76-0.57 0.97-1.1 0.63-1.45 0-10.38-20.01-20.4-15.24-33.53-36.56-1.18-3.09-3.41-6.04-7.71-7.64-16.18-6.37-27.74-10.75-27.36-29.34 0.02-0.33 0.19-0.65 0.53-0.65zm142.72 66.83c0.67 0.04 1.26 0.61 1.51 1.32 3.27 7.37 7.33 20.33 6 24.52-4.8 18.4-17.76 21.45-29.8 19.87-9.03-1.18-9.07-3.3-9.22-9.34 0.02-0.66 0.93-0.91 1.66-1.12 10.91-3.43 17.47-9.37 17.75-20.71 0.06-1.54 0.25-3.16-0.53-4.55 3.05-1.95 5.87-3.97 8.63-6.5 0.08-0.08 0.19-0.17 0.25-0.27 0.84-1.33 1.79-2.4 3.1-3.1 0.23-0.08 0.44-0.14 0.65-0.12zm-60.64 1.39c0.36-0.11 0.68 0.08 1.06 0.52 0.27 0.3 0.65 1.24 1.51 1.24 1.47 1.86 3.52 3.46 5.45 4.87-0.59 0.58-0.95 1.26-1.18 1.97-0.61 1.75-0.5 4.72 0 7.43 0.21 1.6 0.76 3.01 1.58 4.4 3.94 6.13 6.74 8.88 11.18 11.91 1.85 1.12 3.89 2.09 6.25 1.86 0.65-0.09 1.03 0.35 0.92 0.9-0.71 9.03-4.82 9.64-15.19 8.36-22.98-4.59-25.01-19.56-12.57-42.16 0.28-0.8 0.66-1.2 0.99-1.3zm29.81 48.85c3.17-0.07 6.54 0.04 9.85 0.46 0.5 0.1 0.54 0.52 0.4 0.86-0.47 1.24-1.86 2.82-2.57 3.43-0.44 0.34-1.12 0.47-1.71 0.65-2.48 0.66-6.35 0.95-7.03 0.85-0.61-0.13-1.22-0.36-1.79-0.72-2.16-1.22-4.18-2.63-6.31-3.93-0.46-0.36-0.48-0.91 0.06-0.99 2.87-0.28 5.9-0.53 9.1-0.61z"/>
 <path id="fox-background" fill-rule="evenodd" fill="#fdbe11" d="m449.55 238.46c-0.13 0-0.26 0.02-0.4 0.06-26.12 9.5-58.52 28.4-75.37 53.48-6.8 5.48-13.77 10.82-20.99 15.51 15.01-19.95-14.94-21.27-51.04-25.19-24.81-2.12-54.42 5.64-64.06 10.93-0.87 0.5-1.41 1.49-0.72 2.37 2.69 3.83 3.52 8.34 5.11 12.57 0.22 0.46-0.23 0.5-0.58 0.19-31.41-28.12-78.34-66.05-93.98-69.79-0.74-0.13-1.41 0.12-1.79 0.8-1.11 2.33-1.37 3.01-2.23 5.32-0.61 2.04-1.73 3.31-2.29 3.87-8.95 8.78 6.73 25.24 9.07 55.34 1.56 12.71 4.63 18.41 7.55 27.15 0.45 1.18 0.74 2.19 0.93 3.36 4.06 14.02 6.71 28.31 12.1 41.3 6.42 20.86-18.75 17.43-19.78 34.73-0.59 11.74 13.19 18.18 10.84 26.77-0.15 0.54-1.16 1.13-0.59 1.83 10.61 11.01 14.71 8.44 19 17.57 9.96 17.45 20.78-1.64 38.81 23.81 13.56 6.29 26.12 13.59 39.4 22.37 0.95-2.97 1.83-6.65 2.63-11.45 1.58-9.49 1.27-19.07-4.73-32.31-1.1-1.93-0.44-5.2 1.51-6.75 0.99-0.74 1.41-1.03 1.52 0.5 1.68 17.6 16.1 29.47 7.22 46.12-0.32 0.61-0.7 1.11-0.59 2.1 0.19 2.25-0.27 4.27-1.12 6.19l8.49 6.31c0.56-1.37 1.07-2.52 1.39-3.34 3.78-19.56 6.75-51.13 9.59-55.06 0.26-0.38 0.57-0.97 0-1.39-3.3-3.41-7.01-9.07-5.32-10.78 1.81-1.37 12.35 2.89 12.29 10.53-0.44 6.84-7.11 70.17-15.45 79.11-0.4 0.46-0.25 0.78 0 1.12 3.64 5.13 2.86 6.4 1.58 7.05-1.16 0.44-3.58 0.25-4.67 0.65-0.19 0.06-0.38 0.06-0.53 0.06 1.47 1.86 3.52 3.46 5.45 4.87 1.16-1.14 3.12-1.98 6.13-2.43 11.76-2.04 22.98-1.7 31.57 2.36 1.15 0.59 1.87 1.29 2.29 2.04 3.05-1.95 5.87-3.97 8.63-6.5-0.8 0.59-2.5 0.02-2.76-1.33-4.71-25.67-9.74-29.63-12.71-48.99-1.2-6.57-1.77-13.45-0.53-19.75 0.4-2.04 0.53-3.89 0-6.1-1.7-6.33-1.6-12.94-0.18-19.21 0.96-2.11 3.43-4.93 5.19-7.31 1.46-1.91 2.49-4.14 3.29-6.56 0.82-2.51 8.96-14.67 15.91-16.59 0.59-0.15 0.67-0.5 0.74-1.05 0.06-0.61-1.08-0.63-0.99-1.56 0.25-4.84 30.68-2.23 46.7-0.74 6.1-0.54 12.19-1.49 17.95-2.56 1.01-0.19 1.08 0.16 0.47 0.8-4.78 5.26-11.66 8.14-17.89 8.94-1.18 0.17-1.5 0.82-1.73 1.71-3.56 17.86-29.4 26.49-40.64 24.39-0.72-0.13-0.74 0.38-0.72 0.74 0.82 9.15-3.11 10.08-6.52 36.83-0.21 1.49-0.15 2.82 0.08 4.33 0.53 4.34 1.79 8.46 2.76 13.03 15.74-10.23 33.36-18.58 49.99-25.47 3.36-3.8 6.69-7.24 10.18-11.11 0.97-1.28 2.84-2.06 4.61-2.69 13.24-5.56 26.65-14.21 36.71-25.13 0.29-0.36 0.9-0.95 0.71-1.64-3.07-14.36 6.4-18.61 12.36-29.26 0.9-1.39-0.07-1.75-1.05-2.25-6.55-4.13-12.51-9.83-17.09-15.18-1.08-1.6-1.54-3.62-1.92-5.41-4.74-22.3 5.07-23.93 6.84-36.83-0.13-6.42 1.6-13.97 3.62-20.64 2.38-7.77 3.45-14.08 6.19-18.42 1.35-38.85 13.41-30.08 10.12-50.79-0.86-4.14-3.05-11.66-5.66-16.83-0.21-0.49-0.53-0.7-0.9-0.72zm-7.43 7.58c0.21-0.05 0.44-0.02 0.65 0 1.39 0.1 2.48 1.13 2.63 2.42 0.25 2.52 0.8 4.84 1.3 7.17-8.98 21.47-3.76 50.94-15.51 69-0.59 15.82-2.57 25.91-11.97 32.22-0.38 0.29-0.8 0.25-1.25 0-15-7.33-28.41-22.61-41.5-34.6 20.37-13.26 1.92-27.19 16.44-42.41 16.9-17.85 31.78-19.62 47.23-32.9 0.65-0.55 1.32-0.84 1.98-0.9zm-292.03 1.11c1.85 0.02 3.98 1.01 5.51 2.49 15.05 6.58 13.7 12.6 25.45 18.5 2.5 1.3 6.78 3.64 10.08 4.39 1.52 5.27 4 5.12 9.53 14.55 1.33 2.31 6.19 6.1 6.63 9.26 0.34 1.98 0.3 3.7 0.15 5.6-0.15 5.36-2.36 10.48 0.59 12.88 2.42 1.24 0.82 2.46 5.2 4.67 2.21 1.07 3.35 2.17 2.17 4.48-3.5 6.13-7.79 11.18-11.7 16.78-1.02 1.3-2.51 2.33-4.02 3.22-8.49 5.09-15.54 12.25-23.16 19-0.48 0.36-0.71 0-1.05-0.12-7.3-4.15-9.24-11.39-10.21-21.26-2.52-26.35-7.81-3.56-16.69-82.02-1.2-3.54-2.5-9.85-1.39-11.3 0.76-0.78 1.77-1.14 2.91-1.12zm171.85 51.1c-6.76 12.53-10.19 11.35-14.27 16.25-0.3 0.34-0.61 0.76-0.93 1.18-0.29 0.42-0.61 0.86-0.9 1.37-0.32 0.5-0.55 0.95-0.68 1.39 0 0.02 0.02 0.04 0 0.06-0.1 0.42-0.17 0.89-0.19 1.26 0.19 4.09-0.48 5.75 0.59 7.1 0.07 0.1 0.11 0.21 0.13 0.33 0.06 0.13 0.06 0.26 0.08 0.38 0.02 0.28-0.04 0.55-0.14 0.74-0.76-0.48-1.94-1.39-2.95-2.29-0.78-0.7-1.43-1.35-1.73-1.92 0-0.02 0.02-0.04 0-0.06-0.08-0.19-0.12-0.38-0.12-0.53 0-0.42-0.04-0.69-0.07-0.93-0.1-0.94-0.37-0.8-0.59-1.83-0.1-0.52-0.23-1.34-0.27-2.77-0.02-0.7 0-1.58 0-2.64-0.08-0.67-0.02-1.01 0.15-1.3 0.06-0.13 0.15-0.27 0.25-0.4 0.11-0.13 0.21-0.25 0.34-0.4 6.1-6.27 14.2-10.42 21.3-14.99zm-48.66 1.52c6.39 4.34 13.57 10.14 20.58 15.97 0.15 0.17 0.25 0.34 0.4 0.53 0.4 0.61 0.7 1.33 0.53 2.23-0.42 2.65-1.69 5.2-2.7 7.89-0.04 0.13-0.12 0.19-0.21 0.28-0.08 0.06-0.15 0.15-0.25 0.19-0.21 0.08-0.46 0.06-0.59-0.07-1.26-1.6-2.63-3.22-3.77-4.86-0.38-0.5-0.78-1.05-0.78-1.72 0.05-0.53 0.07-1.06 0.07-1.5 0-0.46-0.02-0.86-0.07-1.26-0.1-0.74-0.33-1.39-0.65-1.9-0.02-0.02 0-0.06 0-0.06-0.67-1.07-1.83-1.7-3.68-2.19-1.52-0.44-2.84-1.11-3.96-1.89-0.02-0.02-0.04 0-0.06 0-1.64-1.18-2.82-2.76-3.62-4.67 0-0.02-0.06-0.05-0.06-0.07-0.8-1.95-1.16-4.23-1.18-6.9zm84.65 61.56c1.72-0.08 3.53 0.13 5.32 0.53 1.77 0.4 3.54 1.01 5.05 1.83 0.47 0.29 0.59 0.86 0.07 1.05-2.53 0.68-5.1 1.54-7.69 2.57-1.3 0.5-2.56 1.07-3.89 1.64-6.52 2.88-13.17 6.48-19.78 9.81-0.7 0.29-1.16 0.19-1.46-0.21-0.1-0.15-0.18-0.3-0.25-0.53-0.15-0.71-0.12-1.41-0.06-2.1 0.04-0.68 0.17-1.37 0.19-2.11 0.06-1.01 0.69-1.07 1.05-1.58 1.24-0.48 2.29-0.9 3.16-1.3 2.59-1.2 3.64-2.04 4.52-2.82 0.61-0.53 1.16-1.01 1.92-1.6 0.78-0.57 1.81-1.22 3.49-2.02 1.01-0.46 2.02-0.88 3.01-1.33 1.01-0.42 2-0.84 2.97-1.18 0.76-0.4 1.64-0.63 2.38-0.65zm-128.33 1.37c0.13 0 0.3 0.04 0.4 0 0.42 0.15 0.76 0.32 1.06 0.46 0.29 0.17 0.5 0.34 0.71 0.53 0.78 0.67 1.1 1.43 3.1 2.38 0.48 0.23 1.11 0.52 1.83 0.78 0.73 0.25 1.6 0.5 2.63 0.8 2.48 0.8 4.25 1.26 5.91 1.89 0.04 0.02 0.04 0.06 0.09 0.06 1.64 0.66 3.22 1.46 5.17 2.84 0.68 0.47 1.39 1.02 2.19 1.65 0.78 0.63 1.67 1.34 2.63 2.16 0.4 0.32 0.76 0.53 0.85 1.12 0.02 0.19 0 0.38-0.07 0.59v0.06c-0.06 0.21-0.15 0.4-0.25 0.61-0.25 0.44-0.59 0.82-0.93 1.12-0.12 0.08-0.23 0.15-0.33 0.19-0.09 0.02-0.26 0.02-0.47 0-0.63-0.13-1.13-0.21-1.64-0.4-0.46-0.17-0.86-0.38-1.24-0.59-0.4-0.21-0.74-0.4-1.05-0.65-0.32-0.26-0.57-0.53-0.86-0.8-0.59-0.55-1.2-1.12-1.98-1.71-0.36-0.29-0.76-0.57-1.25-0.86-0.48-0.28-1.03-0.57-1.64-0.84-0.63-0.28-1.13-0.34-1.64-0.21-0.17 0.06-0.36 0.1-0.52 0.21-0.68 0.27-1.31-0.05-1.98-0.21-0.51-0.11-1.08-0.3-1.64-0.51-0.03-0.02-0.05 0-0.07 0-4.1-1.62-9.2-5.62-9.22-10.4 0-0.08 0.05-0.16 0.07-0.21 0.04-0.02 0.08-0.06 0.14-0.06zm8.74 45.78c1.09 0 2.23 0.06 3.37 0.12 1.15 0.11 2.33 0.21 3.53 0.4 0.91 0.15 1.79 0.34 2.72 0.53 0.29 0.08 0.59 0.13 0.9 0.21 0.55 0.13 1.1 0.29 1.64 0.46 0.72 0.19 1.41 0.4 2.11 0.66 1.03 0.35 2.02 0.73 3.03 1.17 0.88 0.38 1.77 0.8 2.63 1.25 0.86 0.46 1.73 0.99 2.57 1.51 0.71 0.44 1.41 0.91 2.1 1.39 0.32 0.21 0.63 0.36 0.93 0.59 0.5 0.38 1.01 0.78 1.51 1.18 0.11 0.08 0.21 0.17 0.32 0.27 0.08 0.07 0.19 0.13 0.27 0.19 0.15 0.13 0.32 0.28 0.47 0.4 0.65 0.57 1.3 1.22 1.95 1.83 0.85 0.8 1.65 1.62 2.45 2.51 0.06 0.06 0.12 0.12 0.21 0.19 0.71 0.82 1.38 1.68 2.1 2.56 0.4 0.55 0.82 1.1 1.24 1.65 0.34 0.48 0.65 0.9 0.99 1.39 0.74 1.09 1.41 2.23 2.11 3.43 0.27 0.46 0.48 1.07 0.46 1.57-0.02 0.17-0.06 0.3-0.15 0.47-0.65 1.39-1.05 2.8-1.37 4.4-0.04 0.23-0.25 0.42-0.46 0.46-0.08 0-0.21-0.02-0.27-0.06-1.14-0.7-2.19-1.37-3.22-2.11-0.99-0.71-1.92-1.49-2.82-2.25-0.02 0-0.07 0.02-0.07 0-0.92-0.76-1.76-1.56-2.63-2.36-7.72-7.13-13.15-14.88-23.55-16.96-0.02-0.02-0.04 0-0.06 0-4.65-0.93-10.23-0.7-17.49 1.18-2.42 0.25-5.1 0.25-7.83 0.06-2.74-0.19-5.52-0.57-8.17-1.05-1.28-0.23-2.61-0.51-3.81-0.8-0.02 0-0.04 0.02-0.06 0-1.2-0.28-2.32-0.61-3.35-0.91-0.04-0.02-0.06 0-0.08 0-2.13-0.63-3.85-1.3-5.05-1.91 5.43 0.1 11.4 0.04 16.56-0.19s9.45-0.57 11.51-0.99c0.7-0.34 1.54-0.63 2.45-0.93 0.84-0.27 1.81-0.57 2.82-0.78 0.08-0.02 0.19 0 0.27 0 0.9-0.19 1.85-0.35 2.88-0.46 0.17-0.02 0.3-0.06 0.47-0.06 1.24-0.13 2.52-0.19 3.87-0.21zm114.64 8.82c-4.59 0.27-9.62 2.02-15.32 6.96-8.63 8.48-15.89 19.03-21.45 29.01-0.65 1.22-0.86 2.33-0.59 3.62 6.32 29.08 9.03 43.56 10.21 51.24l4.15-3.43c-2.49-7-3.77-15.47-2.91-25.65 2.99-7.79 4.55-16.99 5.92-25.78 4.54-9.64 5.01-13.73 9.4-13.47 3.94 0.21 8.02 0.4 11.71-0.4 1.43-0.28 2.61-0.85 3.89-1.65 6.21-3.74 11.51-8.81 16.04-14.54 0.55-0.59 0.88-1.85 0.59-2.42-0.17-0.44-0.44-0.67-0.99-0.67-6.53 0.4-12.97-3.27-20.65-2.82zm-2.1 0.71c1.22-0.02 2.48 0.25 3.68 0.74 2.42 0.95 4.19 2.8 5.14 4.99 0.48 1.11 0.75 2.27 0.8 3.49 0.02 1.22-0.19 2.48-0.68 3.68-0.48 1.2-1.18 2.23-2.04 3.1-2.57 2.59-6.59 3.53-10.19 2.1-0.61-0.25-1.18-0.5-1.7-0.86-0.53-0.34-0.95-0.76-1.39-1.18-2.59-2.57-3.54-6.52-2.11-10.12 0.19-0.49 0.4-0.91 0.66-1.33 0.04-0.04 0.1-0.08 0.14-0.13 0.11-0.18 0.19-0.35 0.32-0.52 0.25-0.34 0.53-0.63 0.8-0.93l0.25-0.25c0.4-0.4 0.8-0.8 1.27-1.12 0.35-0.27 0.77-0.46 1.17-0.67 0.07-0.02 0.13-0.02 0.19-0.06 0.13-0.04 0.21-0.15 0.34-0.19 0.51-0.21 1.03-0.36 1.58-0.46 0.57-0.13 1.18-0.26 1.77-0.28zm-104.96 0.15c1.22-0.04 2.39 0.17 3.62 0.65 0.58 0.23 1.17 0.51 1.7 0.86 0.53 0.34 0.95 0.74 1.37 1.18 0.46 0.45 0.84 0.87 1.2 1.37 0.67 1.01 1.18 2.13 1.45 3.31 0.38 1.74 0.25 3.64-0.46 5.45-0.26 0.61-0.53 1.11-0.87 1.64 0 0.02 0.03 0.04 0 0.06-1.36 2.06-3.51 3.45-5.85 3.96-1.18 0.25-2.4 0.27-3.62 0.06-0.61-0.1-1.24-0.29-1.83-0.52-0.61-0.26-1.2-0.53-1.72-0.87-1.03-0.67-1.88-1.56-2.57-2.57-1.69-2.48-2.17-5.72-0.97-8.73 0.23-0.59 0.57-1.14 0.91-1.64 0.31-0.49 0.61-0.93 0.98-1.33 0.09-0.08 0.19-0.12 0.28-0.19 0.4-0.4 0.78-0.82 1.24-1.11 0.38-0.28 0.78-0.47 1.18-0.68 0.02 0 0.04-0.04 0.06-0.06 0.38-0.17 0.8-0.25 1.2-0.38 0.38-0.12 0.78-0.27 1.18-0.33h0.13c0.44-0.09 0.92-0.13 1.39-0.13zm-29.87 4.59c0.23 0 0.48 0.04 0.72 0.08 0.04 0 0.1-0.02 0.14 0 0.42 0.04 0.84 0.19 1.31 0.38 0.5 0.21 1.03 0.46 1.58 0.8 0.56 0.34 1.15 0.72 1.79 1.18l0.18 0.13c0.55 0.42 1.1 0.84 1.71 1.32 0.65 0.51 1.26 0.95 1.98 1.52 1.32 1.03 2.78 2.16 4.33 3.28 0.78 0.57 1.58 1.09 2.44 1.64 0.66 0.42 1.33 0.91 2.05 1.33 0.29 0.17 0.61 0.33 0.9 0.5 0.82 0.47 1.69 0.91 2.57 1.33 0.86 0.42 1.77 0.8 2.69 1.18 0.3 0.12 0.57 0.29 0.87 0.4 0.92 0.35 1.89 0.63 2.88 0.92 1.18 0.34 2.38 0.68 3.62 0.93 1.26 0.23 2.55 0.4 3.89 0.5 1.35 0.13 2.76 0.21 4.21 0.21 0.28 0 0.49 0.07 0.66 0.19 0.16 0.11 0.29 0.26 0.33 0.53 0.04 2.27-2.04 3.07-4.29 3.22-1.33 0.02-2.65-0.02-4-0.06-3.96-0.11-7.89-0.42-11.85-1.06-0.42-0.04-0.78-0.14-1.18-0.31-0.38-0.17-0.71-0.4-1.11-0.67-1.22-0.83-2.51-1.77-3.81-2.82-1.31-1.06-2.55-2.15-3.75-3.22-1.24-1.1-2.38-2.11-3.37-3.04-0.97-0.9-1.74-1.68-2.29-2.23-0.57-0.5-1.01-0.92-1.39-1.32-0.36-0.38-0.67-0.76-0.93-1.05-0.48-0.59-0.69-0.99-0.96-1.37-0.15-0.19-0.3-0.36-0.47-0.53-0.52-0.55-1.37-1.14-3.28-2.17-0.23-0.1-0.38-0.19-0.4-0.33-0.02-0.09-0.02-0.15 0.06-0.26 0.07-0.1 0.13-0.23 0.25-0.33 0.21-0.17 0.47-0.3 0.68-0.4 0.19-0.11 0.38-0.21 0.59-0.26 0.21-0.06 0.42-0.12 0.65-0.14z"/>
</svg>
