<?xml version="1.0" encoding="utf-8"?>
<!-- Generator: Adobe Illustrator 16.0.2, SVG Export Plug-In . SVG Version: 6.00 Build 0)  -->
<!DOCTYPE svg PUBLIC "-//W3C//DTD SVG 1.1//EN" "http://www.w3.org/Graphics/SVG/1.1/DTD/svg11.dtd">
<svg version="1.1" id="Layer_1" xmlns:svg="http://www.w3.org/2000/svg"
	 xmlns="http://www.w3.org/2000/svg" xmlns:xlink="http://www.w3.org/1999/xlink" x="0px" y="0px" width="320.547px"
	 height="632.83px" viewBox="0 0 320.547 632.83" enable-background="new 0 0 320.547 632.83" xml:space="preserve">
<path id="path8066" fill="#001C58" d="M92.196,423.371c-1.71-0.429-3.188-1.489-4.327-3.08c-5.782,8.919-8.22,16.894-6.094,24.051
	c8.895,30.032,35.392,52.212,67.126,55.166C118.572,490.296,96.126,458.693,92.196,423.371 M85.986,405.622
	c-1.911-1.361-3.547-2.637-4.711-3.748c-2.028,7.471-2.964,15.375-2.632,23.52c0.064,1.646,0.183,3.275,0.346,4.891
	c1.174-4.813,3.485-9.842,6.798-14.969C85.146,412.313,85.247,408.901,85.986,405.622z M87.481,401.038
	c0.801-1.82,1.805-3.5,3-4.916c0.961-1.133,1.984-2.033,3.072-2.701c2.886-13.451,8.913-25.432,17.725-34.488
	c-13.156,9.354-23.239,22.689-28.54,38.166C83.442,398.062,85.313,399.517,87.481,401.038z M201.291,470.088
	c-6.567-0.729-15.354-2.465-19.188-3.793c-4.282-1.479-8.092-5.058-10.186-9.577c-0.867-1.868-1.65-4.353-1.775-7.365
	c-0.071-1.801,0.101-3.785,0.628-5.936c-24.078-7.344-49.582-17.542-67.337-27.023c-0.625,1.145-1.339,2.207-2.142,3.155
	c-1.335,1.58-2.835,2.727-4.379,3.38c1.667,14.773,6.797,29.249,14.966,41.862c10.836,16.73,25.595,28.196,41.536,31.806
	c5.652,1.273,13.04,2.863,19.649,1.399c24.505-5.427,44.479-22.377,54.244-44.674c-1.146,0.204-2.431,0.319-3.812,0.368
	C217.906,470.049,206.147,470.625,201.291,470.088z M233.716,419.082c-0.349-8.615-2.086-16.842-4.992-24.476
	c-3.574-9.361-15.521-16-31.256-19.564c-29.09-6.576-67.301,4.287-91.615,24.744c0.934,3.73,0.656,8.181-0.598,12.24
	c17.521,9.42,43,19.615,67.039,26.934c5.658-12.992,16.49-15.47,24.938-13.358c6.052,1.511,9.941,2.303,12.782,2.873l3.125,0.66
	c4.016,0.939,7.539,3.607,9.65,7.325c1.497,2.626,2.872,6.779,1.936,12.5c2.953-0.173,4.383-0.668,4.714-1.059
	C232.594,438.907,234.13,429.178,233.716,419.082z M219.931,448.959c0.967-4.793-0.08-8.129-1.244-10.168
	c-1.46-2.575-3.879-4.42-6.616-5.061l-2.993-0.631c-2.724-0.55-6.832-1.386-12.988-2.922c-8.245-2.06-15.319,1.718-19.228,10.138
	c4.017,1.168,7.973,2.246,11.828,3.224c0.621-2.999,0.754-5.079,0.754-5.116c0.08-1.299,1.196-2.292,2.497-2.216
	c1.3,0.076,2.293,1.188,2.215,2.493c-0.008,0.169-0.16,2.555-0.876,5.959c0.763,0.179,1.528,0.358,2.278,0.527
	c0.772,0.177,1.534,0.346,2.28,0.503c0.673-3.317,1.105-6.139,1.117-6.194c0.195-1.288,1.399-2.172,2.685-1.978
	c1.293,0.192,2.177,1.396,1.984,2.687c-0.034,0.227-0.472,3.051-1.164,6.436c1.582,0.31,3.082,0.578,4.505,0.821
	c0.523-2.862,0.651-5.138,0.651-5.181c0.063-1.3,1.173-2.305,2.474-2.239c1.305,0.063,2.31,1.168,2.242,2.466
	c-0.01,0.194-0.137,2.584-0.696,5.66C214.906,448.611,217.652,448.854,219.931,448.959z M176.199,454.729
	c1.844,3.979,5.055,6.281,7.447,7.104c3.106,1.078,11.33,2.805,18.16,3.554c7.491,0.829,13.349-3.339,16.688-11.762
	c-2.507-0.144-5.19-0.438-7.969-0.824c-0.521,1.695-1.185,3.387-2.039,4.888c-0.645,1.133-2.082,1.522-3.215,0.883
	c-1.133-0.645-1.528-2.086-0.883-3.224c0.565-0.994,1.034-2.125,1.423-3.289c-1.465-0.25-2.939-0.526-4.398-0.809
	c-0.501,1.957-1.074,3.816-1.676,5.207c-0.521,1.194-1.915,1.737-3.11,1.219c-1.195-0.52-1.737-1.911-1.219-3.104
	c0.487-1.118,0.953-2.634,1.383-4.277c-0.766-0.168-1.522-0.336-2.272-0.505c-0.793-0.178-1.605-0.37-2.415-0.565
	c-0.425,1.368-0.925,2.79-1.534,4.23c-0.504,1.2-1.896,1.762-3.095,1.256c-1.198-0.505-1.766-1.892-1.257-3.09
	c0.508-1.188,0.93-2.372,1.288-3.512c-3.977-1.01-8.063-2.13-12.205-3.339C174.3,449.116,175.167,452.514,176.199,454.729z
	 M98.451,395.921c-1.046-0.191-3.122-0.176-5.196,2.079c-3.284,3.562-4.826,8.386-4.59,14.33l0,0
	c0.066,1.517,0.278,2.364,0.707,3.587c0.767,2.16,2.606,3.588,3.95,3.832c1.598,0.293,3.402-0.643,5.086-2.635
	c3.679-4.365,5.266-12.369,3.461-17.477C101.119,397.509,99.908,396.188,98.451,395.921z"/>
<path id="path8068" fill="#FFFFFF" d="M122.556,8.08c-30.403,0-37.609,15.588-37.609,15.588s35.079-2.535,35.079,32.11
	c0,15.592-8.485,26.16-17.466,37.344c-10.435,12.989-22.254,27.712-22.254,52.41c0,40.884,26.266,60.064,49.438,76.984
	C149.933,237.262,169,251.185,169,277.403c0,26.363-11.563,46.801-16.841,52.077c-8.852,8.852-16.828,10.461-23.23,11.756
	c-6.578,1.328-12.794,2.604-14.099,12.053c-24.341,14.619-39.088,40.656-39.088,68.906c0,1.102,0.023,2.208,0.067,3.314
	c0.875,21.471,10.058,41.313,25.855,55.873c15.797,14.563,36.321,22.099,57.787,21.223c21.468-0.874,41.31-10.06,55.872-25.853
	c14.563-15.798,22.1-36.323,21.22-57.786c-1.329-32.773-22.126-61.178-52.979-72.361l0.119,0.045c-0.021-0.01-0.422-0.17-0.422-0.17
	c-0.005-0.004-0.728-0.256-0.728-0.256c-3.902-1.347-8.329-2.877-8.329-12.912c0-9.726,4.415-10.531,13.2-12.146
	c5.223-0.959,11.613-2.131,17.88-5.959c11.153-6.808,13.247-15.021,11.216-17.048c-2.764-2.768-5.811,3.045-17.037,6.427
	c-4.047,1.222-8.119,1.932-10.87,1.932c-2.289,0-3.997-0.192-5.25-0.42c5.896-11.046,12.501-20.089,12.573-20.184l1.439-1.958
	l-1.721-1.72c-2.281-2.28-3.595-7.024-3.595-13.385c0-7.849,1.996-18.155,6.629-29.345c5.48-13.223,27.232-56.377,77.123-56.377
	h2.833v-2.832c0-17.836-1.63-34.241-4.841-48.757l-0.625-2.82c0,0-4.844,1.375-8.879,2.275c-0.479,0.106-4.254,1.033-4.426,0.237
	c-0.151-0.704,2.763-2.167,3.77-2.673c3.789-1.884,8.513-3.868,8.513-3.868l-0.652-2.27c-3.559-12.42-7.14-18.355-7.293-18.604
	l-1.156-1.892l-2.106,0.667c-41.548,13.088-50.432,40.658-55.739,57.127c-2.583,8.003-4.182,12.531-7.07,12.531
	c-8.575,0-15.669-7.092-18.001-9.423c-25.902-25.905-23.919-44.581-20.911-72.854c1.065-9.977,2.27-21.283,2.27-34.195
	C161.475,23.236,149.109,8.08,122.556,8.08"/>
<path id="path8070" fill="#001C58" d="M171.832,277.402c0,26.256-11.199,47.608-17.669,54.078
	c-20.051,20.053-36.589,5.449-36.769,25.567c-9.1,8.24-15.646,20.769-18.857,35.077c0.2,0.02,0.398,0.048,0.594,0.085
	c1.884,0.343,3.5,1.419,4.734,3.117c25.467-20.755,64.677-31.668,94.647-24.892c9.527,2.154,17.609,5.672,23.73,11.055
	c-9.203-14.887-23.272-26.374-39.904-32.336c-3.946-1.416-10.965-3.036-10.965-15.846c0-23.904,26.154-5.317,43.385-31.354
	c0.845-1.286-0.369-2.408-1.383-1.397c-5.211,5.208-18.012,8.792-24.781,8.792c-6.778,0-9.327-1.544-9.327-1.544
	c6.397-12.732,14.366-23.569,14.366-23.569c-15.995-15.996,10.927-103.942,82.162-103.942c0-20.4-2.154-36.313-4.773-48.146
	c-1.694,0.413-15.112,3.577-15.728,0.755c-0.543-2.5,9.885-7.92,13.475-9.703c-3.501-12.194-6.988-17.909-6.988-17.909
	c-61.057,19.237-48.786,69.788-63.66,69.788c-9.682,0-17.286-7.536-20.002-10.252c-36.469-36.463-19.472-60.596-19.472-109.052
	c0-32.642-12.677-44.867-36.088-44.867c-23.41,0-31.774,10.137-31.774,10.137s32.076,1.039,32.076,34.73
	c0,35.272-39.721,45.008-39.721,89.753C83.138,220.016,171.832,218.617,171.832,277.402 M129.549,55.778
	c0-4.324-0.465-8.229-1.309-11.753c0,0,6.981-0.365,6.981-8.861c0-7.004-4.673-11.779-5.926-11.779
	c-1.011,0-1.262,1.073-3.449,1.073c-5.332,0-5.723-6.813-5.723-6.813c0.789-0.027,1.601-0.039,2.433-0.039
	c15.266,0,29.396,4.623,29.396,38.174c0,12.407-1.176,23.448-2.211,33.188c-1.027,9.62-1.976,18.568-1.703,27.306
	c0,0-26.584-3.133-26.584-23.133C121.454,80.153,129.549,76.993,129.549,55.778z M92.196,423.371
	c-1.71-0.429-3.188-1.489-4.327-3.08c-5.782,8.919-8.22,16.894-6.094,24.051c8.895,30.032,35.392,52.212,67.126,55.166
	C118.572,490.296,96.126,458.693,92.196,423.371z M85.986,405.622c-1.911-1.361-3.547-2.637-4.711-3.748
	c-2.028,7.471-2.964,15.375-2.632,23.52c0.064,1.646,0.183,3.275,0.346,4.891c1.174-4.813,3.485-9.842,6.798-14.969
	C85.146,412.313,85.247,408.901,85.986,405.622z M87.481,401.038c0.801-1.82,1.805-3.5,3-4.916c0.961-1.133,1.984-2.033,3.072-2.701
	c2.886-13.451,8.913-25.432,17.725-34.488c-13.156,9.354-23.239,22.689-28.54,38.166C83.442,398.062,85.313,399.517,87.481,401.038z
	 M201.291,470.088c-6.567-0.729-15.354-2.465-19.188-3.793c-4.282-1.479-8.092-5.058-10.186-9.577
	c-0.867-1.868-1.65-4.353-1.775-7.365c-0.071-1.801,0.101-3.785,0.628-5.936c-24.078-7.344-49.582-17.542-67.337-27.023
	c-0.625,1.145-1.339,2.207-2.142,3.155c-1.335,1.58-2.835,2.727-4.379,3.38c1.667,14.773,6.797,29.249,14.966,41.862
	c10.836,16.73,25.595,28.196,41.536,31.806c5.652,1.273,13.04,2.863,19.649,1.399c24.505-5.427,44.479-22.377,54.244-44.674
	c-1.146,0.204-2.431,0.319-3.812,0.368C217.906,470.049,206.147,470.625,201.291,470.088z M228.723,394.606
	c-3.574-9.361-15.521-16-31.256-19.564c-29.09-6.576-67.301,4.287-91.615,24.744c0.934,3.73,0.656,8.181-0.598,12.24
	c17.521,9.42,43,19.615,67.039,26.934c5.658-12.992,16.49-15.47,24.938-13.358c6.052,1.511,9.941,2.303,12.782,2.873l3.125,0.66
	c4.016,0.939,7.539,3.607,9.65,7.325c1.497,2.626,2.872,6.779,1.936,12.5c2.953-0.173,4.383-0.668,4.714-1.059
	c3.151-8.994,4.688-18.724,4.273-28.818C233.368,410.467,231.63,402.24,228.723,394.606z M176.199,454.729
	c1.844,3.979,5.055,6.281,7.447,7.104c3.106,1.078,11.33,2.805,18.16,3.554c7.491,0.829,13.349-3.339,16.688-11.762
	c-2.507-0.144-5.19-0.438-7.969-0.824c-0.521,1.695-1.185,3.387-2.039,4.888c-0.645,1.133-2.082,1.522-3.215,0.883
	c-1.133-0.645-1.528-2.086-0.883-3.224c0.565-0.994,1.034-2.125,1.423-3.289c-1.465-0.25-2.939-0.526-4.398-0.809
	c-0.501,1.957-1.074,3.816-1.676,5.207c-0.521,1.194-1.915,1.737-3.11,1.219c-1.195-0.52-1.737-1.911-1.219-3.104
	c0.487-1.118,0.953-2.634,1.383-4.277c-0.766-0.168-1.522-0.336-2.272-0.505c-0.793-0.178-1.605-0.37-2.415-0.565
	c-0.425,1.368-0.925,2.79-1.534,4.23c-0.504,1.2-1.896,1.762-3.095,1.256c-1.198-0.505-1.766-1.892-1.257-3.09
	c0.508-1.188,0.93-2.372,1.288-3.512c-3.977-1.01-8.063-2.13-12.205-3.339C174.3,449.116,175.167,452.514,176.199,454.729z
	 M219.931,448.959c0.967-4.793-0.08-8.129-1.244-10.168c-1.46-2.575-3.879-4.42-6.616-5.061l-2.993-0.631
	c-2.724-0.55-6.832-1.386-12.988-2.922c-8.245-2.06-15.319,1.718-19.228,10.138c4.017,1.168,7.973,2.246,11.828,3.224
	c0.621-2.999,0.754-5.079,0.754-5.116c0.08-1.299,1.196-2.292,2.497-2.216c1.3,0.076,2.293,1.188,2.215,2.493
	c-0.008,0.169-0.16,2.555-0.876,5.959c0.763,0.179,1.528,0.358,2.278,0.527c0.772,0.177,1.534,0.346,2.28,0.503
	c0.673-3.317,1.105-6.139,1.117-6.194c0.195-1.288,1.399-2.172,2.685-1.978c1.293,0.192,2.177,1.396,1.984,2.687
	c-0.034,0.227-0.472,3.051-1.164,6.436c1.582,0.31,3.082,0.578,4.505,0.821c0.523-2.862,0.651-5.138,0.651-5.181
	c0.063-1.3,1.173-2.305,2.474-2.239c1.305,0.063,2.31,1.168,2.242,2.466c-0.01,0.194-0.137,2.584-0.696,5.66
	C214.906,448.611,217.652,448.854,219.931,448.959z M98.451,395.921c-1.046-0.191-3.122-0.176-5.196,2.079
	c-3.284,3.562-4.826,8.386-4.59,14.33l0,0c0.066,1.517,0.278,2.364,0.707,3.587c0.767,2.16,2.606,3.588,3.95,3.832
	c1.598,0.293,3.402-0.643,5.086-2.635c3.679-4.365,5.266-12.369,3.461-17.477C101.119,397.509,99.908,396.188,98.451,395.921z"/>
<path id="path8072" fill="#001C58" stroke="#FFFFFF" stroke-miterlimit="10" d="M37.411,490.135
	c5.953,3.927,12.257,7.458,12.257,7.458l-2.207,5.719c-0.823-3.465-4.261-5.345-8.695-8.09l-14.521,20.996
	c-1.772,2.531-5.229,8.074-5.509,10.234c0,0-2.383-1.513-4.558-3.133c-2.273-1.696-4.435-3.268-4.435-3.268
	c2.164-0.525,5.901-6.039,8.155-9.095l14.126-20.155c-5.291-4.091-7.356-4.892-11.095-5.087l5.027-3.77
	C25.961,481.948,30.793,485.772,37.411,490.135"/>
<path id="path8074" fill="#001C58" d="M267.498,561.258l0.438,0.481c-0.41-0.022-0.751,0.189-1.191,0.438l1.274,2.449
	c0.249,0.453,0.601,1.142,0.831,1.192c0,0-0.272,0.154-0.599,0.319c-0.285,0.141-0.555,0.25-0.555,0.25
	c0.004-0.305-0.095-0.547-0.434-1.242l-1.334-2.57c-0.447,0.226-0.938,0.448-1.068,0.812l-0.113-0.711c0,0,0.658-0.318,1.37-0.687
	C266.944,561.563,267.498,561.258,267.498,561.258"/>
<path id="path8076" fill="#001C58" stroke="#FFFFFF" stroke-miterlimit="10" d="M46.809,542.216
	c-10.086-4.813-11.427-15.927-6.46-26.329c4.987-10.444,14.496-16.325,24.535-11.526c10.036,4.792,11.45,15.879,6.458,26.328
	C66.376,541.09,56.894,547.031,46.809,542.216 M63.441,507.375c-6.449-3.078-11.521,4.206-15.344,12.215
	c-3.824,8.008-6.325,16.586,0.125,19.665c6.449,3.075,11.547-4.259,15.372-12.267C67.418,518.979,69.891,510.452,63.441,507.375z"/>
<path id="path8078" fill="#001C58" stroke="#FFFFFF" stroke-miterlimit="10" d="M91.942,515.102
	c6.821,1.927,12.372,3.216,12.372,3.216l-0.591,6.104c-1.828-2.641-2.667-3.286-8.489-4.77l-7.06,23.732
	c-0.565,2.173-3.383,10.393-2.479,11.938c0,0-1.96-0.418-5.125-1.296c-3.558-0.986-5.23-1.653-5.23-1.653
	c1.825-1.2,4.121-8.227,4.872-11.082l7.095-23.893c-6.032-2.012-7.435-2.151-10.316-0.813l3.496-5.206
	C80.485,511.383,84.423,512.972,91.942,515.102"/>
<path id="path8080" fill="#001C58" stroke="#FFFFFF" stroke-miterlimit="10" d="M120.079,521.406
	c6.724,1.016,13.057,1.59,13.057,1.59l0.254,6.126c-2.513-2.234-3.458-2.958-10.096-3.794l-3.844,24.373
	c-0.27,2.232-1.699,10.711-0.594,12.117c0,0-2.328-0.26-5.543-0.708c-3.215-0.457-5.19-0.909-5.19-0.909
	c1.57-1.228,2.875-9.254,3.148-11.489l3.938-24.676c-5.751-1.148-6.933-0.707-9.694,0.895l2.504-5.796
	C108.018,519.134,113.389,520.396,120.079,521.406"/>
<path id="path8082" fill="#001C58" stroke="#FFFFFF" stroke-miterlimit="10" d="M145.006,544.579l-0.506,16.379
	c8.588,0.113,14.468-0.43,17.085-4.156l-1.313,7.442c0,0-4.757,0.096-11.724,0c-7.654-0.11-13.664-0.609-13.664-0.609
	c1.274-1.262,1.591-9.244,1.605-11.486l0.7-16.076c0.031-4.28,0.421-11.198-1.017-12.652c6.223,0.43,5.431,0.422,11.145,0.646
	c7.481,0.297,11.719,0.073,11.719,0.073l0.941,6.146c-2.921-2.438-7.301-2.725-14.449-2.766l-0.395,13.746l10.98,0.063
	c0.989,0.011,1.051,0.562,1.048,1.663c-0.012,1.086-0.027,1.664-1.07,1.653L145.006,544.579"/>
<path id="path8084" fill="#001C58" stroke="#FFFFFF" stroke-miterlimit="10" d="M192.964,549.509
	c0.634,5.96,1.263,10.241,2.621,11.023c-0.34,0.616-1.417,1.425-2.847,1.577c-1.722,0.184-3.024-0.664-4.22-2.046l-19.47-22.334
	l0.732,14.209c0.236,2.232,0.493,10.697,1.883,11.827l-6.486,0.295c1.129-1.395,0.828-9.46,0.589-11.698l-0.916-16.034
	c-0.238-2.235-0.656-11.104-2.052-12.224l5.949-0.216l19.953,23.699l-1.66-13.636c-0.237-2.242-1.452-10.367-2.795-11.497
	c0,0,0.717-0.069,3.14-0.398c2.417-0.328,3.297-0.504,3.297-0.504c-1.121,1.398,0.18,9.734,0.421,11.97L192.964,549.509"/>
<path id="path8086" fill="#001C58" stroke="#FFFFFF" stroke-miterlimit="10" d="M229.544,541.06
	c0.691,2.773,2.063,9.895,4.099,11.288c0,0-3.079,0.893-4.962,1.471c-1.676,0.515-5.366,1.473-5.366,1.473
	c0.87-1.539-1.07-10.086-1.606-12.22l-1.851-7.438l-12.371,3.034l1.406,7.563c0.405,2.444,1.694,10.673,3.362,11.677
	c0,0-1.729,0.357-5.336,1.098c-3.02,0.621-5.123,0.953-5.123,0.953c0.928-1.539-0.314-9.169-0.698-11.603l-2.998-15.989
	c-0.547-2.979-1.924-10.521-3.578-11.402c0,0,1.604-0.304,5.138-0.991c3.534-0.688,5.266-1.155,5.266-1.155
	c-0.869,1.789,0.664,9.023,1.081,11.559l0.952,5.074l12.174-2.968l-1.313-5.185c-0.715-2.747-2.228-9.337-3.918-10.56
	c0,0,1.671-0.483,5.058-1.446c3.389-0.956,4.85-1.503,4.85-1.503c-0.672,1.828,1.212,8.246,1.991,11.555L229.544,541.06"/>
<path id="path8088" fill="#001C58" stroke="#FFFFFF" stroke-miterlimit="10" d="M252.146,531.582l-12.072,4.728l0.419,6.63
	c0.271,2.263,0.278,4.341,0.773,5.513c0.242,0.582,0.66,0.968,1.06,1.176c0,0-1.26,0.457-3.333,1.13c-2.075,0.671-3.215,1-3.215,1
	c0.724-1.248,0.897-2.966,0.835-5.109l-1.063-31.428c-0.101-1.142-0.236-2.212-0.615-3.108c-0.336-0.801-0.902-1.251-1.297-1.587
	c1.375-0.892,3.095-1.867,4.844-2.602c2.772-1.169,3.942-1.122,5.966,1.237l17.71,21.965c3.221,4.192,6.067,7.013,7.92,7.575
	c0,0-1.811,0.835-5.215,2.352c-3.404,1.512-5.656,2.37-5.656,2.37c0.201-0.711,0.226-1.465-0.219-2.597
	c-0.474-1.224-2.216-3.293-3.34-4.863L252.146,531.582 M249.955,528.979l-10.727-14.863l0.756,18.669L249.955,528.979z"/>
<path id="path8090" fill="#001C58" stroke="#FFFFFF" stroke-miterlimit="10" d="M302.724,520.188
	c-2.428,1.637-4.246,2.89-4.246,2.89c-0.178-2.39-4.791-8.297-6.146-10.09l-10.403-13.57l8.368,26.754
	c-0.325,0.531-0.918,1.274-1.471,1.691c-1.65,1.255-3.257,1.008-4.725-0.147l-19.812-16.423l6.935,12.771
	c1.695,3.233,4.965,9.965,7.166,10.629c0,0-1.368,0.729-3.101,1.568c-1.719,0.832-2.77,1.321-2.77,1.321
	c0.384-1.879-2.835-7.465-4.709-11.04l-7.717-14.513c-2.341-4.366-4.923-8.813-7.14-9.698c1.715-0.832,2.233-1.086,4.688-2.298
	c2.045-1.008,3.849-1.996,3.849-1.996l22.304,18.974l-8.772-26.862c0,0,1.176-0.799,3.406-2.286c2.224-1.489,4.229-2.97,4.229-2.97
	c0.17,2.402,4.814,8.528,6.506,10.721l9.605,12.358c2.037,2.543,5.847,8.204,8.559,8.854
	C307.328,516.824,305.156,518.543,302.724,520.188"/>
<path id="path8092" fill="#001C58" d="M272.458,560.056l1.096,1.403c0.319,0.391,0.645,0.874,0.987,1.019
	c0,0-0.285,0.204-0.563,0.393c-0.277,0.183-0.482,0.328-0.482,0.328c-0.076-0.378-0.541-0.965-0.692-1.169l-1.164-1.538l0.953,3.036
	c-0.039,0.062-0.105,0.145-0.171,0.189c-0.249,0.191-0.433,0.082-0.6-0.051l-2.295-1.832l0.896,1.452
	c0.214,0.376,0.599,1.067,0.902,1.208c0,0-0.169,0.101-0.375,0.222c-0.18,0.106-0.355,0.196-0.355,0.196
	c0.042-0.367-0.422-1.09-0.561-1.34l-0.982-1.648c-0.227-0.374-0.581-0.922-0.899-1.015c0,0,0.309-0.161,0.611-0.329
	c0.188-0.104,0.38-0.229,0.494-0.29l2.538,2.112l-0.977-3.012c0.094-0.043,0.241-0.134,0.469-0.273
	c0.293-0.179,0.535-0.343,0.535-0.343C271.822,559.142,272.248,559.773,272.458,560.056"/>
<path id="path8094" fill="#001C58" stroke="#FFFFFF" stroke-miterlimit="10" d="M74.461,569.035
	c2.067,0.759,4.734,1.684,4.734,1.684c-2.246,1.629-4.309,8.104-5.648,11.621l-5.18,14.372c-1.386,3.901-3.75,9.556-2.958,11.573
	c0,0-2.85-0.984-5.156-1.803c-1.973-0.704-3.093-1.079-5.183-1.974c2.539-0.673,4.933-9.118,5.711-11.242l2.371-6.708l-12.415-5.176
	l-3.59,7.672c-1.169,2.665-3.965,8.699-3.3,10.59c0,0-2.193-0.895-5.403-2.37c-3.781-1.741-4.604-2.202-4.604-2.202
	c2.664-1.311,4.242-5.61,6.271-9.955l6.492-14.378c2.193-4.922,4.175-9.188,4.025-11.993c0,0,1.159,0.69,4.353,2.126
	c2.544,1.144,3.843,1.716,5.271,2.288c-2.021,0.804-4.833,8.059-6.316,11.313l-1.902,4.063l12.128,4.996l1.86-4.605
	c0.871-2.353,3.879-9.383,3.229-11.79C69.25,567.138,71.739,568.041,74.461,569.035"/>
<path id="path8096" fill="#001C58" stroke="#FFFFFF" stroke-miterlimit="10" d="M88.485,615.678
	c-10.813-2.844-14.25-13.313-11.383-24.22c2.882-10.965,11.069-18.313,21.829-15.479c10.754,2.826,14.265,13.253,11.387,24.218
	C107.447,611.107,99.299,618.521,88.485,615.678 M98.1,579.138c-6.911-1.816-10.481,6.104-12.691,14.505
	c-2.216,8.395-3.013,17.109,3.895,18.931c6.91,1.813,10.5-6.165,12.708-14.562C104.225,589.614,105.009,580.958,98.1,579.138z"/>
<path id="path8098" fill="#001C58" stroke="#FFFFFF" stroke-miterlimit="10" d="M117.771,619.538c0,0,0.688-0.744,1.157-2.259
	c0.66-2.129,1.086-6.223,1.595-9.414l3.026-23.407c-6.448-0.809-8.087-0.345-10.919,1.332l2.657-5.993
	c2.008,0.445,6.458,0.926,11.871,1.609c3.622,0.453,14.411,1.427,14.411,1.427l0.367,5.995c-2.379-2.753-4.849-3.003-10.224-3.425
	l-3.015,23.484c-0.27,2.188-1.47,9.773-0.28,12.02c-1.297-0.147-3.444-0.392-5.247-0.57
	C121.303,620.146,118.845,619.721,117.771,619.538"/>
<path id="path8100" fill="#001C58" stroke="#FFFFFF" stroke-miterlimit="10" d="M169.164,611.408
	c0.074,7.047-5.657,12.147-14.473,12.019c-6.856-0.1-10.441-2.921-11.813-4.068l1.428-6.688c2.128,4.262,5.655,7.359,9.628,7.422
	c4.148,0.059,7.414-2.384,7.48-6.496c0.043-2.988-1.602-4.794-8.522-8.396c-6.634-3.425-9.103-6.843-9.103-11.938
	c0-6.938,6.035-10.462,13.125-10.464c5.214-0.005,8.852,1.594,11.136,2.814l-1.473,6.128c-3.163-4.226-6.027-5.789-9.48-5.837
	c-3.402-0.057-5.813,1.8-5.789,5.296c0.022,3.811,4.215,5.871,9.867,9.028C167.675,603.864,169.125,607.51,169.164,611.408"/>
<path id="path8102" fill="#001C58" stroke="#FFFFFF" stroke-miterlimit="10" d="M201.265,589.822c0.252,0.827,0.402,1.831,0.48,2.62
	c0.067,0.728,0.104,1.69,0.017,2.603c-0.188,2.284-1.271,4.938-3.063,6.804c-2.737,2.859-6.306,4.281-11.036,4.502
	c-1.824,0.112-2.261-0.444-2.383-1.762l-0.011-0.286c0,0-0.039-0.509,0.358-0.536l0.458-0.045c1.397-0.174,3.473-0.61,5.136-2.634
	c1.596-2.082,2.141-4.848,1.862-7.825c-0.296-3.093-1.225-5.319-3.304-6.921c-1.805-1.387-3.926-1.838-6.109-1.665
	c0,0-0.876,0.074-1.848,0.229c0,0-0.569,0.051-0.521,0.607l2.344,24.277c0.203,2.137,0.785,9.66,2.539,11.212
	c0,0-1.996,0.211-5.755,0.521c-2.866,0.233-5.102,0.292-5.102,0.292c0.754-1.863,0.629-4.618,0.441-7.825l-1.816-19.145
	c-0.207-2.19-0.577-9.701-2.363-11.556c0,0,4.806-0.711,13.695-1.551c4.649-0.44,8.457,0.151,11.742,2.375
	C199.179,585.56,200.656,587.669,201.265,589.822"/>
<path id="path8104" fill="#001C58" stroke="#FFFFFF" stroke-miterlimit="10" d="M237.641,597.65
	c1.902,8.414-2.046,15.577-10.803,17.767c-6.151,1.538-15.012-0.719-17.483-11.512l-3.012-12.743
	c-0.794-3.567-2.091-9.883-4.159-11.528c0,0,2.313-0.327,5.935-1.003c3.621-0.676,5.303-1.079,5.303-1.079
	c-0.95,1.499,0.049,7.403,0.994,11.74l3.845,16.198c0.686,2.969,1.654,5.001,3.319,6.199c1.233,0.892,2.881,1.135,4.599,0.821
	c1.562-0.291,3.188-1.173,4.038-2.755c0.902-1.66,0.898-4.062,0.203-7.026l-4.314-16.198c-1.182-4.459-2.54-10.04-4.001-10.975
	c0,0,1.758-0.477,5.09-1.43c2.522-0.719,4.022-1.156,5.113-1.54c-0.996,2.438,1.375,9.916,1.877,12.057L237.641,597.65"/>
<path id="path8106" fill="#001C58" stroke="#FFFFFF" stroke-miterlimit="10" d="M276.955,594.33
	c0.849,0.325,1.762,0.548,2.529,0.222c-0.088,0.528-0.584,1.583-1.414,2.436c-3.541,3.628-6.863,3.004-7.989,2.559
	c-6.104-2.328-16.313-11.375-16.732-12.363c0,0-0.105-0.258,0.159-0.366l0.369-0.164c1.596-0.663,3.404-2.466,4.117-4.171
	c1.142-2.501,0.949-4.747-0.21-7.496c-1.2-2.859-3.3-4.661-4.945-5.146c-2.434-0.719-4.249-0.147-5.355,0.293
	c0,0-1.46,0.574-1.896,1.013c0,0-0.293,0.241,0.048,1.237l7.713,22.027c1.172,3.24,3.207,9.561,5.051,10.626
	c0,0-2.084,0.819-5.243,1.961c-3.16,1.141-5.082,1.672-5.082,1.672c0.644-2.46-1.79-9.147-2.403-11.024l-4.986-14.873
	c-1.247-3.587-3.522-10.013-5.376-11.04c0,0,3.641-1.021,11.824-4.457c4.354-1.828,8.569-2.61,12.374-1.496
	c2.31,0.679,3.869,1.838,5.146,3.688c0.488,0.716,0.847,1.419,1.157,2.147c0.282,0.677,0.479,1.454,0.607,2.176
	c0.403,2.248,0.065,4.638-1.234,6.892c0,0-1.172,2.271-3.676,4.052C261.505,584.728,269.544,591.538,276.955,594.33"/>
</svg>
