<?xml version="1.0" encoding="UTF-8"?>
<!DOCTYPE svg PUBLIC "-//W3C//DTD SVG 1.1//EN" "http://www.w3.org/Graphics/SVG/1.1/DTD/svg11.dtd">
<!-- Creator: CorelDRAW X7 -->
<svg xmlns="http://www.w3.org/2000/svg" xml:space="preserve" width="1920px" height="1080px" version="1.1" style="shape-rendering:geometricPrecision; text-rendering:geometricPrecision; image-rendering:optimizeQuality; fill-rule:evenodd; clip-rule:evenodd"
viewBox="0 0 1920 1080"
 xmlns:xlink="http://www.w3.org/1999/xlink">
 <defs>
  <style type="text/css">
   <![CDATA[
    .fil0 {fill:#01FF83}
    .fil1 {fill:#36003C}
   ]]>
  </style>
 </defs>
 <g id="Layer_x0020_1">
  <metadata id="CorelCorpID_0Corel-Layer"/>
  <g id="_2297779822896">
   <polygon class="fil0" points="-495,-206 2055,-206 2055,1213 -495,1213 "/>
   <g>
    <path class="fil1" d="M-221 -206c10,22 36,66 41,75 2,4 48,79 48,82l-33 11c1,6 53,90 61,102 20,33 42,66 65,98 22,31 44,65 68,95 16,19 59,78 72,91 14,-4 43,-19 54,-19 4,6 16,17 21,23 27,30 79,85 106,111l39 37c11,12 37,36 50,47l68 61c7,6 67,56 69,60 -15,8 -36,16 -52,23 -5,2 -14,4 -18,9 2,3 5,5 9,8 2,2 5,5 8,7 37,34 74,65 115,98 54,45 113,91 172,132 24,17 47,34 72,50 16,10 20,17 28,13l50 -26c7,-4 13,-7 20,-11 7,-4 13,-10 21,-5 13,8 25,15 38,22 33,19 65,38 97,55l60 32c88,44 178,88 269,126 13,5 9,5 21,-2 12,-8 24,-16 37,-24 17,-11 168,-112 179,-123 -3,-3 -63,-22 -72,-26 -72,-26 -143,-52 -213,-82 -23,-9 -46,-19 -69,-29 -45,-20 -90,-40 -134,-62 -3,-1 -15,-7 -17,-8 -3,0 -12,6 -15,8l-60 36c-19,11 -18,15 -33,6 -103,-57 -205,-121 -302,-187 -20,-13 -38,-27 -57,-40 -9,-6 -53,-37 -56,-41 2,-4 34,-19 38,-20l29 -15c2,-1 6,-3 8,-5 -7,-7 -19,-14 -27,-19 -27,-19 -53,-38 -80,-57 -26,-19 -52,-39 -78,-59 -67,-51 -135,-109 -197,-166 -14,-12 -10,-15 -28,-7 -10,4 -21,9 -32,13 -15,6 -13,6 -21,-2 -48,-47 -91,-98 -136,-148l-42 -50c-13,-16 -26,-33 -40,-51 -9,-11 -75,-97 -77,-105l38 -12c-1,-4 -48,-67 -51,-70 -9,-12 -16,-23 -25,-36 -5,-7 -10,-16 -16,-24l-90 0z"/>
    <path class="fil1" d="M163 -165c-10,3 -20,10 -30,13 1,7 31,43 35,48 6,8 12,15 18,23 66,80 122,142 196,217l64 61c4,0 48,-26 51,-25l46 38c57,47 135,107 194,148 35,23 66,46 102,69 5,3 49,30 52,34 -2,3 1,0 -3,3 -11,8 -57,33 -62,38 4,4 61,42 70,47 13,8 24,16 36,23 79,51 182,111 265,153 12,6 25,12 39,20 31,16 25,13 40,3 9,-5 69,-48 70,-48 2,0 75,30 84,34 124,51 265,99 399,136 29,8 21,10 40,-6 45,-37 117,-100 158,-140 3,-3 21,-18 28,-26l0 -4 -75 -16c-67,-12 -159,-37 -227,-54 -59,-16 -155,-44 -215,-65 -12,-5 -8,-3 -29,13l-26 21c-9,6 -17,14 -26,20 -17,12 -9,14 -30,6 -87,-35 -177,-73 -260,-115 -53,-26 -101,-50 -155,-80 -10,-5 -21,-10 -30,-16 4,-5 28,-20 35,-24 6,-5 33,-21 35,-25 -2,-4 1,-1 -3,-3l-12 -6c-77,-39 -161,-86 -234,-130 -47,-29 -131,-82 -176,-115 -11,-7 -7,-6 -32,8l-31 18c-4,0 -83,-67 -92,-74l-45 -39c-39,-35 -114,-101 -150,-140 -9,-10 -58,-59 -61,-66l36 -18c0,0 0,0 0,0l-120 0c4,6 10,13 11,14 4,5 19,22 20,27z"/>
    <path class="fil1" d="M-495 -130l63 151 -34 6c0,7 42,96 48,109 46,98 105,202 163,294 3,4 6,8 8,13 10,0 47,-12 56,-12l74 99c18,22 40,52 57,72l61 71c13,15 27,31 40,46l85 90c-5,3 -64,19 -75,22 2,5 25,29 29,34 11,12 21,22 31,33 21,23 42,43 63,65 21,21 42,41 64,62 11,11 22,21 33,31 22,21 61,56 84,76 20,16 40,35 60,51 5,4 7,2 12,0 8,-3 15,-6 23,-9l58 -22c6,-2 7,-3 12,1 22,17 50,37 74,54 1,1 5,3 9,6l463 0c-6,-3 -12,-6 -15,-7 -9,-5 -19,-10 -28,-14 -73,-36 -151,-81 -221,-122 -8,-5 -17,-11 -26,-16 -21,-12 -16,-13 -28,-7 -20,10 -39,18 -59,27 -10,5 -20,9 -30,14 -7,3 -13,-5 -25,-13 -18,-12 -33,-23 -51,-36 -50,-36 -97,-72 -145,-110 -31,-25 -63,-52 -94,-78 -5,-4 -87,-76 -90,-80 4,-5 72,-25 82,-31l-49 -42c-16,-14 -32,-28 -47,-42 -16,-15 -31,-29 -47,-43 -20,-19 -78,-73 -92,-89l-22 -23c-7,-7 -14,-14 -22,-23 -19,-20 -68,-72 -85,-93 -7,0 -58,18 -62,16 -2,0 -32,-40 -37,-46 -12,-16 -23,-30 -35,-47 -11,-16 -22,-31 -34,-47l-66 -98c-22,-35 -59,-94 -77,-128 -4,-6 -14,-22 -15,-26 7,-2 36,-7 40,-9 -1,-5 -5,-10 -7,-14l-54 -93c-10,-18 -19,-35 -29,-55l-22 -44 -69 0 0 76z"/>
    <path class="fil1" d="M2055 226c-18,-3 -56,-10 -69,-12 -14,-2 -69,-12 -76,-13 -6,8 -40,42 -48,51 -8,9 -16,17 -24,25 -6,6 -6,5 -18,2 -56,-14 -121,-32 -176,-48 -50,-15 -100,-31 -150,-48 -24,-8 -49,-17 -73,-26 -13,-4 -23,-9 -35,-13 -12,-5 -25,-10 -36,-14 1,-5 11,-12 15,-15l48 -44 -61 -22c-58,-21 -122,-46 -178,-70 -59,-25 -114,-51 -170,-78 -10,-5 -18,-9 -28,-14 -34,-17 -24,-17 -40,-4 -6,5 -36,28 -38,29 -5,-2 -15,-8 -19,-11 -20,-11 -38,-23 -57,-34 -25,-15 -82,-52 -110,-72l-1 -1 -158 0c8,7 17,14 19,16 34,27 60,50 96,77l101 74c4,3 32,23 34,24 3,-1 19,-13 23,-16 29,-21 20,-19 37,-9 4,3 8,5 13,8l158 89c27,14 54,29 82,42l56 27c30,14 87,41 115,51 -1,4 -10,10 -14,14l-42 34c-3,2 -2,1 -3,4l27 13c10,5 19,9 29,13l56 25c53,25 180,73 236,92l93 31c35,12 30,13 42,1l65 -61c2,-1 62,14 70,16 62,15 116,25 179,37l30 5 0 -175z"/>
    <path class="fil1" d="M-495 613c1,2 1,4 3,7 2,3 4,6 6,10l111 173 72 100c2,3 5,7 7,9 -8,4 -72,11 -77,14 1,5 48,71 53,77 18,24 37,50 56,74 18,24 37,48 57,73 10,12 20,24 29,35 5,6 10,12 15,18 2,2 6,6 9,10l295 0c-5,-5 -11,-10 -13,-12 -58,-53 -129,-126 -180,-182l-47 -52c-8,-8 -63,-71 -65,-77l83 -18c0,-6 -16,-20 -20,-25l-42 -47c-7,-8 -13,-16 -20,-24 -7,-8 -13,-15 -21,-24 -7,-8 -13,-16 -20,-24l-59 -74c-41,-54 -75,-100 -113,-156 -6,-8 -12,-18 -18,-26 -15,1 -51,9 -64,8l-37 -63 0 196z"/>
    <path class="fil1" d="M2055 -106c-40,-4 -170,-27 -202,-33 -34,-6 -67,-13 -100,-20 -13,-3 -94,-21 -98,-23 3,-5 13,-15 20,-24l-323 0 38 14c59,20 114,38 174,55 11,3 25,7 36,10 -1,5 -9,12 -12,15l-27 29c-4,5 -11,11 -14,15 5,4 102,32 117,36 118,35 223,56 343,79 10,2 25,5 34,6 4,-4 9,-11 14,-16l0 -143z"/>
    <path class="fil1" d="M-412 1213l-74 -101c-3,-3 -6,-10 -9,-13l0 114 83 0z"/>
   </g>
  </g>
 </g>
</svg>
