<?xml version="1.0" encoding="UTF-8" standalone="no"?>
<svg height="339.27902" viewBox="0 0 290 339.27902" width="290" xmlns="http://www.w3.org/2000/svg" xmlns:xlink="http://www.w3.org/1999/xlink">
   <linearGradient id="a">
      <stop offset="0" stop-color="#241d10"/>
      <stop offset="1" stop-color="#fff30d"/>
   </linearGradient>
   <linearGradient id="b" gradientTransform="matrix(46.66381 -85.50977 85.50977 46.66381 305.879 148.6874)" gradientUnits="userSpaceOnUse" spreadMethod="pad" x1="0" x2="1" xlink:href="#a" y1="0" y2="0"/>
   <linearGradient id="c" gradientTransform="matrix(-48.252062 -66.575362 -66.575362 48.252062 452.55425 695.32225)" gradientUnits="userSpaceOnUse" spreadMethod="pad" x1="0" x2="1" xlink:href="#a" y1="0" y2="0"/>
   <g transform="matrix(.60585538 0 0 -.60585538 -.000015 339.2790275)">
      <g transform="matrix(6.3881343 0 0 6.3881343 -1918.6362 -295.92657)">
         <path d="m375.42969 576.61133v44.24219 11.89257c0 12.11663 4.90665 23.79735 14.1914 33.77735 8.55163 9.2015 20.18888 16.15622 32.76563 19.58984l.28711.0762.29687-.0391c3.43025-.49087 13.76586-4.00266 23.78711-11.70703 8.95625-6.88838 20.09722-19.14517 22.32422-38.41992l.004-15.0586.006-44.35351z" fill="url(#c)" transform="matrix(.8 0 0 -.8 0 595.276)"/>
         <path d="m302.0176 131.6874v-42.4644c0-9.3007 3.7651-18.2249 10.883-25.7965 6.4458-6.8607 15.1489-12.0449 24.5104-14.6011l.7026-.1606.7857.0776.036.0055c2.7581.3929 6.3323 1.9365 7.3614 2.4011 3.8093 1.7152 7.4112 3.8897 10.6949 6.4597 9.5191 7.4525 15.2539 17.492 16.5873 29.0277l.0221 45.051" fill="url(#b)"/>
         <path d="m305.0394 128.7062h65.536v-41.7311c-2.9628-25.6502-28.1453-34.6659-32.4055-35.2745-17.5999 4.8052-33.1305 19.6054-33.1305 37.5234" fill="#97d9f6" fill-rule="evenodd"/>
      </g>
      <g transform="matrix(6.3881343 0 0 6.3881343 -1918.6362 -295.92657)">
         <path d="m337.287 127.7154c0 0 .0719-.4814 0-.8439-.0719-.365-.1438-.4841-.1438-.4841 0 0 .5283.2656.7939.3376.2656.0719.675.1465.8189.1936.1438.047-.841-.4121-1.1785-.6031-.3375-.1937-.6999-.4121-.8438-.6279-.1438-.2185-.675-.9184-.675-1.1592 0-.2434.2905-.5091.2407-.8685-.047-.3625-.1687-.5589-.2407-.6308-.0719-.072-.0968.0498-.1189.3623-.0249.3154-.0719.4345-.0719.4345 0 0-.1466-.1191-.2186-.2878-.0719-.1688-.0968-.3375-.3126-.6058-.2185-.2656-.4094-.4094-.4094-.4094 0 0 .0719 1.137.3126 1.4245.2407.2906.3845.5312.3845.5312 0 0 .2656.653.2435 1.0153-.0249.3623.1189 1.0872.3845 1.4247.2655.3375.8188.6999 1.0346.7968" fill="#fff30d" fill-rule="evenodd"/>
         <path d="m337.287 127.7154l-.0553-.008c0 0 .0304-.2102.0304-.4564 0-.1218-.005-.2545-.0304-.3679-.036-.1798-.0692-.2989-.0968-.3708l-.0305-.0774-.008-.0194-.0995-.1632.1715.0857c0 0 .5311.2656.7829.3349.2628.0719.6696.1438.8217.1936l.005.003-.008.036v-.0387l.008.003-.008.036v-.0387.0552l-.0221-.0498.0221-.005v.0552l-.0221-.0498.0221.0498h-.0551l.033-.0498.0221.0498h-.0551.0523l-.0385.0389-.0138-.0389h.0523l-.0385.0389.0221-.0194-.0167.0221-.005-.003.0221-.0194-.0167.0221c-.0637-.0416-.8825-.426-1.1841-.6003-.3402-.1936-.7026-.4094-.8631-.6446-.0719-.1051-.2407-.3376-.3928-.5726-.1494-.2352-.285-.4648-.2905-.617.008-.2627.2518-.4952.2462-.7856l-.005-.0775c-.0443-.3512-.1632-.5366-.2241-.5947l-.008-.008.0111-.0167v.0194l-.0111-.003.0111-.0167v.0194-.0304l.0193.0249-.0193.005v-.0304l.0193.0249v-.003.003-.003.003c-.0138.0194-.0332.1438-.047.3375-.0249.3181-.0747.4454-.0774.451l-.0277.0719-.0581-.0498c-.003-.003-.1549-.1273-.2352-.3098-.0746-.1799-.094-.332-.3043-.592h.003-.003c-.1051-.13-.2074-.2297-.2794-.2989-.0746-.0692-.1189-.1023-.1189-.1023l.0332-.0442.0553-.003c0 0 .0194.2823.0664.5975.0443.3182.13.6751.2351.7941.2435.2931.3873.5393.3873.5393l.003.003.003.006c0 .003.2462.5973.2462.9847v.0527l-.003.0802c-.003.3679.1411 1.0152.3762 1.3084v-.003.003c.2518.3237.8078.6889 1.0125.7802l-.0221.0498-.0553-.008.0553.008-.0221.0497c-.2268-.1024-.7801-.462-1.0568-.8132v.003c-.26-.3348-.3983-.982-.4011-1.3776l.003-.0858.003-.0471c0-.1716-.0581-.4122-.1189-.603-.0609-.1936-.1218-.3404-.1218-.3404l.0526-.0221-.047.0304c0-.003-.1411-.2379-.379-.5256-.1383-.1687-.2103-.5228-.26-.8492-.0499-.3209-.0665-.6058-.0665-.6086l-.008-.1189.0969.0719c.003.003.1992.1493.4205.4204.2213.2712.2517.4564.3181.617.0332.0774.0858.1439.1273.1935l.0747.0748-.0332.0416-.0526-.0195c0 0 .008-.025.0249-.0913.0138-.0664.0304-.1716.0443-.3264.008-.1273.0193-.2241.0332-.2933l.0276-.0885.0775-.0525.0747.036c.0857.0858.2074.2877.2572.661l.006.0914c-.003.3458-.2545.6002-.2462.7856-.003.0885.1245.3293.2738.5589.1494.2296.3182.4591.3901.5699.1328.199.4896.4177.8272.6085.1521.0886.4509.2379.7109.3652.13.0637.249.1217.3375.166l.1051.0525.0305.0167.011.008.008.008.0164.0386-.0332.0527-.0221.005-.0304-.008c-.1356-.0442-.5478-.1188-.8161-.1908-.2766-.0774-.805-.3431-.805-.3431l.0249-.0498.047-.0303c.005.008.0774.1355.1521.5035.0249.1244.0332.2627.0332.39 0 .2544-.0332.4702-.0332.4731l-.011.0719-.0664-.0305" fill="#0c2950"/>
         <path d="m342.0572 117.6849c.1438.0248.3126.0469.3126.0469l-.1688.2435c0 0 .5533-.2904.628-.3154.0717-.0249.1437.0719.1437.0719 0 0 .097-.0719.2159-.0968.1217-.0221.2435.1466.3624.2905.119.1465.2656.2904.0249.3375-.2434.0498-.3624.1217-.556.1937-.1909.0719-.2407.1713-.2407.1713l.2905.0472c0 0-.747.5311-.9406.8437-.1909.3154-.6501.8466-1.1564 1.2311-.5035.3873-1.0097.7994-1.444.8962-.4344.094-.6972.1688-.6972.1688 0 0 .0222.9405.119 1.303.0968.3624.4592 1.2311.4592 1.4744 0 .2408.047.6031-.2905.9407-.3375.3375-.6279.4592-.9875.4592-.3597 0-.7829-.249-1.0458-.3708-.2655-.1188-.4232-.2794-.7137-.4233-.2877-.1465-.4067-.1881-.4814-.26-.0719-.0719-.0359-.0994-.0359-.0994l.1051-.0306c0 0 .3043.0969.5699.1439.2656.0498.4924-.13.805-.3237.3126-.1937.4371-.3512.4371-.7137 0-.3624-.3375-1.0623-.5561-1.4246-.2157-.3625-.5781-.7249-.65-1.1093-.072-.3874-.1937-.7747-.1439-1.1842.047-.4121.3126-1.0152.6252-1.3776 0 0 .3292-.545.5754-.6806.249-.1354.8355-.0912.9932-.0912.1576 0 .2462-.1798.675-.4039.4951-.3348 1.4496-.6058 1.5796-.4537.1798.0691.2683.2047.5615.2932.2933.0913.6253.2021.6253.2021" fill="#fff200" fill-rule="evenodd"/>
         <path d="m342.0572 117.6849l.008-.0554c.1436.0248.3126.0469.3126.0469l.0885.0139-.2186.3154-.047-.0304-.0249-.0498c.003-.003.5478-.2877.6335-.3181l.0415-.008c.1079.008.1605.0967.166.0994l-.0444.0333-.0331-.0442c.003-.003.1024-.0775.238-.1052l.0359-.005c.1632.011.2656.1825.3818.3125.0689.0913.1577.1687.166.2766 0 .0831-.0747.1356-.1743.1521-.2352.0471-.3486.1164-.5478.191-.0885.0332-.1438.0719-.1743.0996l-.0304.036-.005.005-.0498-.0223.0111-.0552.2877.047.1328.0221-.1107.0775c0 0-.1826.1329-.3928.3043-.2075.1688-.4427.3817-.5312.5256-.1964.321-.6556.8549-1.1702 1.2449v.003l.003-.003c-.5063.3873-1.0125.8022-1.4662.9047-.4343.0967-.6971.1687-.6971.1687l-.0139-.0526.0554-.003c-.003 0 .0248.9433.1189 1.292.0443.1769.1605.4841.2628.7774.1024.296.1937.567.1964.7108 0 .0498 0 .1108 0 .1744.003.2295-.0304.5284-.307.8049-.3403.3458-.6529.4787-1.0263.4758-.3846 0-.8078-.2571-1.0679-.3762h-.003.003c-.2766-.1244-.4343-.2848-.7165-.4232-.2849-.1466-.4039-.1826-.4952-.271l-.0608-.1162.0304-.0665.008-.005.1162-.0333.0166-.006.0138.006c.003 0 .3043.0967.5644.1411l.0774.008c.1992.003.4067-.1494.6861-.3237.307-.1963.4067-.3181.4094-.6667.003-.3347-.3292-1.0401-.545-1.3971-.2102-.3541-.5781-.7164-.6584-1.1286-.0581-.3209-.1549-.6502-.1549-.9987 0-.0663.003-.1327.0111-.2019v.003-.003c.0498-.426.3181-1.0319.639-1.4053l.0415.0359-.047-.0277c.005-.003.3237-.545.5975-.6999.1688-.0914.4426-.1051.6723-.1051.1521 0 .2849.005.3458.005.1078.0139.2157-.166.6501-.3983l.0249.0498-.0305-.0471c.4094-.2766 1.1011-.5035 1.4469-.5062.0857.003.1547.011.2047.0637l-.0415.0359.0193-.0526c.1992.0803.2794.2075.5588.2932.2933.0914.6253.202.6253.202l-.0166.0527.008-.0554-.008.0554-.0166.0525c-.003 0-.332-.1108-.6253-.202v.003c-.307-.0967-.4038-.2379-.5643-.296l-.0138-.005-.0113-.011c0-.006-.044-.025-.1187-.025-.3043 0-1.0015.2269-1.386.487l-.003.003-.003.003c-.4204.2158-.4925.3983-.6998.4122-.0664 0-.1965-.008-.3458-.008-.2214 0-.4925.0193-.6197.0912-.1079.0581-.2518.2241-.3624.3764-.1107.1492-.1909.2821-.1909.2848l-.003.003-.003.003c-.3071.3513-.5699.9543-.6142 1.3472l-.0111.1881c0 .3293.0941.6501.155.9793.0636.3597.4205.722.6445 1.0928.2186.3706.5589 1.0622.5616 1.4523.003.3762-.1438.5698-.4647.7608-.2739.1687-.4869.3375-.7442.3402l-.0968-.008c-.2711-.0498-.5754-.1465-.5782-.1465l.0166-.0527.0166.0527-.1051.0304-.0166-.0525.0359.0442-.0165-.0221h.0276l-.0111.0221-.0165-.0221h.0276l.003.005.0276.0333c.0526.058.1743.1023.4676.249h-.003c.2988.1466.4565.307.711.4231.2683.1247.686.3653 1.0236.3653.3485-.003.6168-.1106.9488-.4426.249-.2518.2739-.5064.2739-.7276l-.003-.1744c.003-.0994-.0857-.3844-.1881-.6749-.1023-.2906-.2158-.5975-.2656-.7856-.0996-.3764-.1217-1.3142-.1245-1.3169v-.0442l.0415-.0111c0 0 .2656-.072.7027-.1687.4122-.0914.9184-.4952 1.4219-.8853.5007-.3791.9545-.9102 1.1426-1.2145v-.003.003c.2102-.3347.9516-.8576.9544-.8632l.0332.0472-.0111.0553-.2877-.0498-.0747-.0111.0332-.0664c.005-.0111.0664-.1217.2711-.1992.1881-.0691.3154-.1439.5643-.1937.0886-.0221.0858-.0387.0858-.0442.005-.0221-.0664-.1189-.1411-.2047-.1106-.1411-.2351-.2821-.296-.2711h-.0138l-.1356.0527-.0553.033-.047.0333-.0332-.0442-.0279-.0277-.0496-.025h-.005l-.0166-.0525.0166.0525c-.0249.008-.1881.0886-.332.1633-.1466.0746-.2849.1465-.2849.1494l-.072-.0831.1688-.2406.0443.0304-.008.0554c0 0-.1688-.0221-.3126-.0471h-.006l-.003-.003" fill="#0c2950"/>
         <path d="m336.9315 125.6091c-.2932-.1385-.3734-.2104-.6916-.3764-.3181-.166-.5173-.3818-.6058-.4564-.1051-.0885-.1107-.1689-.1107-.1689l.1024.0472c0 0 .5062.1161.7967.1715.2905.0554.5284-.0165.8742-.2352 0 0-.2739.4758-.3209.722-.047.249-.0443.2962-.0443.2962" fill="#630530" fill-rule="evenodd"/>
         <path d="m338.1192 121.1697c0-.003.0221-.8604.2822-1.339.0359-.0665.0802-.1328.13-.2019.0498-.0692.1079-.1356.166-.2019.307-.3458.7137-.6503.9599-.7276.0747-.0221.1355-.0415.1881-.0554l-.0581.0719.1301.1218c0 0 .2268-.2075.4509-.2462l.0387-.008-.1079.1632-.003.003.1521.0968.003-.003.003-.008.0194-.0275c.0581-.0858.2186-.3044.3043-.2518.1604.0995.1936.1714.1936.1714l.155-.0912c0 0-.0526-.1079-.2545-.2323l-.1079-.0333.0276-.0415-.2075.0388-.2489.0443-.0802.0221.0193-.0221h-.1936c0 0-.1024 0-.4786.1161-.2711.0858-.711.4122-1.0374.7774-.0637.0719-.1245.1466-.1771.2185-.0553.0746-.1023.1466-.1438.2214v.003c-.2794.5146-.3043 1.4164-.3043 1.4191" fill="#0c2950"/>
         <path d="m337.7141 125.5753c0 0 .1136.0912.249.0912.1328 0 .3376-.0912.3376-.0912 0 0-.1134-.1135-.2489-.1356-.1358-.0221-.3377.1356-.3377.1356" fill="#0c2950" fill-rule="evenodd"/>
         <path d="m337.6605 118.1745c0 0 .2988-.2573.4094-.4621.1079-.2074.3154-.5366.3375-.6197.0249-.0858.036-.1244-.0359-.1244-.072.003-.3265.025-.6668.0746-.3402.0498-.8354.3652-.9322.4483-.0968.0858-.415.2683-.6695.2931-.2545.025-.4233.025-.4233.025 0 0 .6308-.6806.7885-.816.1577-.1329.5588-.4871.9101-.6447.3513-.1577.7137-.498 1.1619-.5589.4509-.0608.4981-.0968.6695.0858.1687.1828.3375.4622.3375.4622 0 0 .0636-.0611.0498-.3654-.0109-.3041-.2186-.8022-.2684-.9376-.047-.133-.3622-.8384-.4232-.985-.0607-.1439-.1577-.2435-.1577-.2435 0 0 .0498-.0828.2296-.0828h.4371c.2683 0 .3651.0607.3651.0607 0 0-.0496.2186.072.5728.1217.3512.7635 1.1645.899 1.2503.1301.0857.4952.3762.4952.426 0 .047-.0719.2434-.1079.4371-.0385.1964-.1355.6695-.1355.6695 0 0 .0691.0581-.332.0802-.4011.0248-.5035.0885-1.0208.3072-.8382.5754-.9959.5808-.9959.5808 0 0-.3319-.0192-.4647-.008-.1356.0112-.5284.0748-.5284.0748" fill="#630530" fill-rule="evenodd"/>
         <path d="m336.6179 117.1317c.1854-.5838-.3679-1.2837-1.2421-1.5603-.8714-.2794-1.7263-.0305-1.9116.556-.1854.5866.3707 1.2836 1.2421 1.5603.8714.2793 1.7263.0304 1.9116-.556" fill="#fff30d" fill-rule="evenodd"/>
         <path d="m336.6179 117.1317l-.0526-.0167c.0222-.0719.0332-.1439.0332-.2158.003-.4896-.4952-1.0401-1.2393-1.2753-.2352-.0747-.4703-.1106-.6889-.1106-.5754 0-1.0318.2407-1.1535.6307-.0222.0692-.0332.1411-.0332.2158-.003.4896.4952 1.0402 1.2393 1.2752.2352.0749.4703.1108.6888.1108.5755 0 1.0319-.2408 1.1536-.6308l.0526.0167.0526.0166c-.1467.4564-.6584.7108-1.2588.7108-.2296 0-.4758-.0387-.7247-.1161-.7719-.2489-1.3113-.8188-1.3141-1.3832 0-.0858.0111-.1687.0388-.249.1466-.4564.6556-.7109 1.2586-.7109.2297 0 .4759.0387.7221.1162.7746.2489 1.314.8188 1.3168 1.3831 0 .0831-.0111.1689-.0387.2491" fill="#0c2950"/>
         <path d="m420.83594 600.70898c0 0-.15891 1.31113-.26953 1.42188-.10713.11062-.47071.23437-.47071.23437l-1.96093-1.04101-1.45508 1.35547c0 0-1.58008-.92946-1.58008-1.03321 0-.10037-.17364 1.02757-.32227 1.17969-.0186.0186-.0596.0314-.0898.0469h-3.0957c-1.00625 0-1.82227.81837-1.82227 1.82812 0 1.00625.81602 1.82617 1.82227 1.82617v.0137h16.06054c-.8814.0163-1.09259-.74782-1.86718-.96875-.22138-.7605-1.33241-1.00968-1.84766-1.66993-.22475-.657.81288-.45335 1.32812-.60546.18025-.019.3524-.028.51563-.0293 2.44844-.02 3.08453 1.85113 4.95508 2.6582v.55664c-1.62525-.35275-2.14336-1.16179-3.47461-1.66992-1.10663.80912.8125.96117.8125 1.66992-.15689.038-.29596.0563-.42188.0586h6.10547c1.00638 0 1.82227-.81838 1.82227-1.82813 0-1.00625-.81589-1.82617-1.82227-1.82617v-.0137h-2.88672c-.38328-.34721-.86328-1.13672-.86328-1.13672l-.34375.31445c0 0-.61426.2667-1.11914.0801-.50162-.1905-1.02148-1.04102-1.02148-1.04102l-2.17383.69532-.4707-.8711-.89844.79102-.26758-.42774-.51758.42774-.16211-.92383c0 0-.74537 1.02483-.89062 1.17383-.15225.15212-1.30664-1.2461-1.30664-1.2461zm-2.86719 2.29688c.4448-.0251.91402.0378 1.29102.0879 1.49362.70912 2.55598 1.77172 3.36523 2.93359v.45313c-.9335.0521-1.43152-1.05792-2.24414-.4043l.24805.30274c-1.18275.25237-1.68322-.90833-2.4961-1.36133-.18675-.60863-1.31054-.80931-1.31054-1.57031.28181-.30257.70168-.41633 1.14648-.44141zm-5.23242.49023c1.18393.0485 1.24337 1.20803 2.1875 1.51953.15212.505 1.53887.85711.84375 1.36524-1.767.15212-1.45935-1.81955-3.07422-1.01367-.23163.45625.38366.45745.69141.6582v.25195c-.92325.408-1.15404-.4525-1.76954-.65625-.22825-.80925-.22868-1.41526.53907-2.07226.22087-.0441.41289-.0597.58203-.0527zm20.25586.0527c.0346-.008.0724-.006.11133.002.25973.0563.59242.43586.6875.65625v.45313c-.50838.2525-.80902-.35332-1.00977-.75782.0282-.22763.10719-.33052.21094-.35351z" fill="#630530" transform="matrix(.8 0 0 -.8 0 595.276)"/>
      </g>
      <g transform="matrix(6.3881343 0 0 6.3881343 -1918.6362 -295.92657)">
         <path d="m310.6854 83.9549c0 0-.3127 1.9363 0 2.7773.3153.8354 1.4109 2.0416 2.4039 2.0416.9904 0 2.2436-1.3113 2.4538-2.0942.2075-.7884-.1576-1.8867-.2102-2.7774-.0498-.8881.0526-2.357.0526-2.357l-4.3848 1.101" fill="#06121e" fill-rule="evenodd"/>
         <path d="m310.9384 86.6371c-.2766-.7414-.008-2.4925.0139-2.6309l.2711-1.1371 3.8703-.9709c-.0278.498-.0665 1.3943-.0305 2.0195.0194.3264.0775.6667.1356 1.0125.0995.6059.2047 1.22.0829 1.6737v.0055c-.1356.509-.7718 1.267-1.4579 1.6599-.1328.0745-.2628.1326-.3872.1742-.1218.0388-.2379.0581-.3458.0581h-.003c-.6197 0-1.3085-.5698-1.7567-1.1757-.0885-.1189-.1688-.2407-.2351-.3569-.0637-.1163-.119-.2268-.1578-.3319m-.52-2.7222c0 .0056-.3237 2.0057.0139 2.9103v.0028c.0497.13.1161.2655.1935.4065.0775.1357.1688.2768.2712.4123.5339.7193 1.3832 1.397 2.191 1.397h.003c.1659 0 .3374-.0331.509-.0857.1631-.0526.3291-.1273.4896-.2186.7995-.4564 1.5492-1.3693 1.7152-1.9918v-.0055c.1494-.5671.0359-1.2393-.0747-1.9005-.0553-.332-.1106-.6612-.1273-.9544-.0498-.8714.0526-2.3183.0526-2.3238l.0276-.3707-.3623.0911-4.3875 1.0985-.1577.0415-.0388.1604-.3126 1.3085" fill="#fab41d"/>
         <path d="m315.438 85.0018c0 0-1.776.0526-2.4012-.5754-.628-.6282-.9932-.9959-.888-1.4136.1051-.4205 1.2006-.5258 1.6709-.628.4703-.1051 1.5658-.1577 1.5658-.1577 0 0-.0526 1.3085-.0526 1.8839 0 .5782.1051.8908.1051.8908" fill="#06121e" fill-rule="evenodd"/>
         <path d="m312.8459 84.6185c.7082.7108 2.5949.6527 2.6005.6527l.3623-.0109-.1134-.3432c0 0-.0913-.2684-.0913-.8051 0-.592.0498-1.87.0526-1.8756l.011-.2932-.2932.0138c-.003 0-1.1204.0526-1.6128.1632-.0637.0139-.177.0332-.3044.0581-.5975.1052-1.4412.2575-1.5712.7663v.003c-.0748.2958.008.5615.2102.8491.1743.2434.426.5007.7497.8218zm2.2601.1105c-.5117-.0139-1.4855-.0996-1.8783-.4952-.3071-.3043-.5477-.5478-.6889-.7497-.1106-.1548-.1576-.2848-.13-.4065.0443-.1689.6861-.2851 1.1425-.3679.1107-.0196.2131-.036.3264-.0611.2988-.0664.8771-.1106 1.2283-.1355-.0166.426-.0442 1.2034-.0442 1.5989 0 .2518.0221.4593.0442.617" fill="#fab41d"/>
         <path d="m311.4693 77.8806c0 0-1.0429 2.0416-1.148 3.5603-.1052 1.5188.2601 2.9324.2601 2.9324 0 0 1.2531-1.2034 2.0886-1.5687.8354-.368 4.2823-.8381 4.8577-1.0485.5755-.2102 1.9309-.9959 2.036-1.7816.1053-.7856-.1549-3.1426-.4177-3.5603-.26-.4203-.6778-.6804-.6778-.6804l-6.8938 1.3609" fill="#06121e" fill-rule="evenodd"/>
         <path d="m310.5899 81.4594c.0996-1.4636 1.1149-3.4497 1.1177-3.4552l.0303-.0885.0776-.5922 6.5922-1.3028c.1217.0911.3486.2792.509.5367.166.2655.3375 1.5075.3873 2.4759.0111.1936.0166.3705.0139.5256 0 .1492-.008.2792-.0194.3788v.003c-.0636.459-.722.9599-1.2808 1.2806-.1079.0611-.2186.1164-.3237.169-.0996.0468-.1881.0857-.2573.1104-.2185.0803-.9322.2103-1.7483.3571-1.1923.2128-2.5976.4675-3.1206.6942l-.005.0029c-.5919.2601-1.3693.9074-1.8147 1.3002-.0968-.523-.2241-1.4387-.1577-2.3957m.6196-3.6601c-.1521.3072-1.0595 2.1801-1.159 3.6242-.1079 1.5628.2683 3.0126.2683 3.0153l.1135.4537.3374-.3237c.003-.0027 1.2117-1.1674 2.0029-1.5159h.003l.003-.003c.4648-.2019 1.8397-.4507 3.0071-.661.841-.1523 1.5768-.2849 1.8342-.379h.003c.0912-.0359.1964-.0776.3043-.13.1079-.0526.2268-.1162.3568-.191.6695-.3789 1.4579-1.0098 1.5492-1.6792v-.0026c.0139-.1192.0222-.2713.0249-.4454 0-.1717-.003-.3598-.0138-.5561-.0526-1.0348-.2601-2.3985-.4675-2.7359-.296-.4703-.7636-.7663-.7663-.7663l-.0913-.0554-.1024.0194-6.8938 1.3611-.1909.0387-.0249.1936" fill="#fab41d"/>
         <path d="m365.3859 83.8179c0 0 .3155 1.9393 0 2.7773-.3125.8383-1.408 2.0416-2.4011 2.0416-.9905 0-2.2465-1.3112-2.454-2.094-.2102-.7856.1551-1.8868.2075-2.7776.0526-.888-.0524-2.3542-.0524-2.3542l4.3875 1.0983" fill="#06121e" fill-rule="evenodd"/>
         <path d="m365.6395 86.6891c.3375-.9046.0139-2.9075.0139-2.913l-.003-.0195-.3099-1.289c-.0166-.1025-.0914-.1937-.2019-.2213l-4.3875-1.0984-.0832-.0082c-.1492.0111-.2627.1411-.2518.2877 0 .0056.1054 1.4524.0528 2.3238-.0168.2931-.072.6224-.1274.9544-.1105.6584-.2214 1.3277-.0746 1.8948l.003.0113c.166.6224.9131 1.5353 1.7152 1.9916.1578.0915.3237.166.4896.2187.169.0552.3403.0856.5092.0856.8104 0 1.6571-.6778 2.191-1.3969.1022-.1355.1937-.2766.271-.4123.0774-.1409.1438-.2792.1936-.4065zm-.5171-2.8191c.0247.1551.2877 1.8924.0136 2.6308h-.003c-.0385.1026-.0912.2158-.1576.3294-.0662.119-.1439.2405-.235.3596-.4483.6059-1.1344 1.1756-1.7567 1.1756v.0029c-.1108 0-.227-.0249-.3487-.0608-.1245-.0417-.2545-.0998-.3843-.1743-.6891-.393-1.3253-1.1536-1.4609-1.6599l-.003-.011c-.1162-.4537-.0138-1.0679.0884-1.6683.0555-.3458.1135-.6861.1329-1.0124.036-.6252-.003-1.5215-.0306-2.0194l3.8732.9708" fill="#fab41d"/>
         <path d="m360.6353 84.8668c0 0 1.7758.0525 2.401-.5755.628-.6281.9933-.996.888-1.4163-.1023-.4178-1.2004-.5231-1.6709-.628-.4703-.1053-1.5657-.1551-1.5657-.1551 0 0 .0525 1.3087.0525 1.8841 0 .5754-.1049.8908-.1049.8908" fill="#06121e" fill-rule="evenodd"/>
         <path d="m362.8456 84.0996c-.3956.3954-1.3666.4784-1.8784.495.0221-.1604.0415-.3679.0415-.6167 0-.3958-.0251-1.1732-.0415-1.5992.3514.0222.9321.0664 1.2281.1328.1135.0251.2158.0443.3266.0636.4565.0803 1.0981.1965 1.1424.3654v.0026c.0277.1191-.0192.2491-.13.4066-.1439.2047-.3844.4454-.6859.7499h-.003zm-2.2186 1.0374c.005 0 1.8894.0552 2.6004-.653.3237-.3263.5781-.5838.7497-.8244.2019-.2876.2847-.5531.2102-.8491v-.003c-.13-.5088-.9737-.6612-1.5713-.7663-.1273-.0221-.2408-.0442-.3043-.0581-.4952-.1079-1.6074-.1632-1.6128-.1632-.1468-.0055-.2739.1079-.2824.2573v.0332c.006.1051.0528 1.3002.0528 1.8675 0 .5337-.0887.8021-.0915.8048-.0468.1411.0304.2933.1717.3405" fill="#fab41d"/>
         <path d="m364.603 77.7443c0 0 1.0459 2.0414 1.1508 3.5604.1023 1.5187-.2627 2.9324-.2627 2.9324 0 0-1.2531-1.2034-2.0886-1.5714-.8354-.3653-4.2825-.8354-4.8579-1.0458-.5727-.2103-1.931-.9959-2.0359-1.7816-.1024-.7856.1577-3.1426.4177-3.5603.2626-.4204.6804-.6804.6804-.6804l6.8912 1.3609" fill="#06121e" fill-rule="evenodd"/>
         <path d="m366.0228 81.2872c-.0996-1.4442-1.0069-3.3197-1.1565-3.6241l-.0966-.7191c-.006-.1218-.0941-.2271-.2188-.2518l-6.8939-1.3611c-.0634-.0112-.1326 0-.1934.036-.003.0026-.4731.296-.7665.7661-.21.3377-.412 1.7014-.4675 2.7362-.008.1962-.0138.3843-.0138.5558.003.1717.0112.3265.025.4456v.0026c.0911.6695.8797 1.3004 1.5463 1.6821.1302.0746.2517.1356.3596.1882.1079.0524.2132.0966.3045.13h.003c.2573.094.9903.2267 1.8342.379 1.1562.2073 2.5229.4535 2.9958.6556l.0139.0083h.003c.7497.332 1.8812 1.3971 1.9946 1.5077l.13.0775c.1439.0359.2931-.0528.329-.1994.003-.0026.3735-1.4523.2685-3.0152m-1.6543-3.4084c.0801.1551 1.0179 2.0389 1.1149 3.4442.0664.9572-.061 1.8728-.1577 2.3957-.4454-.3927-1.2229-1.04-1.8148-1.3h-.003l-.003-.003-.008-.0026c-.5313-.227-1.9283-.4787-3.115-.6945-.8133-.1466-1.527-.2739-1.7457-.3541-.069-.0247-.1577-.0636-.2571-.1105-.1052-.0498-.2158-.1079-.3266-.1717-.5587-.3179-1.2143-.8159-1.2754-1.2779l-.003-.0029c-.0112-.0996-.0195-.2296-.0195-.3788-.003-.1551.003-.332.0138-.5257.05-.9684.2215-2.2103.3875-2.4761.1603-.2572.3873-.4479.509-.5365l6.5924 1.3028.0802.5922" fill="#fab41d"/>
         <path d="m311.2945 78.2853c0 0 7.6241-.5147 12.507-4.5536 4.8825-4.0362 10.7611-8.0918 14.7337-7.9866 3.2534.0857 8.9078 3.2617 11.9038 5.7542 2.999 2.4896 6.3406 5.0679 8.9963 5.754 2.6559.6888 4.9657.4288 4.9657.4288.003 0 .7748-1.1149.5173-2.7471-.2572-1.6321-.8575-3.0928-1.3719-3.6073-.5148-.5174-2.7417-.2573-4.6254-1.3749-1.8841-1.1177-5.652-3.8647-7.7958-5.8399-2.1413-1.9752-6.1194-4.5452-12.8307-4.5922-7.2978-.0471-13.7682 5.0182-15.8651 6.7389-2.8247 2.3183-6.1664 4.1219-7.7931 4.7222-1.6294.6031-2.3127.4318-2.8272 1.2034-.5146.7746-1.2006 3.8676-.8576 4.9823" fill="#06121e" fill-rule="evenodd"/>
         <path d="m323.6296 73.5235c-4.3432 3.5934-10.8885 4.3569-12.1417 4.4731l-.2795-.9074c-.2295-.7525.0526-2.5119.4123-3.7234.0719-.2379.1439-.4511.2158-.6282.0663-.1687.1328-.3043.1936-.3954l.005-.0084c.2739-.4122.6446-.5063 1.2698-.6667.3762-.0969.8382-.2131 1.4219-.4288 1.1869-.437 3.27-1.505 5.4056-2.9435.4178-.2794.8355-.5726 1.2421-.8742.4205-.3098.83-.6279 1.2256-.9487v-.0029c1.0429-.8547 3.1702-2.5396 5.9366-4.0028 2.7609-1.4581 6.1581-2.6974 9.7544-2.6725 3.3169.0221 5.9533.6667 8.0281 1.5491 2.0665.8798 3.5714 1.9974 4.6226 2.9684 1.552 1.4302 3.9477 3.2618 5.8758 4.5952.3735.2571.7331.5005 1.0624.7137.3373.2211.6417.4094.9046.5669 1.137.6723 2.3708.8631 3.3169 1.0099.6058.0912 1.0817.166 1.2447.3125l.009.0083v.0027l.003-.0027v.0027c.3375.3375.7248 1.1538 1.0123 2.1717.0556.1964.1079.4066.1551.6252.0498.2268.0913.4455.1245.6556v.0028c.1965 1.2423-.2379 2.1522-.4039 2.451-.52.0415-2.5036.1468-4.7443-.4343-1.2921-.3346-2.7637-1.137-4.2852-2.1634-1.5326-1.0374-3.1094-2.2987-4.6033-3.538-2.1744-1.8066-5.7347-3.9727-8.7861-5.0791-.6003-.2187-1.1785-.3956-1.7262-.5203-.5505-.1272-1.0706-.2047-1.5492-.2185h-.011c-2.0417-.0526-4.5508.9489-7.1678 2.4787-2.5894 1.5132-5.2921 3.5437-7.7432 5.5717m-12.316 5.0319c.0222-.0026 7.7072-.5229 12.6591-4.6144 2.4317-2.0111 5.1095-4.0251 7.6712-5.5217 2.5368-1.4828 4.9546-2.4566 6.8828-2.4068l.0111.0028c.4369.0111.924.083 1.444.2019.5256.1218 1.0845.2933 1.6626.5035 2.9931 1.0845 6.4871 3.2118 8.6257 4.988 1.5021 1.2503 3.0956 2.52 4.6448 3.5685 1.5656 1.0569 3.09 1.8867 4.4539 2.2382 2.7026.6997 5.057.4369 5.0625.4369.0828-.0083.1547-.0551.1992-.1217.0525-.0802.8188-1.2585.5531-2.9378-.0386-.2463-.0828-.4758-.13-.6916-.0469-.2187-.1022-.4372-.1631-.6556-.3126-1.1012-.7525-2.0086-1.1508-2.4097h-.003l-.0193-.0166c-.2822-.2656-.8327-.3513-1.5354-.4592-.8991-.1383-2.0777-.3207-3.1233-.9404-.2657-.1577-.5643-.3432-.8824-.5533-.3266-.2102-.6806-.4483-1.0513-.7056-1.9088-1.3194-4.2825-3.1343-5.815-4.548-1.0901-1.0042-2.6446-2.1604-4.7803-3.0677-2.1303-.9074-4.8357-1.5688-8.2356-1.5937-3.7014-.0248-7.1843 1.2449-10.0088 2.736-2.8162 1.4883-4.9712 3.198-6.0252 4.0611l-.003.0028c-.3956.3266-.7995.6364-1.2006.9322-.4094.3043-.8189.592-1.2255.8633-2.097 1.4107-4.133 2.4566-5.2894 2.8826-.5533.2046-1.0042.318-1.3693.412-.7553.1937-1.1979.3043-1.588.8964l-.003.0029c-.0829.1243-.1659.2931-.2461.495-.0803.1966-.1577.4262-.2325.675-.3817 1.2866-.6721 3.1814-.4094 4.0362l.3431 1.1178c.0387.1215.1549.199.2766.1907" fill="#fab41d"/>
      </g>
      <g fill="#97d9f6" transform="matrix(6.3881343 0 0 6.3881343 -1918.6362 -295.92657)">
         <path d="m315.8076 74.166l.4205-.1689c.1688-.0664.2932-.0609.3597.1078.0525.1328-.0388.2214-.202.2878l-.4233.1659zm-.3845-.9712l.4703-.1854c.166-.0663.3291-.0774.4094.1218.0608.1549.003.2738-.1854.3485l-.5035.1992zm-.0139 2.3044l1.422-.5671c.6833-.2711.675-.7137.5698-.9821-.1023-.2628-.2877-.3541-.52-.3817.1991-.1743.343-.4482.1936-.83-.2075-.5228-.7663-.6141-1.2254-.4315l-1.4718.5865"/>
         <path d="m319.6198 71.8151c-.3292-.7055-.8659-.8661-1.6405-.5035-.7719.3596-.9987.8767-.6695 1.5794l.7276 1.5603.7801-.365-.6446-1.3832c-.1217-.2601-.2739-.5837.1051-.761.3707-.1715.5229.1522.6419.4122l.6473 1.3832.7801-.3624"/>
         <path d="m320.8684 71.6873l.3901-.2243c.1383-.0802.343-.166.4675.0498.0885.1549.0553.2905-.2296.4565l-.3486.1992zm-.1327 1.4909l1.4191-.8189c.4233-.2462.6529-.6916.3901-1.1508-.1466-.2517-.415-.4509-.7138-.3983.1577-.1963.1522-.4925.006-.8106-.0581-.1245-.2213-.415-.2186-.5669l-.7441.4286c.0332.1438.0913.2794.1549.4094.1134.2435.2296.498-.0636.6667l-.3956.2296-.4897-.8465-.7442.4288"/>
         <path d="m323.4384 71.5856l.6833-.5562-.3153-1.6792.008-.0055.9462 1.1646.6307-.5118-1.7677-2.1771-.6501.5284.3015 1.729-.008.0055-.9655-1.1896-.6307.5146"/>
         <path d="m325.609 69.7966l.6806-.5256-1.2754-1.6517.9793-.7552-.4398-.5699-1.6599 1.2865"/>
         <path d="m327.3537 68.4437l1.9144-1.2947-.4011-.5949-1.2034.8133-.1937-.2903 1.09-.7388-.3735-.5533-1.0927.7386-.1936-.2903 1.2365-.8354-.4011-.5976-1.9503 1.3222"/>
         <path d="m329.1059 65.203v2.025l.8301-.4621-.0915-1.1287.9242.6694.8244-.4592-1.7347-1.0621-.5007-.902-.7525.4177"/>
         <path d="m332.3875 65.5175l2.0361-.7248-.2436-.6777-1.2226.4369-.1163-.3291 1.0512-.3762-.2268-.6281-1.0513.3734-.3568-1.004-.8132.2877"/>
         <path d="m335.2731 62.3944c.2158-.0442.5754.0332.6943.6474.1218.6141-.1825.8216-.3956.8631-.2157.0415-.5754-.036-.6943-.6474-.1217-.6141.1798-.8188.3956-.8631m.4343 2.1966c.8327-.166 1.2698-.877 1.1066-1.7152-.166-.841-.841-1.3307-1.6765-1.1674-.8327.1632-1.2725.8769-1.1065 1.7151.166.841.8409 1.3334 1.6764 1.1675"/>
         <path d="m338.3616 62.0638c.2184-.0055.5588.1356.5697.758.0112.6252-.3207.7774-.542.7802-.2186.0055-.5563-.1328-.5701-.758-.0111-.6252.3237-.7774.5424-.7802m.0415 2.2381c.852-.0166 1.4079-.6393 1.3915-1.4968-.0166-.8547-.595-1.4578-1.447-1.4412-.8493.0166-1.4052.6391-1.3886 1.4967.0165.8548.5948 1.4577 1.4441 1.4413"/>
         <path d="m340.5668 63.6315l-.7717-.1274-.119.7082 2.3957.3956.119-.708-.7746-.1275.3458-2.0552-.852-.1413"/>
         <path d="m343.6874 62.918l.4759.1713c.1687.0581.2987.1606.2268.3626-.0555.1547-.1798.2073-.3707.1383l-.509-.18zm-.3513.982l.426.152c.1716.0638.2601.1496.1992.3182-.0498.1329-.1771.1412-.3403.0831l-.4287-.1551zm-1.1785.7357l1.4385.5175c.6917.2488.9821-.0914 1.0762-.3598.0968-.2656.0194-.4564-.1384-.6335.2656.0028.5533-.1079.6942-.4952.1883-.5282-.1685-.9655-.6335-1.1314l-1.4911-.5339"/>
         <path d="m346.559 64.5456l-.6254.6472-.005-.0028.1632-.8907.4676.2463zm-1.4388 1.278l.7444.3928 2.2048-2.0057-.7886-.4149-.2903.2988-.7856-.415.0774-.4122-.7665-.4039"/>
         <path d="m346.6559 66.6618l.7193.4758 1.151-1.7401 1.0317.6859.3956-.6001-1.7484-1.1591"/>
         <path d="m348.489 67.8873l.6889.5171 1.2504-1.6653.9876.7415.4315-.5756-1.6764-1.2587"/>
         <path d="m353.1572 70.1901c-.0775.0692-.3292.2628-.6088.0415-.3154-.2517-.1743-.639.0609-.9322.2351-.296.5809-.5229.8963-.2711.2268.1798.1881.4094.0638.6473l.6637.5282c.3515-.4424.3653-1.1977-.2738-1.7069-.7081-.5641-1.5076-.3816-2.0249.2658-.5477.6916-.4787 1.4938.1963 2.0305.6032.4758 1.1869.4205 1.6821-.0802"/>
         <path d="m353.3375 71.6781l.6833.5227 1.2641-1.6571.985.7497.4341-.5725-1.6679-1.2727"/>
         <path d="m358.3922 73.0402c.3984-.6668.2295-1.2035-.5035-1.6406-.7331-.4371-1.2863-.3318-1.6847.3347l-.8797 1.4773.7384.4398.7831-1.3113c.1464-.2462.3292-.5531.6888-.3373.3486.2073.166.5144.0192.7606l-.7827 1.3113.7414.4428"/>
         <path d="m359.6478 73.0684l.4759.1714c.1687.061.2987.1606.2242.3651-.0555.1551-.1772.2077-.3681.1383l-.509-.1824zm-.3541.9821l.4288.1547c.1688.0611.2601.1468.1992.3154-.0498.1355-.177.1413-.343.0832l-.4259-.1551zm-1.1783.7357l1.4411.5175c.6916.2517.9795-.0887 1.0762-.3571.097-.2683.0193-.4564-.1383-.6335.2655.003.5534-.1079.6943-.495.1881-.5285-.1687-.9655-.6335-1.1315l-1.4939-.5368"/>
      </g>
      <g transform="matrix(6.3881343 0 0 6.3881343 -1918.6362 -295.92657)">
         <path d="m321.2262 99.6893v-14.8059c0 0 1.2172-5.552 2.1965-6.537.9848-.9849 5.1067-5.7486 6.6781-6.4568 1.5713-.7082 8.1913-3.6019 8.1913-3.6019l8.6948 4.0749 4.6337 4.2522 2.5894 3.8589.7082 2.8356.0802 5.5909.1549 11.262-33.9354.0304" fill="#fff30d" fill-rule="evenodd"/>
         <path d="m321.3188 99.3703h33.6588v10.125h-33.6588z" fill="#06121e"/>
         <path d="m321.5628 83.5434h1.5409v2.1438h1.6681v2.0167h2.3515v2.357h2.3099v2.1024h2.3514v2.1855h2.736v2.3182h2.5672l1.2062 1.8673 1.4247-1.8673h2.3874l.0277-2.4453h2.3099v-1.8867h2.1799v-2.1884h2.0113v-2.4427h2.2241v-2.1025h2.3514v-2.5311h1.3694c0 0-.13-1.2008-.4288-1.9283-.2988-.7302-.8548-1.1149-.8548-1.1149h-2.0527v2.6585h-2.866v2.4014h-2.2657v2.2296h-2.3099v2.274h-2.2242v2.3154h-2.0941v2.2714h-.5561-2.0527v-2.1856h-2.3542v-2.3596h-2.4372v-2.2714h-2.3099v-2.3597h-2.4787v-2.3597h-2.1827v-2.3155h-2.0527c0 0-.8548 1.0733-1.1121 1.8009-.2572.7303-.3845 1.4166-.3845 1.4166" fill="#630530" fill-rule="evenodd"/>
         <path d="m341.189 87.8844c-.2626-.7276.6861-1.0734.2905-1.7345-.1466-.2656-.2766-.5699-.2905-.8606-.1853-.2517-.1466-.6084-.1187-.9542l.0247-.1577c-.1439-.094-.3541.1854-.4344-.1079.0803-.1715.0526-.3956.1439-.5671l-.3292-.0692c0-.2379.1191-.4094-.0247-.6196-.4511 0-.4235.4758-.7138.6888-.1716-.0166-.2379-.2545-.3847-.3071-.0802-.1051-.224-.1853-.3679-.1991-.0415.2266.0775.5062-.1992.5975-.2268-.0913-.4094-.2794-.6612-.3043-.0248-.0666-.0912-.0527-.1438-.0527-.0526.2379.2102.4234.1438.6751-.0802.0663-.13.1465-.2378.119-.1052-.0527-.2352-.1079-.3293-.0941-.0525-.1328-.1715-.0525-.2655-.0774-.0249.3845.3181.6196.5422.9129.3707.1575.7248.3181 1.1621.3568.2653.0941.5558.2406.5946.545.0138.0773-.0139.1577-.0664.2103-.1439-.0389-.1963-.1854-.238-.3043-.1576-.1577-.3679-.3183-.5671-.2104-.0911.0388-.199.0914-.2904.13v.0276c.1576.0279.3845.0389.4758.238.1189.2379-.0277.4123-.0415.6502 0 .0913-.0109.1714-.105.2379-.3681.0139-.6337-.2517-.9905-.0527-.0913.1439-.0249.2907-.0526.4758.2241.1053.4233.2907.6889.2907.2489-.0666.4205-.4233.7-.2907.1824.1053.3291.2518.567.2907-.0139.1466-.199.2268-.2905.2792-.2241-.0524-.3956-.1741-.6223-.0941 0 .1468.1603.1856.238.2658.3041-.0387.5282-.119.8325-.0526.1853.0415.3708.0664.5809.1052.0941.0664.2379.0413.332.1215.1577 0 .3155-.0137.4481-.1077" fill="#06121e" fill-rule="evenodd"/>
         <path d="m334.77344 87.638496c-.10751-.0228-.2108-.07048-.30626-.15-.1328-.3044.30132-.199496.39532-.437496l-.0656-.0656c-.238.105096-.4371.01336-.675-.02816-.3817-.318096.35641-.317832.34531-.660936-.2517.01392-.55595.262552-.81875.118752 0-.583704.76445-.782792 1.06875-1.192192.0138-.3458.027-.702888-.18594-.954688-.0637-.0912-.17129-.210096-.26249-.262496v-.06872c.10509-.0913.26277-.132648.40937-.143752.3043-.237896-.1474-.45116-.2-.689056.1992-.119104.54271-.05368.59531-.34688-.0664-.2628-.38431-.1846-.39531-.475.4869-.1854 1.02838-.436696 1.58437-.237496.0664-.0388.23558.01376.17188-.132816-.4232-.3322-.89945-.689808-1.28125-1.032808-.1853-.1328-.35575-.383504-.59375-.425-.3845-.249-.87149.0272-1.24219.212496-.1051.05256-.27771-.02848-.38281.0656-.0664-.0941-.22676.000352-.27656-.118744-.2656.014-.37095-.26564-.55626-.39844 0-.119-.0789-.251048-.0125-.331248.3043-.119.3034.240272.475.359368.0663.0248.17224.03816.21094-.05312-.0249-.2794-.35816-.477824-.26406-.740624.1715-.01376.35766.118496.47656.237496.0775.05256.21084.02528.18594-.09375-.1467-.1576-.14766-.304024-.21406-.50312.3044-.132704.51575.02784.80624.146872.2268.01376.33127-.185624.46407-.290624.3016-.160496.21001.290472.39531.409376.3292.0803.35647-.451136.67187-.42344.17151.05248.0677.262312.0953.395312 0 .2932.20966.02712.35626.07968.473-.3956.36783.424224.68594.490624.19649-.01376.41.159744.59531.19844.238.1992.22302.569912.32813.807816.0803.01376.11936-.08006.17187-.118752-.0276-.304304-.11871-.595336-.26251-.860936-.14669-.01376-.22667-.160576-.38436-.14688-.0387-.03848-.14376-.09027-.14376-.184376.1189-.337496.33424-.578144.58594-.793744.18952-.165.39778-.31752.59844-.487504-.0176.09686-.0538.24076.0578.301568.1161-.0802.24906-.198552.30157-.331256.0553-.157696.18453-.277264.19843-.45156.3568-.6224-.2624-1.164776-.2375-1.759376 0-.796696.88488-1.125136 1.34688-1.54844.7523-.569896.48968-1.61912.40937-2.465624l-.44844-.398432c-.56989-.157504-.88541.35952-1.50781.240624-.2102-.1468-.48822-.184664-.56562-.464064l.0906-.118752c.2517-.02768.4621.05232.7.118752.1079-.1328.33214-.02888.39844-.214064-.3292-.02488-.7147.000648-.9-.356248-.0775-.132704.0141-.238088.14688-.279688.224-.143904.3962.13376.59531.214064.105-.02496.26338.05152.32969-.08126-.1466-.185296-.49011-.251784-.43751-.567184l.52813-.04064c.119.107896.34324.05208.42344.212496.1854.01392.23787.223968.40937.276568.1467-.014.30454.05224.44844-.03904.1466-.0276.31813.000536.26562.185936-.0913.1466-.0254.356624-.0531.528128.13.370496.36851-.02512.62031.09374-.0388.356904-.19625.623112-.14375 1.007816.1577.1992.3036-.01416.5.09375-.10509.3292-.27577.660712-.20937 1.045312.2102.2904.32772-.146704.56562 0 .0913.2764-.0655.567832-.0406.885936-.0498.121704-.1824.159376-.2875.159376-.1715.07744-.43786.09169-.47656.329688-.0277.3458.0249.677984.14375.954688.0941.4756.74195.172096.99375.462496.3956.202.60594.571592.71094.967192.21589.5284.0631 1.054696-.15 1.525h-1.44376l.16563-.04216c.3043-.143896.72789.108304.97969-.237496.1964-.370704.32868-.96524.0797-1.335936-.1328-.1992-.34159-.319016-.55469-.357816-.1327-.132696-.44881-.02736-.62031-.09375-.3707.237904-.43763.755136-.72812 1.07344-.26551.309896-.56412.634048-.75782.993752-.1521.284896-.24075.594824-.19375.940624-.1466.318096.0553.636488 0 .954688.0276.315296.25171.62236.13281.95156-.1328.01376-.19855.159216-.35624.145312-.0941-.1466-.0808-.383184-.18595-.554688-.37069.03872-.54162.474704-.76562.687504-.2379.157896-.39569-.264952-.56719-.356256-.0415-.0276-.15824-.0552-.18593.02496-.10511.1992-.19844.411576-.19844.62188 0 .107896-.11651.133176-.18282.171872-.1716-.105096-.37121-.118848-.57031-.143752-.2379.0388-.0525.276512-.14374.395312l-.0547-.03904c-.21031.02768-.42086.02768-.60626 0l-.14374.09218c-.0941.121704.0392.2686.0641.412504.0526.356896.48983.646808.29063 1.020312-.3154.580896-.62097 1.335776-.26407 1.996872-.0277.213104.1577.492664.025.689064.094.188096-.0774.384648-.14375.531248-.2676.207528-.62434.36524-.94687.296872zm3.15-9.32656c.002-.0089.003-.02176.005-.02968v.02656c-.002.0016-.003.0016-.005.0032z" fill="#06121e" fill-rule="evenodd"/>
         <path d="m341.2072 78.7992c-.2132.0636-.4096.1715-.5478.3845.1327.0109.2267-.0138.3567-.0664.1217.0913.2656-.1051.4094 0 .0664.0249.1467.0249.1856.0913-.3294.3845-1.0155.5173-1.0817 1.1287.2379-.2407.5808-.332.9238-.2932.0802.0912-.0415.1604-.0524.2379-.2104.1466-.357.4122-.5009.5975-.0691.1439-.1217.3292-.1217.4758.133-.1079.3043-.2657.4758-.213.1468.2931.0415.5976.1715.888-.13.4095.2656.7138.238 1.1398.2794.3984.3432.8742.6611 1.2449.3707.4094.8052.7552 1.3335.7163.0802-.0552.1604.0776.2378.0112.451-.1853.4897-.6362.5673-1.018.0801-.2407.0552-.4648.0275-.7165-.0913-.7692-.4481-1.4164-.686-2.1191-.0941-.1993-.1328-.3983-.2103-.5947-.1992.0664-.1188.3817-.1715.6224-.0802.1188-.2518.0664-.3596.0387-.0498.5422.3319.9129.5948 1.3362.0278.0415-.025.1328-.0914.1466-.224-.0138-.3292-.0525-.5034-.1993l-.0637.0527c.1854.5035.7387.6501.9904 1.0734.0249.1715.1466.3983.0249.5698-.0387.2656-.329.332-.5145.4371-.8051-.1438-1.3334-.9267-1.5714-1.6543-.0662-.3983-.2766-.7303-.2655-1.1674-.0913-.5035.0525-1.1121.1466-1.5881.224-.4231.3956-.8602.6862-1.2447.0524-.1025.105-.2075.1548-.3181" fill="#06121e" fill-rule="evenodd"/>
         <path d="m336.9362 84.0574c-.0138-.1855-.1853-.3321-.1189-.5036.1715-.2905.3817.0525.6196-.0277.0553.0664.1992.0802.2379.0277-.0911-.1716-.2241-.3431-.2241-.5312.3709-.1964.7138-.0387 1.0956.0802.0803-.1438-.1716-.3845.1189-.4758.3432.0526.6613.1466.924.3707.2517.0802.3847-.3043.5975-.3707 0-.0664.1024-.1466 0-.1992-.1326.0249-.3705.0664-.3982-.1466.0415-.0774.0139-.1992.0277-.3043-.2132.0526-.3709.2932-.6226.2932-.2241-.1466-.0911-.5422-.3541-.556-.2656.1715-.1464.5948-.5035.6197-.1992-.1051-.3569-.3431-.5671-.4095-.1466.238 0 .5838-.213.794-.2101 0-.3569-.2102-.5808-.0913-.0666.1992.1714.4509-.119.5422-.2379-.0802-.4483-.2102-.7139-.2379l-.0387.119c.1715.4094.3292.7663.7416 1.0208" fill="#06121e" fill-rule="evenodd"/>
         <path d="m337.0813 77.9252c.1992-.0943.462-.0666.7109-.0666.238-.2517-.1161-.8216.451-.7689-.1854-.3956-.2629-.8605-.3569-1.2561-.4731-.0664-1.0291.4482-1.386-.0802-.0415-.1743.0526-.2518.0802-.3984.1826-.2517.2241-.5948.2767-.9129.0138-.0553 0-.1605-.0941-.1188-.1964.0773-.3679.2627-.592.1714-.1604-.3043.2103-.6225.0526-.9544-.0664-.1439-.1992-.0249-.2656.0278-.0387.0911-.1715.0662-.2628.1188-.2517-.1188-.094-.3984-.1604-.5837-.1826-.105-.3569.1715-.5008 0-.2517-.3956-.7275-.5174-1.1618-.4508-.0665.199.1327.4399.3015.5699l.0276.08c-.0387.0526-.0912.0803-.1715.0664-.2379-.094-.4094-.3319-.6611-.2655-.0775.1991.1189.343.213.4787.0774.0662.2379.0524.2379.199-.2518.1577-.4509-.094-.6612-.1466-.0664.3043.3292.3432.5146.4758.1466 0 .3319 0 .4509-.0913.4481-.1217.9101.1716 1.1729.5424.3044.8325.1079 1.5492.1605 2.4619.1853.3045.2766.7306.6446.9021" fill="#06121e" fill-rule="evenodd"/>
         <path d="m326.0304 97.8657l-1.7097-2.8468 1.7372-3.2228 1.6792 3.2534" fill="#06121e" fill-rule="evenodd"/>
         <path d="m350.8908 98.04l-1.7096-2.8468 1.7374-3.2228 1.6791 3.2534" fill="#06121e" fill-rule="evenodd"/>
         <path d="m326.6661 107.5123c-.05.0856-.0195.1965.0662.2462.0887.0469.1966.0192.2464-.0693l3.4772-6.111c.05-.0857.0194-.1962-.069-.2434-.083-.0498-.1938-.0194-.2436.0664" fill="#fff30d"/>
         <path d="m326.7797 101.2717c-.0498-.0858-.1577-.1164-.2462-.0666-.0857.0472-.1162.1577-.0664.2462l3.4774 6.1082c.0498.0887.1577.1162.2462.0694.0857-.0498.1162-.1605.0664-.2462" fill="#fff30d"/>
         <path d="m327.2248 104.225c0 1.8756.5366 3.3944 1.1978 3.3944.6641 0 1.2008-1.5188 1.2008-3.3944 0-1.8758-.5367-3.3946-1.2008-3.3946-.6612 0-1.1978 1.5188-1.1978 3.3946" fill="#fff200" fill-rule="evenodd"/>
         <path d="m327.2422 103.8069c0 0 .7912-.1494 1.1785-.1411.3901.0109 1.1785.1937 1.1785.1937 0 0 .0277-.1413.0111-.3043-.0194-.166-.0526-.4262-.0526-.4262 0 0-.971-.1824-1.1619-.1824-.1909 0-1.101.1051-1.101.1051" fill="#06121e" fill-rule="evenodd"/>
         <path d="m327.3557 102.6243c0 0 .6943-.1745 1.0733-.1549.3818.0164 1.0512.1549 1.0512.1549 0 0-.1051-.5644-.166-.678-.0608-.1132-.7275-.1464-.8769-.1381-.1466.008-.8659.0608-.8908.1051-.0276.0415-.1825.6335-.1908.711" fill="#06121e" fill-rule="evenodd"/>
         <path d="m327.7023 101.5378c0 0 .6335-.1632.805-.1302.1743.0333.6252.0693.6584.1302l-.26-.4262c-.0581-.0607-.4675-.033-.5699-.033-.1051 0-.3652.0166-.4343.0857-.0692.069-.2268.329-.2268.365" fill="#06121e" fill-rule="evenodd"/>
         <path d="m327.748 106.4341c0 0 .1576.5284.3707.6557.213.13.3983.2296.6113.0138.2131-.213.2407-.3126.285-.4841.0415-.1715.0581-.2711.0581-.2711h-1.339" fill="#06121e" fill-rule="evenodd"/>
         <path d="m332.5758 103.5355c-.1549-.5533-2.1384-.4788-4.4345.1659-2.2933.6472-4.0251 1.6182-3.8702 2.1715.1521.5535 2.1384.4786 4.4318-.1686 2.2933-.6447 4.0279-1.6157 3.8729-2.1688" fill="#fff30d" fill-rule="evenodd"/>
         <path d="m332.7961 105.8743c-.0774.5505-2.0748.4231-4.465-.285-2.3901-.7054-4.2657-1.7264-4.1883-2.2741.0747-.5504 2.0748-.4231 4.465.2851 2.3902.7054 4.2658 1.7235 4.1883 2.274" fill="#fff30d" fill-rule="evenodd"/>
         <path d="m327.3145 104.2323v0-.003c0-1.2891.2545-2.404.628-2.9571.0691-.1025.1411-.1853.2157-.2434.0858-.0664.1771-.1024.2656-.1024.2877 0 .5588.3567.7635.9349.2131.603.3458 1.4413.3458 2.368v.003c0 .9265-.1327 1.762-.3458 2.3678-.2047.5782-.4758.9352-.7635.9352-.2904 0-.5588-.357-.7635-.9322-.213-.6088-.3458-1.4443-.3458-2.3708m-.1798-.003v.003c0 .9487.1355 1.8062.3568 2.4288.2297.6502.5589 1.054.9323 1.054.3735 0 .7027-.4038.9323-1.054.2213-.6226.3569-1.4801.3569-2.4288v-.003c0-.9459-.1356-1.8064-.3569-2.4287-.2296-.6501-.5588-1.054-.9323-1.054-.1328 0-.2573.0498-.3734.1383-.0913.0719-.1771.166-.2573.2848-.3929.5811-.6584 1.7374-.6584 3.0596" fill="#fff30d"/>
         <path d="m338.5495 107.0685l-.0414-.0858c-.0995-.6003.0857-1.1729-.058-1.7041-.0555-.1274-.2573-.1412-.3845-.0996-.1855.3293.0581.6446-.13.9877.0883.5007-.1855 1.1591.2294 1.6183.4288 0 .2988-.4731.3845-.7165" fill="#fff30d" fill-rule="evenodd"/>
         <path d="m337.6798 107.3991c.1439-.6169.0581-1.4192.0858-2.1329 0-.0858-.1024-.1577-.1577-.1854l-.213-.058c-.3292.5422-.1162 1.2172-.1715 1.859.0442.2462.0996.4315.2849.5892.072.0138.1273-.0166.1715-.0719" fill="#fff30d" fill-rule="evenodd"/>
         <path d="m339.1502 107.3699c.1134-.6143-.0277-1.2036.0277-1.9311-.0997-.0886-.0277-.2573-.1577-.3016-.1273-.0443-.2267.0443-.2545.1439-.0305.6141-.072 1.2448 0 1.9171.0691.1272.1853.3292.3845.1717" fill="#fff30d" fill-rule="evenodd"/>
         <path d="m337.0375 106.5543c0-.5452.0139-1.0459-.0719-1.5743-.0553-.1438-.2434-.0442-.3126-.2157.0277-.1273.1549-.1992.2573-.2573.2711-.0443.4564.0996.6971.0857.2158.0858.4869-.058.6722.0996.3127-.0415.7276.1162.9406-.1272-.0857-.329-.5394-.2295-.7995-.3871-.1853-.072-.3983-.072-.556-.2298-.0139-.4426-.1273-.8879.0996-1.2587.0719.0415.1853.1577.0719.2572l.0581.6861c.1853.2739.5118.2877.7967.4151.1743.072.5146.0443.6446.2295.0276.473-.1992.9295.1715 1.2891.2435-.0138.13-.5007.4979-.4314.0582-.1412 0-.3432-.0553-.4981 0-.4896 0-1.0595.0277-1.5462-.1577-.4594-.4841-1.0182-1.0568-1.0457-.0996-.0581-.1576-.1136-.1992-.2158.0416-.1413.2573-.0555.2573-.2575.0415-.2434.0415-.5145-.1134-.7439-.2711-.0139-.545-.072-.7857-.1577-.2157.1298-.5007.0719-.7275.1577-.13 0-.2297-.0998-.3569-.0279.0138.2711-.0138.6584-.0719.9574-.1411.1576-.3016.2877-.4703.3871-.3016 1.2753-.1992 2.5921-.0443 3.8093-.0138.3128.0277.6861.1992.9295.2711.0858.1162-.2434.2296-.329" fill="#fff30d" fill-rule="evenodd"/>
         <path d="m346.3358 107.5123c-.0499.0856-.0196.1965.0662.2462.0885.0469.1964.0192.2462-.0693l3.4775-6.111c.0498-.0857.0194-.1962-.0664-.2434-.0857-.0498-.1966-.0194-.2462.0664" fill="#fff30d"/>
         <path d="m346.4493 101.2717c-.0498-.0858-.1576-.1164-.2462-.0666-.0857.0472-.1134.1577-.0664.2462l3.4776 6.1082c.0496.0887.1602.1162.246.0694.0859-.0498.1162-.1605.0664-.2462" fill="#fff30d"/>
         <path d="m346.8942 104.225c0 1.8756.5367 3.3944 1.1979 3.3944.6639 0 1.2006-1.5188 1.2006-3.3944 0-1.8758-.5367-3.3946-1.2006-3.3946-.6612 0-1.1979 1.5188-1.1979 3.3946" fill="#fff30d" fill-rule="evenodd"/>
         <path d="m346.9129 103.8069c0 0 .7882-.1494 1.1783-.1411.3901.0109 1.1785.1937 1.1785.1937 0 0 .0278-.1413.008-.3043-.0164-.166-.0498-.4262-.0498-.4262 0 0-.971-.1824-1.1619-.1824-.1909 0-1.101.1051-1.101.1051" fill="#06121e" fill-rule="evenodd"/>
         <path d="m349.149 102.6243c0 0-.105-.5644-.163-.678-.0611-.1132-.7305-.1464-.877-.1381-.1466.008-.8659.0608-.891.1051-.0274.0415-.1851.6335-.1936.711 0 0 .6945-.1745 1.0763-.1549" fill="#06121e" fill-rule="evenodd"/>
         <path d="m347.3723 101.5378c0 0 .6307-.1632.805-.1302.1743.0333.6252.0693.6612.1302l-.2603-.4262c-.0634-.0607-.47-.033-.5752-.033-.1025 0-.3624.0166-.4315.0857-.0692.069-.2269.329-.2269.365" fill="#06121e" fill-rule="evenodd"/>
         <path d="m347.4186 106.4341c0 0 .1551.5284.368.6557.2157.13.4012.2296.6143.0138.2128-.213.2406-.3126.2847-.4841.0417-.1715.0555-.2711.0555-.2711h-1.3363" fill="#06121e" fill-rule="evenodd"/>
         <path d="m352.2455 103.5355c-.155-.5533-2.1385-.4788-4.4316.1659-2.2963.6472-4.0279 1.6182-3.8758 2.1715.1548.5535 2.1411.4786 4.4344-.1686 2.2935-.6447 4.0281-1.6157 3.873-2.1688" fill="#fff30d" fill-rule="evenodd"/>
         <path d="m352.4661 105.8743c-.0776.5505-2.0748.4231-4.465-.285-2.3903-.7054-4.2658-1.7264-4.1913-2.2741.0777-.5504 2.0778-.4231 4.4678.2851 2.3902.7054 4.2659 1.7235 4.1885 2.274" fill="#fff30d" fill-rule="evenodd"/>
         <path d="m346.9831 104.2323v0-.003c0-1.2891.2571-2.404.6305-2.9571.0666-.1025.1413-.1853.2158-.2434.0858-.0664.1743-.1024.263-.1024.2905 0 .5587.3567.7635.9349.2129.603.3458 1.4413.3458 2.368v.003c0 .9265-.1329 1.762-.3458 2.3678-.2048.5782-.473.9352-.7635.9352-.2877 0-.559-.357-.7635-.9322-.2132-.6088-.3458-1.4443-.3458-2.3708m-.1798-.003v.003c0 .9487.1383 1.8062.3567 2.4288.2296.6502.5589 1.054.9324 1.054.3762 0 .7025-.4038.9351-1.054.2185-.6226.3541-1.4801.3541-2.4288v-.003c0-.9459-.1356-1.8064-.3541-2.4287-.2326-.6501-.5589-1.054-.9351-1.054-.133 0-.2573.0498-.3735.1383-.0885.0719-.1743.166-.2545.2848-.3928.5811-.6611 1.7374-.6611 3.0596" fill="#fff200"/>
         <path d="m320.903 109.5074c-.006-.8937-.1604-21.9266.003-24.4937.3264-5.2037 3.3999-9.7517 8.8912-13.1459 4.1026-2.5368 8.0475-3.5329 8.2107-3.5742l.1327-.0306.1301.0306c.1687.0413 4.1413 1.0262 8.2606 3.5547 5.516 3.3916 8.5731 7.9451 8.847 13.1708.21 4.0279.2847 24.2115.2847 24.4164l.003.5531-34.7573.0666-.005-.5478zm9.45-36.6854c-5.234 3.2422-8.0419 7.3669-8.349 12.2607-.0525.841-.0719 3.8151-.0719 7.4112 0 6.2218-.003 14.2746.0111 16.4269l32.472-.006.008-23.8961c-.2573-4.9076-3.1925-8.977-8.4431-12.2137-3.5825-2.2074-7.1428-3.2201-7.8372-3.4054-.6916.1881-4.2243 1.2117-7.7902 3.422" fill="#fab217" fill-rule="evenodd"/>
      </g>
   </g>
</svg>
