<?xml version="1.0" encoding="utf-8"?>
<!-- Generator: Adobe Illustrator 16.0.0, SVG Export Plug-In . SVG Version: 6.00 Build 0)  -->
<!DOCTYPE svg PUBLIC "-//W3C//DTD SVG 1.1//EN" "http://www.w3.org/Graphics/SVG/1.1/DTD/svg11.dtd">
<svg version="1.1" id="Ebene_1" xmlns="http://www.w3.org/2000/svg" xmlns:xlink="http://www.w3.org/1999/xlink" x="0px" y="0px"
	 width="355.508px" height="405.592px" viewBox="0 0 355.508 405.592" enable-background="new 0 0 355.508 405.592"
	 xml:space="preserve">
<path fill="#211E1F" d="M305.354,289.95c-30.246,35.949-75.561,58.813-126.242,58.813c-50.182,0-95.056-22.383-125.327-57.729
	L17.95,334.129c40.247,43.217,97.668,70.285,161.394,70.285c64.105,0,121.783-27.359,162.029-71.04L305.354,289.95"/>
<path fill="none" stroke="#FFFFFF" stroke-width="2.356" d="M305.354,289.95c-30.246,35.949-75.561,58.813-126.242,58.813
	c-50.182,0-95.056-22.383-125.327-57.729L17.95,334.129c40.247,43.217,97.668,70.285,161.394,70.285
	c64.105,0,121.783-27.359,162.029-71.04L305.354,289.95z"/>
<path fill="#211E1F" d="M276.995,124.88v191.384c0,5.528-3.502,10.322-8.416,12.16l-88.865,34.457l-88.896-34.457
	c-4.886-1.838-8.416-6.632-8.416-12.16l0.013-191.384H276.995"/>
<path fill="none" stroke="#FFFFFF" stroke-width="2.356" d="M276.995,124.88v191.384c0,5.528-3.502,10.322-8.416,12.16
	l-88.865,34.457l-88.896-34.457c-4.886-1.838-8.416-6.632-8.416-12.16l0.013-191.384H276.995z"/>
<polyline fill="#FFFFFF" points="87.027,272.62 87.027,154.673 272.323,154.673 272.358,272.62 87.027,272.62 "/>
<path fill="#ED1A3B" d="M272.358,261.558c-1.633,2.609-5.634,4.445-10.271,4.445c-4.705,0-8.728-1.836-10.322-4.48
	c-1.633,2.646-5.635,4.48-10.322,4.48c-4.689,0-8.641-1.836-10.291-4.445c-1.648,2.609-5.632,4.445-10.288,4.445
	c-4.706,0-8.673-1.836-10.306-4.48h-0.051c-1.614,2.646-5.602,4.48-10.272,4.48c-4.688,0-8.657-1.836-10.271-4.445
	c-1.65,2.609-5.688,4.445-10.318,4.445c-4.699,0-8.675-1.836-10.311-4.48h0.038c-1.658,2.646-5.634,4.48-10.293,4.48
	c-4.694,0-8.695-1.836-10.33-4.445c-1.628,2.609-5.647,4.445-10.311,4.445c-4.652,0-8.653-1.836-10.281-4.48h-0.042
	c-1.606,2.646-5.616,4.48-10.253,4.48c-4.71,0-8.681-1.836-10.333-4.445v0.066c-1.636,2.627-5.622,4.379-10.246,4.379
	c-4.732,0-8.708-1.836-10.313-4.48v-0.225l0.057,52.132c0,5.289,3.343,9.791,8.022,11.541l84.665,32.878l84.605-32.878
	c4.689-1.75,8.039-6.252,8.039-11.541v-52.099V261.558"/>
<path fill="#00AEEF" d="M272.358,256.114c-1.633,2.592-5.634,4.447-10.271,4.447c-4.705,0-8.728-1.873-10.322-4.447
	c-1.633,2.574-5.635,4.447-10.322,4.447c-4.689,0-8.641-1.855-10.291-4.447c-1.648,2.592-5.632,4.447-10.288,4.447
	c-4.706,0-8.673-1.873-10.306-4.447h-0.051c-1.614,2.574-5.602,4.447-10.272,4.447c-4.688,0-8.657-1.855-10.271-4.447
	c-1.65,2.592-5.688,4.447-10.318,4.447c-4.699,0-8.675-1.873-10.311-4.447h0.038c-1.658,2.574-5.634,4.447-10.293,4.447
	c-4.694,0-8.695-1.855-10.33-4.447c-1.628,2.592-5.647,4.447-10.311,4.447c-4.652,0-8.653-1.873-10.281-4.447h-0.042
	c-1.606,2.574-5.616,4.447-10.253,4.447c-4.71,0-8.681-1.855-10.333-4.447v0.084c-1.636,2.609-5.622,4.363-10.246,4.363
	c-4.732,0-8.708-1.873-10.313-4.447v-6.459c1.605,2.608,5.581,4.481,10.313,4.481c4.624,0,8.61-1.839,10.246-4.45
	c1.652,2.611,5.623,4.45,10.333,4.45c4.637,0,8.647-1.873,10.253-4.481h0.042c1.628,2.608,5.629,4.481,10.281,4.481
	c4.664,0,8.683-1.839,10.311-4.45c1.635,2.611,5.636,4.45,10.33,4.45c4.659,0,8.635-1.873,10.293-4.481h-0.038
	c1.636,2.608,5.612,4.481,10.311,4.481c4.632,0,8.668-1.839,10.318-4.45c1.613,2.611,5.582,4.45,10.271,4.45
	c4.673,0,8.658-1.873,10.272-4.481h0.051c1.633,2.608,5.6,4.481,10.306,4.481c4.656,0,8.64-1.839,10.288-4.45
	c1.65,2.611,5.602,4.45,10.291,4.45c4.688,0,8.689-1.873,10.322-4.481c1.596,2.608,5.617,4.481,10.322,4.481
	c4.638,0,8.639-1.839,10.271-4.45V256.114"/>
<path fill="#00AEEF" d="M272.358,244.483c-1.633,2.594-5.634,4.416-10.271,4.416c-4.705,0-8.728-1.84-10.322-4.416
	c-1.633,2.576-5.635,4.416-10.322,4.416c-4.689,0-8.641-1.822-10.291-4.416c-1.648,2.594-5.632,4.416-10.288,4.416
	c-4.706,0-8.673-1.84-10.306-4.416h-0.051c-1.614,2.576-5.602,4.416-10.272,4.416c-4.688,0-8.657-1.822-10.271-4.416
	c-1.65,2.594-5.688,4.416-10.318,4.416c-4.699,0-8.675-1.84-10.311-4.416h0.038c-1.658,2.576-5.634,4.416-10.293,4.416
	c-4.694,0-8.695-1.822-10.33-4.416c-1.628,2.594-5.647,4.416-10.311,4.416c-4.652,0-8.653-1.84-10.281-4.416h-0.042
	c-1.606,2.576-5.616,4.416-10.253,4.416c-4.71,0-8.681-1.822-10.333-4.416v0.066c-1.636,2.613-5.622,4.35-10.246,4.35
	c-4.732,0-8.708-1.84-10.313-4.416v-6.457c1.605,2.594,5.581,4.467,10.313,4.467c4.624,0,8.61-1.823,10.246-4.452
	c1.652,2.629,5.623,4.452,10.333,4.452c4.637,0,8.647-1.873,10.253-4.467h0.042c1.628,2.594,5.629,4.467,10.281,4.467
	c4.664,0,8.683-1.823,10.311-4.452c1.635,2.629,5.636,4.452,10.33,4.452c4.659,0,8.635-1.873,10.293-4.467h-0.038
	c1.636,2.594,5.612,4.467,10.311,4.467c4.632,0,8.668-1.823,10.318-4.452c1.613,2.629,5.582,4.452,10.271,4.452
	c4.673,0,8.658-1.873,10.272-4.467h0.051c1.633,2.594,5.6,4.467,10.306,4.467c4.656,0,8.64-1.823,10.288-4.452
	c1.65,2.629,5.602,4.452,10.291,4.452c4.688,0,8.689-1.873,10.322-4.467c1.596,2.594,5.617,4.467,10.322,4.467
	c4.638,0,8.639-1.823,10.271-4.452V244.483"/>
<path fill="#211E1F" d="M193.279,320.937c0,0,9.087,14.203,4.312,10.203c-3.487-3.007-8.262-9.931-11.715-15.632l-18.648,7.248
	c0,0-10.702,13.021-8.331,7.267c1.709-4.158,6.989-10.906,11.345-16.011l-12.772-15.422c0,0-15.707-6.114-9.48-5.651
	c4.074,0.309,12.574,3.366,18.699,5.842l10.635-16.938c0,0,1-16.85,2.485-10.787c1.028,4.157,0.703,13.157,0.207,19.819l19.5,4.743
	c0,0,16.315-4.277,10.993-0.996c-3.729,2.335-11.871,4.775-18.362,6.338L193.279,320.937"/>
<path fill="none" stroke="#211E1F" stroke-width="1.441" d="M193.279,320.937c0,0,9.087,14.203,4.312,10.203
	c-3.487-3.007-8.262-9.931-11.715-15.632l-18.648,7.248c0,0-10.702,13.021-8.331,7.267c1.709-4.158,6.989-10.906,11.345-16.011
	l-12.772-15.422c0,0-15.707-6.114-9.48-5.651c4.074,0.309,12.574,3.366,18.699,5.842l10.635-16.938c0,0,1-16.85,2.485-10.787
	c1.028,4.157,0.703,13.157,0.207,19.819l19.5,4.743c0,0,16.315-4.277,10.993-0.996c-3.729,2.335-11.871,4.775-18.362,6.338
	L193.279,320.937z"/>
<path fill="#FFFFFF" d="M178.42,317.175c0.115,0.273,0.322,0.463,0.556,0.463c0.219,0,0.387-0.188,0.532-0.463
	c0.205-0.481,0.395-1.612,0.324-3.968c0,0,0.119-7.954,6.062,0.585c16.642,23.994-7.062,24.131-7.062,24.131h0.228
	c0,0-23.707-0.137-7.042-24.131c5.943-8.539,6.013-0.585,6.013-0.585c-0.018,2.354,0.127,3.485,0.391,4.003v-0.035"/>
<path fill="none" stroke="#211E1F" stroke-width="1.441" d="M178.42,317.175l0.556,0.463l0.532-0.463
	c0.205-0.481,0.324-1.612,0.324-3.968c0,0,0.119-7.954,6.062,0.585c16.642,23.994-7.062,24.131-7.062,24.131h0.228
	c0,0-23.707-0.137-7.042-24.131c5.943-8.539,6.013-0.585,6.013-0.585c0,2.354,0.127,3.485,0.391,4.003v-0.035H178.42z"/>
<path fill="#FFFFFF" d="M166.229,307.558c-0.217,0.202-0.317,0.428-0.22,0.616c0.053,0.224,0.264,0.396,0.571,0.396h-0.015
	c0.554,0.035,1.643-0.071,3.89-0.857c0,0,7.612-2.336,1.33,5.892c-17.7,23.256-25.103,0.807-25.103,0.807v0.154
	c0,0-7.145-22.588,20.806-14.154c9.983,2.973,2.4,5.566,2.4,5.566C167.596,306.644,166.616,307.161,166.229,307.558"/>
<path fill="none" stroke="#211E1F" stroke-width="1.441" d="M166.229,307.558c-0.217,0.202-0.22,0.616-0.22,0.616l0.571,0.396
	h-0.015c0,0,1.643-0.071,3.89-0.857c0,0,7.612-2.336,1.33,5.892c-17.7,23.256-25.103,0.807-25.103,0.807v0.154
	c0,0-7.145-22.588,20.806-14.154c9.983,2.973,2.4,5.566,2.4,5.566C167.596,306.644,166.616,307.161,166.229,307.558z"/>
<path fill="#FFFFFF" d="M171.552,292.92c-0.237-0.152-0.504-0.152-0.683,0c-0.19,0.119-0.242,0.362-0.19,0.639v-0.02
	c0.115,0.569,0.576,1.599,2.079,3.452c0,0,4.552,6.494-5.269,3.074c-27.554-9.617-8.487-23.636-8.487-23.636l-0.141,0.069
	c0,0,19.207-13.793,19.884,15.426c0.231,10.408-4.571,3.983-4.571,3.983C172.851,293.985,172.036,293.196,171.552,292.92"/>
<path fill="none" stroke="#211E1F" stroke-width="1.441" d="M171.552,292.92h-0.683l-0.19,0.639v-0.02c0,0,0.576,1.599,2.079,3.452
	c0,0,4.552,6.494-5.269,3.074c-27.554-9.617-8.487-23.636-8.487-23.636l-0.141,0.069c0,0,19.207-13.793,19.884,15.426
	c0.231,10.408-4.571,3.983-4.571,3.983C172.851,293.985,172.036,293.196,171.552,292.92z"/>
<path fill="#FFFFFF" d="M187.182,293.506c0.05-0.259,0-0.531-0.172-0.67c-0.172-0.088-0.446-0.068-0.706,0.084
	c-0.464,0.227-1.288,0.981-2.646,2.975c0,0-4.762,6.37-4.547-4.002c0.672-29.201,19.887-15.408,19.887-15.408l-0.138-0.104
	c0,0,19.083,14.018-8.538,23.655c-9.777,3.416-5.186-3.077-5.186-3.077C186.581,295.069,187.095,294.073,187.182,293.506"/>
<path fill="none" stroke="#211E1F" stroke-width="1.441" d="M187.182,293.506l-0.172-0.67l-0.706,0.084
	c-0.464,0.227-1.288,0.981-2.646,2.975c0,0-4.762,6.37-4.547-4.002c0.672-29.201,19.887-15.408,19.887-15.408l-0.138-0.104
	c0,0,19.083,14.018-8.538,23.655c-9.777,3.416-5.186-3.077-5.186-3.077C186.581,295.069,187.182,293.506,187.182,293.506z"/>
<path fill="#FFFFFF" d="M191.439,308.569c0.274-0.019,0.517-0.172,0.567-0.396c0.104-0.188-0.033-0.414-0.24-0.616
	c-0.412-0.396-1.393-0.945-3.676-1.582c0,0-7.545-2.595,2.387-5.566c28.018-8.434,20.835,14.154,20.835,14.154l0.035-0.154
	c0,0-7.437,22.449-25.11-0.807c-6.335-8.229,1.286-5.892,1.286-5.892C189.774,308.498,190.909,308.604,191.439,308.569"/>
<path fill="none" stroke="#211E1F" stroke-width="1.441" d="M191.439,308.569l0.567-0.396c0,0-0.033-0.414-0.24-0.616
	c-0.412-0.396-1.393-0.945-3.676-1.582c0,0-7.545-2.595,2.387-5.566c28.018-8.434,20.835,14.154,20.835,14.154l0.035-0.154
	c0,0-7.437,22.449-25.11-0.807c-6.335-8.229,1.286-5.892,1.286-5.892C189.774,308.498,191.439,308.569,191.439,308.569z"/>
<path fill="#211E1F" d="M162.713,281.653c0,0-1.779,1.235-3.325,1.733c-1.541,0.446-2.206,1.614-2.401,1.892
	c0,0-0.88,2.026-1.443,1.201c-0.601-0.811,0.598-2.336,0.598-2.336c0.177-0.311,0.89-1.428,2.383-1.957
	c1.539-0.445,3.316-1.664,3.316-1.664c0-0.004,1.742-1.359,2.667-2.649c0.948-1.319,2.224-1.612,2.583-1.666
	c0,0,1.805-0.651,2.436,0.14c0.586,0.843-1.589,0.996-1.589,0.996c-0.368,0.138-1.665,0.411-2.594,1.685
	C164.444,280.332,162.713,281.653,162.713,281.653"/>
<path fill="#211E1F" d="M195.116,281.635c0,0-1.699-1.319-2.595-2.645c-0.944-1.287-2.249-1.58-2.558-1.702
	c0,0-2.217-0.153-1.633-0.978c0.617-0.807,2.439-0.139,2.439-0.139c0.357,0.053,1.665,0.346,2.559,1.666
	c0.944,1.287,2.662,2.684,2.662,2.684c0-0.004,1.821,1.184,3.332,1.646c1.494,0.5,2.182,1.616,2.354,1.909
	c0,0,1.203,1.563,0.637,2.386c-0.583,0.825-1.426-1.203-1.426-1.203c-0.225-0.308-0.893-1.441-2.438-1.902
	C196.954,282.854,195.116,281.635,195.116,281.635"/>
<path fill="#211E1F" d="M205.198,312.468c0,0,0.758-2.026,1.682-3.33c1.017-1.235,0.826-2.612,0.81-2.938
	c0,0-0.479-2.146,0.466-1.82c0.942,0.326,0.91,2.234,0.91,2.234c0,0.358,0.154,1.699-0.79,2.986
	c-0.998,1.272-1.735,3.331-1.735,3.331s-0.567,2.099-0.533,3.66c0,1.613-0.909,2.595-1.1,2.902c0,0-1.135,1.598-2.06,1.307
	c-0.997-0.311,0.702-1.754,0.702-1.754c0.189-0.291,1.101-1.319,1.048-2.865C204.597,314.581,205.198,312.468,205.198,312.468"/>
<path fill="#211E1F" d="M178.976,331.483c0,0,2.188,0.084,3.685,0.602c1.516,0.497,2.717-0.035,3.062-0.156
	c0,0,1.854-1.149,1.837-0.118c0,0.942-1.837,1.563-1.837,1.563c-0.345,0.104-1.546,0.668-3.062,0.138
	c-1.496-0.516-3.685-0.618-3.685-0.618s-2.224,0.104-3.712,0.618c-1.511,0.53-2.7-0.034-3.079-0.138c0,0-1.867-0.62-1.867-1.563
	c-0.008-1.031,1.867,0.118,1.867,0.118c0.379,0.121,1.568,0.653,3.079,0.156C176.752,331.567,178.976,331.483,178.976,331.483"/>
<path fill="#211E1F" d="M152.794,312.468c0,0,0.614,2.113,0.586,3.713c0,1.611,0.865,2.574,1.099,2.865c0,0,1.663,1.443,0.714,1.754
	c-0.948,0.291-2.087-1.307-2.087-1.307c-0.222-0.309-1.089-1.289-1.089-2.902c0.007-1.563-0.559-3.66-0.559-3.66
	s-0.748-2.059-1.727-3.331c-0.93-1.287-0.798-2.628-0.798-2.986c0,0,0-1.908,0.93-2.234c0.917-0.326,0.421,1.82,0.421,1.82
	c-0.033,0.326-0.157,1.703,0.83,2.938C152.063,310.44,152.794,312.468,152.794,312.468"/>
<path fill="#FFC40D" d="M178.834,298.555c-2.921,0-5.313,2.404-5.313,5.343c0,3.006,2.393,5.342,5.313,5.342
	c2.982,0,5.375-2.336,5.375-5.342C184.209,300.96,181.817,298.555,178.834,298.555"/>
<path fill="none" stroke="#FFC40D" stroke-width="0.571" d="M178.834,298.555c-2.921,0-5.313,2.404-5.313,5.343
	c0,3.006,2.393,5.342,5.313,5.342c2.982,0,5.375-2.336,5.375-5.342C184.209,300.96,181.817,298.555,178.834,298.555z"/>
<path fill="#211E1F" d="M188.95,201.736l0.705,14.423l12.194-7.919l3.829,6.255l-14.377,8.311v3.009c0,0,16.729,9.394-3.659,9.032
	l0.003,0.105c-7.135,5.959-13.893,0.066-13.893,0.066c-20.387,0.359-3.679-9-3.679-9v-3.023l-12.714-9.877l3.014-6.529l11.37,9.727
	l0.661-14.4L188.95,201.736"/>
<path fill="#22B24C" d="M204.133,214.099c11.818,13.52,20.49-0.714,20.49-0.714c14.928-3.625,6.066-14.191,6.066-14.191
	c15.561-10.203-2.715-18.208-2.715-18.208c-0.12-13.558-11.664-12.547-11.664-12.547c-12.059-10.537-23.583,1.16-23.583,1.16
	c-18.073-15.045-31.794,2.315-31.794,2.315s-11.548-8.005-16.733,4.539c0,0-18.387-0.511-11.522,18.051
	c0,0-14.209,14.223,4.338,21.228c0,0,9.861,18.258,23.416,0.875c0,0,8.331,0.498,7.02-11.243c0,0,10.559,4.396,20.551-0.479
	c0-0.003,3.195,7.187,10.065,3.163c0,0-1.063,4.624,5.581,5.57L204.133,214.099"/>
<path fill="none" stroke="#211E1F" stroke-width="5.901" d="M204.133,214.099c11.818,13.52,20.49-0.714,20.49-0.714
	c14.928-3.625,6.066-14.191,6.066-14.191c15.561-10.203-2.715-18.208-2.715-18.208c0-13.558-11.664-12.547-11.664-12.547
	c-12.059-10.537-23.583,1.16-23.583,1.16c-18.073-15.045-31.794,2.315-31.794,2.315s-11.548-8.005-16.733,4.539
	c0,0-18.387-0.511-11.522,18.051c0,0-14.209,14.223,4.338,21.228c0,0,9.861,18.258,23.416,0.875c0,0,8.331,0.498,7.02-11.243
	c0,0,10.559,4.396,20.551-0.479c0,0,3.195,7.187,10.065,3.163c0,0-1.063,4.624,5.581,5.57L204.133,214.099z"/>
<path fill="#FFC20E" d="M45.987,330.521l0.88,0.737c-3.029,5.498-3.458,9.379-1.346,11.185c1.52,1.338,3.53,0.787,5.369-1.289
	c0.786-0.894,1.304-1.924,1.304-2.715c0-1.149-0.854-2.438-1.802-4.379c-1.822-3.711-1.745-6.699,1.493-10.443
	c3.246-3.709,7.486-4.945,10.179-2.627c1.166,1.047,1.777,2.508,1.889,4.396l2.094-0.636l0.731,0.636l-6.467,7.864l-0.772-0.755
	c2.532-5.236,3.073-8.381,1.166-9.997c-1.451-1.306-3.348-0.855-5.028,1.083c-2.117,2.424-0.898,3.832,0.708,6.835
	c0.842,1.668,1.508,2.957,1.164,4.934c-0.317,1.77-1.378,3.813-3.079,5.805c-3.525,4.002-7.553,5.223-10.4,2.748
	c-1.409-1.271-2.062-2.767-1.975-5.049l-2.555,0.855l-0.742-0.65L45.987,330.521"/>
<path fill="#FFC20E" d="M70.248,333.218c2.947-1.391,5.393-1.34,7.583,0.155c2.207,1.546,3.132,3.763,2.813,7.161
	c-0.255,2.99-1.653,6.391-3.997,9.773c-2.353,3.366-4.639,5.549-7.551,6.903c-3.111,1.461-5.788,1.479-7.852,0
	c-2.135-1.457-3.029-3.762-2.727-7.246c0.274-3.3,1.502-6.219,3.88-9.604C64.769,336.946,67.498,334.487,70.248,333.218
	 M62.415,355.478c2.294,1.58,5.716-1.029,10.461-7.832c4.758-6.854,6.019-10.906,3.724-12.539c-2.274-1.562-5.657,1.03-10.423,7.867
	C61.428,349.791,60.108,353.882,62.415,355.478z"/>
<path fill="#FFC20E" d="M94.098,346.495l-1.017-0.551c-0.898-0.463-1.259-0.103-1.979,1.254l-6.597,12.332
	c-2.376,4.434-2.483,7.061,0.078,8.402c1.154,0.581,2.36,0.53,3.425,0c1.685-0.945,2.809-2.869,4.45-5.929l4.773-8.897
	c1.364-2.593,1.641-4.07-0.097-4.98c-0.017-0.033-0.107-0.053-0.125-0.065l0.928-1.787l5.599,3.006l-0.948,1.733
	c-1.749-0.616-2.667,0.275-4.028,2.816l-4.918,9.172c-1.416,2.68-2.523,4.672-4.166,6.08c-2.448,2.063-4.846,2.335-7.454,0.876
	c-4.006-2.112-4.517-5.959-1.683-11.386l7.128-13.295c0.722-1.375,0.773-1.894-0.085-2.354l-1.014-0.551l0.92-1.77l7.745,4.123
	L94.098,346.495"/>
<path fill="#FFC20E" d="M115.619,356.096c-0.787-0.293-1.184,0.033-1.743,1.408l-7.326,18.533c-0.583,1.408-0.583,1.926,0.326,2.303
	l1.1,0.445l-0.756,1.873l-8.134-3.229l0.748-1.907l1.074,0.446c0.923,0.361,1.219,0,1.813-1.459l7.376-18.5
	c0.528-1.391,0.528-1.871-0.232-2.182c-1.675-0.706-4.19,1.631-6.621,6.615l-1.117-0.396l4.201-9.586l14.11,5.601l-3.525,9.825
	l-1.035-0.379C117.507,360.202,117.298,356.748,115.619,356.096"/>
<path fill="#FFC20E" d="M127.753,384.954c0.938,0.291,1.217-0.137,1.611-1.615l2.358-8.744l-5.893-1.58l-2.321,8.71
	c-0.414,1.477-0.369,1.959,0.578,2.231l1.135,0.326l-0.552,1.943l-8.448-2.271l0.524-1.958l1.131,0.259
	c0.956,0.291,1.224-0.104,1.621-1.598l5.11-18.961c0.434-1.496,0.407-2.027-0.573-2.305l-1.124-0.291l0.546-1.925l8.443,2.304
	l-0.528,1.924l-1.11-0.312c-0.95-0.274-1.231,0.173-1.67,1.668l-2.092,7.882l5.901,1.582l2.099-7.886
	c0.427-1.459,0.387-2.024-0.571-2.285l-1.106-0.291l0.498-1.938l8.463,2.336l-0.493,1.904l-1.16-0.31
	c-0.944-0.259-1.216,0.189-1.637,1.683l-5.101,18.965c-0.411,1.494-0.369,1.977,0.596,2.215l1.102,0.344l-0.501,1.926l-8.523-2.27
	l0.57-1.975L127.753,384.954"/>
<path fill="#FFC20E" d="M150.127,389.469l1.159,0.069c0.499,0.034,0.686-0.224,0.776-0.792c0.027-0.272,0.027-0.617,0-1.078
	l-0.395-4.434l-5.837-0.842l-0.831,1.939c-0.261,0.62-0.474,1.373-0.523,1.893c-0.275,1.717,0.351,2.368,2.026,2.729l-0.279,1.96
	l-6.479-0.944l0.297-1.977c1.463-0.17,2.425-1.736,3.669-4.654l8.414-19.994l1.695,0.259l2.722,25.166
	c0.12,1.2,0.432,1.664,1.271,1.817l-0.291,2.01l-7.656-1.135L150.127,389.469 M146.793,380.093l4.665,0.722l-0.919-9.586
	L146.793,380.093z"/>
<path fill="#FFC20E" d="M167.16,386.344c-0.123,3.556,0.329,4.88,2.485,4.98l-0.048,2.045l-6.621-0.189v-2.045
	c2.069-0.084,2.481-1.391,2.575-4.86l0.417-16.644c0.045-1.479-0.107-2.061-1.099-2.132l-1.215-0.015l0.085-2.012l7.433,0.206
	l3.222,16.646l3.764-16.491l7.324,0.173l-0.069,2.027l-1.151-0.084c-0.966,0-1.173,0.479-1.198,2.007l-0.462,19.668
	c-0.052,1.546,0.11,2.026,1.095,2.026l1.184,0.017l-0.065,2.028l-8.588-0.189l0.066-2.01h1.002c0.971,0.035,1.189-0.445,1.244-1.958
	l0.523-20.75l-5.651,24.667l-1.124-0.02l-4.714-24.783L167.16,386.344"/>
<path fill="#FFC20E" d="M198.397,390.587l1.458-0.121l0.19,1.994l-9.07,0.91l-0.204-2.045l1.235-0.102
	c0.996-0.123,1.101-0.568,0.979-2.115l-1.905-19.529c-0.105-1.527-0.346-2.008-1.324-1.941l-1.219,0.142l-0.226-2.012l10.084-0.962
	c4.19-0.413,6.578,2.095,7.077,7.216c0.548,5.461-1.735,8.19-6.855,8.688c-0.686,0.104-1.439,0.121-2.318,0.172l0.791,7.853
	C197.245,390.313,197.47,390.655,198.397,390.587 M196.146,378.719c0.26,0.066,0.619,0.066,1.135,0
	c3.109-0.274,4.243-1.666,3.798-6.237c-0.414-4.447-1.599-5.769-4.313-5.529c-1.478,0.154-1.7,0.447-1.546,2.578L196.146,378.719z"
	/>
<path fill="#FFC20E" d="M218.854,363.291c-0.825,0.138-0.909,0.62-0.602,2.081l4.002,19.564c0.326,1.496,0.586,1.889,1.563,1.682
	l1.116-0.207l0.396,1.996l-8.537,1.752l-0.43-1.959l1.135-0.258c0.978-0.189,1.029-0.705,0.756-2.199l-4.055-19.512
	c-0.309-1.443-0.582-1.892-1.391-1.718c-1.788,0.378-2.596,3.728-1.907,9.224l-1.116,0.205l-1.752-10.254l14.84-3.107l2.508,10.167
	l-1.114,0.224C222.704,365.68,220.659,362.882,218.854,363.291"/>
<path fill="#FFC20E" d="M229.674,362.315c0.688-3.146,2.199-5.121,4.742-5.91c2.559-0.857,4.912-0.223,7.42,2.043
	c2.232,2.027,4.07,5.188,5.359,9.07c1.307,3.916,1.598,7.075,0.979,10.221c-0.704,3.365-2.317,5.479-4.775,6.27
	c-2.473,0.81-4.791,0.119-7.386-2.217c-2.455-2.182-4.054-4.912-5.322-8.861C229.401,368.979,229.058,365.319,229.674,362.315
	 M242.763,381.998c2.631-0.841,2.631-5.151,0.053-13.036c-2.578-7.918-5.051-11.403-7.763-10.526
	c-2.594,0.855-2.594,5.133-0.035,13.053C237.627,379.387,240.118,382.892,242.763,381.998z"/>
<path fill="#FFC20E" d="M256.676,376.552c1.771-1.147,1.546-2.455,0.119-5.493l-7.006-15.136l-0.723-0.512
	c-0.738-0.551-1.271-0.91-2.113-0.5l-0.24,0.119l-0.873-1.787l5.289-2.455l15.233,11.957l-4.378-9.396
	c-1.564-3.384-2.475-4.242-4.554-3.281l-0.823-1.854l6.098-2.834l0.857,1.818c-1.717,0.963-1.58,2.216-0.084,5.463l8.949,19.201
	l-1.324,0.619l-18.841-14.855l5.891,12.814c1.476,3.211,2.509,4.153,4.499,3.33l0.893,1.805l-6.01,2.798L256.676,376.552"/>
<path fill="#FFC20E" d="M291.424,338.919l-0.928,0.654c-4.054-4.381-6.509-5.152-9.414-3.162c-1.115,0.756-1.319,1.068-0.221,2.697
	l4.602,6.752c0.123-0.053,0.226-0.103,0.31-0.172c1.7-1.17,1.53-2.902-0.326-6.271l0.929-0.653l7.199,10.514l-0.964,0.67
	c-2.457-3.006-3.985-3.693-5.668-2.578c-0.088,0.07-0.188,0.154-0.241,0.189l5.188,7.645c0.878,1.271,1.236,1.544,2.078,0.996
	l1.356-0.943l1.134,1.683l-7.607,5.223l-1.135-1.686l0.945-0.668c0.857-0.533,0.702-1.05-0.138-2.304l-11.097-16.231
	c-0.859-1.287-1.289-1.58-2.096-1.013l-0.994,0.65l-1.117-1.629l12.416-8.504L291.424,338.919"/>
<path fill="#FFC20E" d="M313.735,344.571c-1.511,1.289-3.436,1.701-5.684,1.271c-3.418-0.688-6.975-3.075-10.221-6.889
	c-2.539-2.953-4.175-6.063-4.845-9.051c-0.772-3.369-0.069-5.789,1.978-7.56c1.27-1.1,2.748-1.477,4.672-1.136l-0.344-2.336
	l0.737-0.632l7.541,8.244l-0.81,0.91c-4.895-4.175-8.362-5.412-10.305-3.779c-2.317,2.009-0.772,5.771,4.725,12.16
	c5.515,6.477,8.88,8.521,11.472,6.322c1.942-1.701,1.531-4.98-1.354-9.705l1.408-0.273
	C316.4,337.647,316.725,342.028,313.735,344.571"/>
<path fill="#FFFFFF" d="M17.951,111.451l4.387,9.074l-12.327,3.366l3.846,7.67l12.36-3.375l3.859,7.678l-12.37,3.35l3.812,7.635
	l12.394-3.342l3.895,7.679l-12.458,3.315l3.874,7.631l12.427-3.285l5.53,10.632c2.333-0.661,4.647-1.451,6.845-2.378l-28.907-57.688
	C23.021,110.297,20.643,110.993,17.951,111.451"/>
<path fill="#FFFFFF" d="M51.869,114.642c-0.858-4.088,8.443-8.97,15.912-14.985l-9.887-19.788
	c-3.904,2.139-8.249,5.479-12.577,10.354c-1.159,1.195-2.181,2.452-3.166,3.701L51.869,114.642"/>
<path fill="#ED1A3B" d="M74.029,79.457c-2.398-3.265-8.566-3.701-16.136,0.412l9.886,19.788
	C74.636,94.056,79.922,87.445,74.029,79.457"/>
<path fill="#ED1A3B" d="M25.117,109.412L54.024,167.1c8.099-3.358,14.78-8.107,17.033-11.617l-12.444-26.472l-6.175-13.146
	c-0.321-0.416-0.484-0.795-0.57-1.224L42.15,93.924C37.287,99.974,33.079,106.007,25.117,109.412"/>
<path fill="#ED1A3B" d="M17.951,111.451c-3.894,0.666-8.427,0.843-13.968,0.386l6.028,12.055l12.327-3.366L17.951,111.451"/>
<polyline fill="#ED1A3B" points="26.216,128.186 13.856,131.561 17.706,139.214 30.076,135.864 26.216,128.186 "/>
<polyline fill="#ED1A3B" points="33.912,143.507 21.517,146.848 25.349,154.501 37.806,151.185 33.912,143.507 "/>
<path fill="#ED1A3B" d="M29.223,162.132l4.512,9.102c4.355,0.237,8.962-0.484,13.444-1.755l-5.529-10.632L29.223,162.132"/>
<path fill="#FFFFFF" d="M67.603,99.81l5.487,10.956c3.904-3.281,8.065-7.186,12.505-10.905L75.313,81.499
	C79.016,88.636,73.967,94.644,67.603,99.81"/>
<path fill="#ED1A3B" d="M52.438,115.866c0.279,0.421,0.698,0.783,1.259,1.159c5.532,3.904,12.023-0.077,19.392-6.259L67.603,99.81
	C59.437,106.393,49.074,111.559,52.438,115.866"/>
<path fill="none" stroke="#211E1F" stroke-width="4.704" d="M52.438,115.866c-6.207-7.982,34.504-18.874,21.591-36.409
	c-3.639-4.978-15.927-3.465-28.713,10.766c-9.901,10.919-14.267,23.9-41.335,21.614l29.753,59.396
	c15.005,0.788,33.34-9.485,37.324-15.783L52.438,115.866z"/>
<path fill="none" stroke="#211E1F" stroke-width="4.704" d="M85.595,99.861c-12.736,10.702-23.428,23.119-31.897,17.164
	c-0.561-0.376-0.98-0.738-1.259-1.159c-5.955-7.668,31.361-18.031,22.875-34.367L85.595,99.861z"/>
<path fill="#FFFFFF" d="M337.561,111.451l-4.396,9.074l12.281,3.366l-3.814,7.67l-12.366-3.375l-3.847,7.678l12.367,3.35
	l-3.814,7.635l-12.385-3.342l-3.881,7.679l12.42,3.315l-3.851,7.631l-12.435-3.285l-5.531,10.632
	c-2.318-0.661-4.637-1.451-6.835-2.378l28.905-57.688C332.493,110.297,334.813,110.993,337.561,111.451"/>
<path fill="#FFFFFF" d="M303.62,114.642c0.842-4.088-8.451-8.97-15.904-14.985l9.895-19.788c3.881,2.139,8.209,5.479,12.624,10.354
	c1.082,1.195,2.11,2.452,3.126,3.701L303.62,114.642"/>
<path fill="#ED1A3B" d="M281.428,79.457c2.423-3.265,8.588-3.701,16.182,0.412l-9.895,19.788
	C280.845,94.056,275.551,87.445,281.428,79.457"/>
<path fill="#ED1A3B" d="M330.379,109.412L301.474,167.1c-8.075-3.358-14.772-8.107-17.039-11.617l18.619-39.617
	c0.325-0.416,0.479-0.795,0.565-1.224l9.739-20.719C318.237,99.974,322.394,106.007,330.379,109.412"/>
<path fill="#ED1A3B" d="M337.561,111.451c3.865,0.666,8.434,0.843,13.965,0.386l-6.08,12.055l-12.281-3.366L337.561,111.451"/>
<polyline fill="#ED1A3B" points="329.264,128.186 341.631,131.561 337.784,139.214 325.417,135.864 329.264,128.186 "/>
<polyline fill="#ED1A3B" points="321.586,143.507 333.97,146.848 330.124,154.501 317.704,151.185 321.586,143.507 "/>
<path fill="#ED1A3B" d="M326.274,162.132l-4.533,9.102c-4.328,0.237-8.965-0.484-13.433-1.755l5.532-10.632L326.274,162.132"/>
<path fill="#FFFFFF" d="M287.87,99.81l-5.479,10.956c-3.897-3.281-8.089-7.186-12.47-10.905l10.254-18.362
	C276.465,88.636,281.53,94.644,287.87,99.81"/>
<path fill="#ED1A3B" d="M303.054,115.866c-0.31,0.421-0.74,0.783-1.255,1.159c-5.565,3.904-12.006-0.077-19.409-6.259l5.479-10.956
	C296.045,106.393,306.387,111.559,303.054,115.866"/>
<path fill="none" stroke="#211E1F" stroke-width="4.704" d="M303.054,115.866c6.182-7.982-34.492-18.874-21.626-36.409
	c3.691-4.978,15.975-3.465,28.806,10.766c9.843,10.919,14.204,23.9,41.292,21.614l-29.785,59.396
	c-14.978,0.788-33.322-9.485-37.322-15.783L303.054,115.866z"/>
<path fill="none" stroke="#211E1F" stroke-width="4.704" d="M269.92,99.861c12.728,10.702,23.394,23.119,31.879,17.164
	c0.515-0.376,0.945-0.738,1.255-1.159c5.961-7.668-31.365-18.031-22.88-34.367L269.92,99.861z"/>
<path fill="#FFFFFF" d="M214.92,97.877c-2.662,2.141-7.281,5.245-12.436,8.374v41.09c5.807-3.524,11.715-7.306,17.297-10.317V94.435
	C217.859,95.708,216.157,96.891,214.92,97.877"/>
<path fill="#FFFFFF" d="M242.625,86.722c-0.238,0-0.48,0.06-0.721,0.06l-5.875,44.393c0.225-0.008,0.48-0.069,0.723-0.069
	c4.81,0,9.273,1.621,13.481,3.994l13.144-40.338C256.936,90.157,250.013,86.722,242.625,86.722"/>
<path fill="#FFFFFF" d="M301.799,117.025c-5.496,3.852-11.938,0-19.221-6.103l-17.107,35.733c6.958,6.015,13.14,10.984,18.945,8.794
	l18.638-39.584C302.745,116.287,302.313,116.649,301.799,117.025"/>
<path fill="#FFFFFF" d="M53.697,117.025c-0.561-0.376-0.98-0.738-1.259-1.159l18.619,39.582c5.859,2.192,12.022-2.777,18.977-8.792
	l-17.136-35.733C65.588,117.025,59.194,120.877,53.697,117.025"/>
<path fill="#FFFFFF" d="M177.751,116.925c-1.713,0-3.999-0.583-6.58-1.51v41.337c2.384,0.832,4.59,1.333,6.58,1.333
	c1.962,0,4.186-0.501,6.544-1.333v-41.337C181.756,116.342,179.446,116.925,177.751,116.925"/>
<path fill="#FFFFFF" d="M112.849,86.722c-7.364,0-14.281,3.435-20.718,8.039l13.158,40.338c4.165-2.373,8.635-3.994,13.461-3.994
	c0.219,0,0.469,0.062,0.696,0.069l-5.859-44.393C113.342,86.782,113.11,86.722,112.849,86.722"/>
<path fill="#FFFFFF" d="M140.56,97.877c-1.236-0.985-2.876-2.169-4.836-3.441v42.588c5.592,3.012,11.5,6.793,17.271,10.317v-41.09
	C147.825,103.12,143.206,100.017,140.56,97.877"/>
<path fill="#ED1A3B" d="M152.995,106.251v41.09c6.471,3.947,12.798,7.571,18.177,9.411v-41.337
	C165.792,113.482,159.001,109.886,152.995,106.251"/>
<path fill="#ED1A3B" d="M113.586,86.782l5.859,44.393c4.589,0.222,10.208,2.575,16.278,5.849V94.435
	C130.16,90.905,122.129,87.018,113.586,86.782"/>
<path fill="#ED1A3B" d="M72.898,110.923l17.136,35.733c4.664-4.039,9.674-8.461,15.254-11.557L92.13,94.761
	C85.166,99.72,78.747,106.034,72.898,110.923"/>
<path fill="#ED1A3B" d="M184.295,115.415v41.337c5.408-1.84,11.713-5.462,18.189-9.411v-41.09
	C196.508,109.886,189.722,113.482,184.295,115.415"/>
<path fill="#ED1A3B" d="M219.782,94.435v42.588c6.063-3.273,11.663-5.627,16.248-5.849l5.875-44.393
	C233.368,87.018,225.348,90.905,219.782,94.435"/>
<path fill="#ED1A3B" d="M263.377,94.761l-13.144,40.338c5.532,3.096,10.548,7.518,15.236,11.557l17.108-35.733
	C276.756,106.032,270.35,99.72,263.377,94.761"/>
<path fill="none" stroke="#211E1F" stroke-width="4.704" d="M177.751,158.085c14.875,0,43.371-26.979,59.001-26.979
	c20.783,0,34.988,29.12,47.664,24.345l18.638-39.584c-0.31,0.421-0.74,0.783-1.255,1.159c-13.965,9.852-33.854-30.303-59.174-30.303
	c-11.799,0-22.793,7.351-27.705,11.154c-7.334,5.852-28.807,19.048-37.169,19.048c-8.327,0-29.875-13.196-37.191-19.048
	c-4.903-3.804-15.907-11.154-27.711-11.154c-25.265,0-45.176,40.154-59.151,30.303c-0.561-0.376-0.98-0.738-1.259-1.159
	l18.62,39.582c12.691,4.777,26.913-24.343,47.691-24.343C134.368,131.105,162.905,158.085,177.751,158.085z"/>
<path fill="#211E1F" d="M178.392,76.528c38.418,0,69.56-16.884,69.56-37.668c0-20.805-31.142-37.682-69.56-37.682
	c-38.403,0-69.568,16.877-69.568,37.682C108.824,59.644,139.988,76.528,178.392,76.528"/>
<path fill="none" stroke="#FFFFFF" stroke-width="2.356" d="M178.392,76.528c38.418,0,69.56-16.884,69.56-37.668
	c0-20.805-31.142-37.682-69.56-37.682c-38.403,0-69.568,16.877-69.568,37.682C108.824,59.644,139.988,76.528,178.392,76.528z"/>
<path fill="#FFC20E" d="M178.463,70.408c34.119,0,61.845-14.122,61.845-31.548c0-17.442-27.726-31.544-61.845-31.544
	c-34.201,0-61.832,14.102-61.832,31.544C116.632,56.286,144.262,70.408,178.463,70.408"/>
<path fill="none" stroke="#211E1F" stroke-width="0.002" d="M178.463,70.408c34.119,0,61.845-14.122,61.845-31.548
	c0-17.442-27.726-31.544-61.845-31.544c-34.201,0-61.832,14.102-61.832,31.544C116.632,56.286,144.262,70.408,178.463,70.408z"/>
<path fill="#FFFFFF" d="M178.519,62.854c27.778,0,50.367-9.026,50.367-20.155c0-11.1-22.589-20.115-50.367-20.115
	c-27.808,0-50.361,9.016-50.361,20.115C128.158,53.828,150.71,62.854,178.519,62.854"/>
<path fill="none" stroke="#211E1F" stroke-width="9.436" d="M178.519,62.854c27.778,0,50.367-9.026,50.367-20.155
	c0-11.1-22.589-20.115-50.367-20.115c-27.808,0-50.361,9.016-50.361,20.115C128.158,53.828,150.71,62.854,178.519,62.854z"/>
<path fill="#FFFFFF" d="M178.347,28.373c-26.785,0-48.436,21.729-48.436,48.464c0,26.786,21.651,48.466,48.436,48.466h-0.596
	c26.727,0,48.455-21.68,48.455-48.466c0-26.735-21.729-48.464-48.455-48.464H178.347"/>
<path fill="none" stroke="#211E1F" stroke-width="4.704" d="M178.347,28.373c-26.785,0-48.436,21.729-48.436,48.464
	c0,26.786,21.651,48.466,48.436,48.466h-0.596c26.727,0,48.455-21.68,48.455-48.466c0-26.735-21.729-48.464-48.455-48.464H178.347z"
	/>
<path fill="#211E1F" d="M170.292,116.905l-9.971-16.931l-18.259-2.982l-4.586,5.806c0.207,0.289,0.321,0.599,0.541,0.868l0.79,1.134
	c6.115,8.634,14.927,15.18,25.275,18.375l1.865,0.347L170.292,116.905"/>
<polyline fill="#211E1F" points="157.813,70.134 165.65,94.3 190.428,94.3 198.26,70.134 178.013,55.473 157.813,70.134 "/>
<path fill="#211E1F" d="M178.013,45.679v-0.035l15.077-9.85v-4.874c-4.725-1.593-9.776-2.487-15.061-2.529
	c-5.23,0.042-10.281,0.937-15.04,2.529v4.874L178.013,45.679"/>
<path fill="#211E1F" d="M150.092,62.448l0.529-19.218l-3.904-3.038c-2.069,1.75-3.969,3.657-5.674,5.741l-0.2,0.202
	c-5.513,6.745-9.198,14.994-10.452,24.054l4.319,1.899L150.092,62.448"/>
<path fill="#211E1F" d="M195.805,99.974l-9.965,16.931l4.313,6.616l1.804-0.338c10.494-3.22,19.512-9.957,25.644-18.787l0.379-0.588
	c0.239-0.345,0.431-0.722,0.653-1.011l-4.621-5.806L195.805,99.974"/>
<path fill="#211E1F" d="M206.022,62.448l15.339,9.641l4.328-1.899c-1.254-9.095-4.964-17.386-10.526-24.159l-0.035-0.007
	c-1.719-2.122-3.694-4.046-5.736-5.831l-3.916,3.038L206.022,62.448"/>
</svg>
