<?xml version="1.0" encoding="utf-8"?>
<!-- Generator: Adobe Illustrator 16.0.0, SVG Export Plug-In . SVG Version: 6.00 Build 0)  -->
<!DOCTYPE svg PUBLIC "-//W3C//DTD SVG 1.1//EN" "http://www.w3.org/Graphics/SVG/1.1/DTD/svg11.dtd">
<svg version="1.1" id="Ebene_1" xmlns="http://www.w3.org/2000/svg" xmlns:xlink="http://www.w3.org/1999/xlink" x="0px" y="0px"
	 width="274.11528447" height="364.810011208" viewBox="0 0 340.231 452.801" enable-background="new 0 0 340.231 452.801"
	 xml:space="preserve">
<path fill="#FFFFFF" d="M332.744,21.319C332.214,21.191,257.846,0.033,170.877,0c-0.255,0-0.506,0.011-0.762,0.011
	c-0.257,0-0.507-0.011-0.762-0.011C82.385,0.033,8.018,21.191,7.488,21.319C3.06,22.573,0,26.621,0,31.233v237.459l0.188,1.916
	c0.204,1.561,23.121,118.723,165.77,181.331c1.314,0.572,2.729,0.861,4.144,0.861c0.005,0,0.009-0.004,0.015-0.004
	c0.005,0,0.009,0.004,0.014,0.004c1.415,0,2.829-0.289,4.144-0.861c142.648-62.608,165.565-179.771,165.77-181.331l0.188-1.916
	V31.233C340.231,26.621,337.171,22.573,332.744,21.319z"/>
<path d="M331.093,27.061c-0.222-0.058-75.262-20.94-160.977-21.082C84.4,6.121,9.361,27.005,9.139,27.061
	c-1.878,0.516-3.165,2.214-3.165,4.163v237.468l0.071,0.809c0.085,0.645,22.17,115.479,162.33,176.971
	c0.553,0.241,1.148,0.364,1.741,0.364c0.592,0,1.187-0.123,1.74-0.364c140.16-61.492,162.245-176.326,162.33-176.971l0.071-0.809
	V31.224C334.257,29.275,332.97,27.577,331.093,27.061z"/>
<path fill="#FFFFFF" d="M170.116,14.645c-35.297,0.042-68.739,3.685-95.796,7.895v349.19c22.687,23.636,53.646,47.273,95.796,66.038
	c42.149-18.765,73.108-42.402,95.795-66.038V22.539C238.854,18.329,205.412,14.687,170.116,14.645z"/>
<path d="M123.25,337.89c-13.207-13.197-19.275-28.896-19.267-44.62l0,0c0-18.75,8.566-37.491,23.485-52.4l0,0
	c11.698-11.692,25.718-19.47,40.277-22.303l0,0l-20.354-20.345c-5.449,5.443-26.465,26.413-34.299,34.247l0,0h0.095l-3.196,3.159
	l-1.126,1.094c-0.748,0.634-1.893,1.22-3.197,1.2l0,0c-1.477,0.096-3.032-0.704-4.03-1.845l0,0l-11.154-11.275
	c-1.106-0.971-1.958-2.484-1.863-4.002l0,0c-0.024-1.315,0.576-2.461,1.334-3.345l0,0l77.271-77.238l-17.019-16.995
	c-5.439,5.435-26.465,26.413-34.304,34.256l0,0h0.076l-3.179,3.146l-1.135,1.103c-0.729,0.609-1.864,1.234-3.203,1.211l0,0
	c-1.48,0.095-3.008-0.714-4.017-1.851l0,0l-11.168-11.28c-1.083-0.971-1.943-2.464-1.858-3.997l0,0
	c-0.024-1.32,0.577-2.464,1.343-3.35l0,0l86.34-86.297c1.77-1.831,4.263-2.966,7-2.966l0,0c2.715-0.014,5.143,1.102,6.859,2.89l0,0
	l57.453,57.458c0.634,0.757,1.225,1.901,1.202,3.207l0,0c0.094,1.467-0.695,3.022-1.821,4.021l0,0l-0.544,0.539h-0.023
	c-0.327,0.303-0.771,0.748-1.306,1.271l0,0c-1.093,1.083-2.545,2.526-3.997,3.979l0,0c-2.904,2.89-5.79,5.774-5.799,5.774l0,0
	l-1.315,1.297L188.303,85.11l-22.047,22.065l81.34,81.35c0.645,0.762,1.235,1.916,1.211,3.211l0,0
	c0.095,1.471-0.695,3.018-1.831,4.03l0,0l-12.951,12.871l-48.521-48.522l-22.058,22.047l40.051,40.05
	c7.406,3.169,14.507,7.938,20.992,14.438l0,0c12.502,12.647,19.593,27.875,19.603,43.044l0,0c0,10.988-3.746,21.893-11.688,31.55
	l0,0l-1.296,1.58l-18.93-18.944l0.729-1.229c3.534-5.988,5.597-12.133,5.587-18.207l0,0c-0.01-7.261-2.862-14.541-10.053-21.749l0,0
	c-7.733-7.715-16.148-10.818-24.725-10.837l0,0c-12.999-0.023-26.508,7.417-37.155,18.088l0,0
	c-10.671,10.639-18.103,24.162-18.079,37.166l0,0c0.011,8.576,3.123,16.995,10.828,24.71l0,0c6.532,6.523,13.793,9.3,21.226,9.31
	l0,0c8.457,0,17.202-3.689,24.961-10.09l0,0l1.291-1.05l18.646,18.646l-1.461,1.301c-11.911,10.567-25.77,15.988-39.606,15.988l0,0
	C149.767,355.927,135.254,349.895,123.25,337.89L123.25,337.89z"/>
<path fill="#CC0000" d="M175.527,221.116l-3.693,0.497c-14.919,2.048-29.603,9.702-41.753,21.863l0,0
	c-14.343,14.322-22.416,32.179-22.416,49.794l0,0c0.014,14.777,5.633,29.431,18.183,42.009l0,0
	c11.418,11.396,24.933,16.953,38.519,16.962l0,0c12.308,0,24.72-4.593,35.685-13.784l0,0l-13.52-13.527
	c-7.946,6.183-16.952,9.876-25.996,9.886l0,0c-8.377,0.01-16.713-3.24-23.826-10.387l0,0c-8.334-8.301-11.931-17.823-11.911-27.316
	l0,0c0.019-14.427,8.042-28.651,19.162-39.767l0,0c11.121-11.121,25.339-19.147,39.757-19.172l0,0
	c9.489-0.009,19.015,3.581,27.326,11.911l0,0c7.744,7.725,11.153,16.083,11.135,24.36l0,0c0,6.466-2.043,12.805-5.383,18.831l0,0
	l14.03,14.034c6.556-8.632,9.578-18.064,9.578-27.615l0,0c0.01-14.001-6.569-28.348-18.522-40.448l0,0
	c-6.258-6.271-13.079-10.808-20.15-13.793l0,0l-0.354-0.15l-43.145-43.14l27.274-27.255l48.521,48.517l10.354-10.269
	c0.88-1.021,0.647-0.61,0.743-1.419l0,0c-0.02-0.369-0.038-0.421-0.251-0.729l0,0l-83.833-83.831l27.265-27.274l48.526,48.536
	c2.81-2.806,9.271-9.263,10.369-10.283l0,0c0.869-0.998,0.643-0.596,0.732-1.405l0,0c-0.019-0.369-0.028-0.421-0.25-0.748l0,0
	l-57.349-57.339c-1.116-1.135-2.507-1.773-4.229-1.788l0,0c-1.717,0-3.254,0.705-4.371,1.863l0,0l-86.245,86.193
	c-0.345,0.454-0.363,0.524-0.388,0.875l0,0c0.085,0.742-0.128,0.354,0.79,1.396l0,0l11.177,11.291
	c1.008,0.895,0.62,0.667,1.396,0.761l0,0c0.341-0.022,0.436-0.042,0.762-0.273l0,0l0.842-0.833l0.063-0.076l0.052-0.063l0.104-0.104
	c0.085-0.085,0.188-0.199,0.336-0.35l0,0c0.289-0.284,0.709-0.705,1.234-1.23l0,0c1.06-1.063,2.568-2.587,4.386-4.397l0,0
	c3.633-3.629,8.471-8.473,13.314-13.302l0,0c9.669-9.659,19.353-19.309,19.353-19.309l0,0l1.291-1.292l22.235,22.188l-79.75,79.699
	c-0.327,0.445-0.358,0.53-0.383,0.885l0,0c0.094,0.758-0.137,0.359,0.79,1.41l0,0l11.168,11.281c0.998,0.875,0.61,0.663,1.41,0.748
	l0,0c0.354-0.019,0.43-0.042,0.747-0.26l0,0l0.908-0.903l0.047-0.057l0.104-0.113c0.085-0.076,0.189-0.189,0.336-0.341l0,0
	c0.289-0.284,0.709-0.705,1.234-1.239l0,0c1.06-1.063,2.567-2.578,4.385-4.399l0,0c3.633-3.628,8.472-8.462,13.315-13.301l0,0
	c9.669-9.659,19.351-19.317,19.351-19.317l0,0l1.292-1.296l25.5,25.477l-1.306,1.305l1.306-1.305L175.527,221.116L175.527,221.116z"
	/>
</svg>
