<?xml version="1.0" encoding="UTF-8" standalone="no"?>
<svg id="svg2" xmlns:rdf="http://www.w3.org/1999/02/22-rdf-syntax-ns#" xmlns="http://www.w3.org/2000/svg" xml:space="preserve" height="85" viewBox="0 0 60 84.999998" width="60" version="1.1" xmlns:cc="http://creativecommons.org/ns#" xmlns:dc="http://purl.org/dc/elements/1.1/"><metadata id="metadata8"><rdf:RDF><cc:Work rdf:about=""><dc:format>image/svg+xml</dc:format><dc:type rdf:resource="http://purl.org/dc/dcmitype/StillImage"/><dc:title/></cc:Work></rdf:RDF></metadata><path id="claret-shield" d="m59.905 0.050002h-59.81v64.201c0 5.0147 3.0484 8.9623 9.1452 11.874 2.0274 0.97535 4.7252 1.9814 8.109 3.0027l7.5448 2.3016 1.0667 0.4879c0.79235 0.3657 1.3565 0.67045 1.6768 0.9144 0.77722 0.54855 1.5393 1.2497 2.2863 2.1186 0.71628-0.74682 1.2957-1.2957 1.7222-1.6464 0.83862-0.68587 1.9053-1.2804 3.2312-1.7833 0.9451-0.3657 3.4449-1.1582 7.4989-2.3928 3.4902-1.0673 6.2343-2.0576 8.2005-2.9723 6.2181-2.8808 9.3279-6.8439 9.3279-11.904z" fill-rule="evenodd" fill="#7b003a"/><path id="blue-shield" d="m27.82 80.316c0.701 0.47248 1.4021 1.0671 2.1186 1.8137 0.65562-0.64005 1.1887-1.1127 1.5847-1.4171 0.74682-0.57925 1.738-1.0977 3.0032-1.5395 0.86842-0.32018 3.201-1.0059 6.9655-2.073 3.2468-0.92982 5.7917-1.7833 7.6367-2.5756 5.7765-2.4843 8.6573-5.9292 8.6573-10.304l-0.000113-62.006h-55.572v62.006c0 4.3442 2.8353 7.7585 8.4899 10.273 1.8902 0.83817 4.4049 1.707 7.5446 2.6063l7.0115 1.9968z" fill-rule="evenodd" fill="#a3c5e9"/><path id="star" d="m13.892 23.274-2.073-0.30475-0.94495-1.9053-0.91485 1.9055-2.088 0.30475 1.5088 1.4938-0.3657 2.1186c0.62492-0.33515 1.25-0.67045 1.8596-1.0059l1.8746 1.0059-0.3657-2.1186z" fill-rule="evenodd" fill="#fff"/><path id="lion" d="m24.154 27.05c-0.41841 0.41811-0.397 1.0612-0.84611 1.3132-0.32467 0.18225-0.69501 0.1243-0.8524-0.04343-0.22523-0.24065-0.30325-0.61729-0.0085-0.94779 0.34998-0.39281 1.0844-0.33216 1.707-0.32197m-3.1426 6.0963c-0.01288 0.51306 0.06215 0.90886 0.31269 1.2163-0.3648 0.28992-0.29217 0.74772-0.1234 1.1554 0.18315 0.44282 0.80927 1.1444 1.5831 1.4692 0.13178-0.22867-0.23392-0.83922-0.10243-1.2588 0.47322 0.363 0.92234 0.64784 1.2296 0.61953-0.20801-0.42036-0.23002-0.70265-0.1532-0.81466 0.83099-0.69112 1.8171-1.5651 2.4058-1.758 0.47682-0.15634 0.9761 0.17551 1.0574 0.77588 0.09285 0.68662-0.17252 1.2645-0.62582 1.7479-0.80418 0.85854-1.8844 1.2717-2.718 2.1961-1.3295 1.4742-1.6073 3.1034-3.2199 3.188 0.89104-0.59977 1.3978-1.1134 1.9074-2.0867-3.1817 0.4849-5.1152-1.2304-7.0721-2.2331-0.85749-0.43953-1.715-0.53163-2.2012-0.6366-0.77662-0.80253-1.1735-1.4612-1.3563-2.5385-0.20711-1.2209 0.10228-2.3038-1.017-2.4359-0.64185-0.88789-1.4583-1.4895-2.6566-0.70399 0.6411 0.11112 1.1068 0.26297 1.4231 1.2109-0.092548 0.13882-0.30774 0.34728-0.31344 0.59063-0.40479 0.02291-0.53103 0.05721-0.79714 0.31224-1.0648-0.43039-2.0675-0.25278-2.5762 0.80298 0.74068-0.19782 1.3132-0.17371 1.8222 0.32497 0.054959 0.34144 0.090601 0.59108 0.28438 0.83952-0.44013 0.26851-0.70864 0.80373-0.72571 1.1597-0.85974 0.20456-1.3794 0.74158-1.4255 1.5582 0.61504-0.43024 1.2516-0.48296 1.5663-0.39835 0.20052 0.20516 0.37918 0.60471 0.7916 0.71987 0.46708 0.13044 1.3717-0.06454 1.8942 0.0891 0.20471 0.36136 0.28049 0.5499 0.26192 0.77977-0.07263 0.90272-1.5411 0.30834-1.4071 1.6588-0.50961 0.14616-0.81856-0.0322-1.2639-0.35162 0.29951 1.3366 1.0806 1.9458 2.1195 1.3166 0.8813 0.19213 1.4264-0.72047 2.2203-1.1555 0.7645-0.41871 1.8791 0.11935 2.5099 0.56592 0.96771 0.68498 1.9955 1.5515 2.5282 3.6164 0.34563-0.35596 0.57985-0.87711 0.63765-1.3864l2.5103 2.3246-5.4129 4.1973c-0.36944 0.28633-0.78591 0.549-1.1747 0.39475-0.3326-0.13193-0.52234-0.49928-0.81272-0.77348-0.42425-0.40104-0.99497-0.6673-1.6055-0.3329-0.96756-0.03265-1.8653 0.19603-2.048 1.6486 0.32002-0.28858 0.61429-0.54496 1.215-0.3645 0.0027 0.36465 0.09524 0.68288 0.32976 0.95453-0.30086 0.18525-0.49763 0.47472-0.5207 0.65982-0.89298 0.05152-1.5441 0.55738-1.6314 1.6142 0.50647-0.50752 0.92922-0.73095 1.5275-0.4861 0.17686 1.0842 0.67524 1.2191 1.2494 1.1455-0.16203 0.46304-0.19723 0.7925 0.01109 1.1801-0.31164 0.69186 0.0268 1.5839 0.47487 1.8811-0.05795-0.42845 0.01168-0.93806 0.25488-1.1633 0.50916 0.12564 0.88714-0.07802 1.3963-0.74188 0.1213 0.55843 0.51246 0.86753 1.0044 0.82245 0.06634 0.5818 0.33021 1.0504 0.67449 1.3536-0.09839-0.47427-0.15395-1.001-0.06709-1.4752 0.92279-0.72885 0.73634-1.523 0.88924-2.4295 0.17012-1.009 0.67854-1.458 1.4917-1.9919 1.5787-1.0363 3.4412-1.8225 6.3858-2.0693 0.91994 1.1104 1.8357 2.3125 2.9988 3.3358-1.7795 1.4351-2.9855 0.83278-4.4284 1.0019-0.65008 0.07592-1.51 0.37993-1.9754 0.86139-0.41003 0.4241-0.61938 0.96397-1.0758 1.1931-0.35477 0.17821-0.82964 0.22718-1.381-0.22912-0.02696 1.2982 0.49823 1.7282 1.8242 1.653-0.46828 0.55379-0.96022 0.76375-1.9672 0.3946 0.4268 1.033 1.1239 1.4138 2.2059 1.2994 0.25593 1.7701 2.525 2.7517 2.121 4.1491-0.54705 1.8921-4.731 2.4112-6.2506 1.4321-1.0683-0.68857-1.5458-1.8372-2.8013-1.4586-0.69201-0.62957-1.9703-0.83578-2.4973 0.67449 0.912-0.50946 1.3282-0.23137 1.1314 0.3678-1.6388 0.02171-2.2566 0.83593-2.0284 1.947 0.31778-0.58254 0.65503-0.71762 1.0704-0.6375-0.13732 0.31508-0.22628 0.72736-0.20816 1.3538-0.80957 0.4894-0.84072 1.3875-0.47337 2.1395 0.2131-0.61324 0.31913-1.1738 0.8205-1.2022 0.29981 0.40583 0.71642 0.69516 1.2495 0.86768-0.18704 0.96142-0.14077 1.8352 0.13882 2.5632 0.1848-0.64394 0.36929-1.0544 0.61234-1.3482 0.84402 0.58509 1.7366 0.59677 2.6089 0.36151 1.7818-0.48056 2.8762-1.8697 4.2598-1.8905 0.76914-0.01168 1.1202 0.59258 0.60396 1.2987 1.1038-0.06724 1.6984-0.32602 2.2346-0.63541 0.83623-0.48266 1.3637-1.0889 2.1744-1.2828 1.3479-0.32227 3.248 1.2221 4.151-0.50212-1.0615 0.17896-1.6719-0.30176-1.8578-0.80388 1.3375 0.23272 2.2063 0.19318 2.9242-0.92443-1.9519 0.32841-2.8203-1.3737-2.9403-2.3082-0.11261-0.87786 0.17057-2.5219 1.9947-3.0757 0.58764-1.2202 0.89778-1.8595 1.5356-2.8673l0.2119-0.98224c0.12909 0.4557 0.22748 0.89074 0.08491 1.3848-0.20831 0.72226-0.71193 1.5091-1.017 2.3369-0.25099 0.68108-0.32661 1.4294-0.28978 1.995 0.04642 0.71028 0.29157 1.3605 0.74083 1.8954 0.74907 0.89134 1.8427 1.6121 1.0758 3.3967 0.8214-0.08117 1.2928-0.47367 2.1144-1.4105 0.62462 0.47652 1.0839 1.1184 0.8527 1.9841 1.0376-0.31868 1.6924-1.132 2.059-2.3161 1.4865 0.04298 2.3189 0.33874 2.4629 0.91051 0.24006 0.95289-2.138 4.488-5.1261 4.6085-0.47457-0.12744-0.84941-0.62178-1.2199-0.79774-0.335-0.15904-0.79594-0.12504-1.1943 0.43968-0.93566-0.25383-2.0367-0.01123-2.3251 1.0344-0.55544 0.24709-1.0493 1.071-0.96861 1.7969 0.19902-0.17267 0.83698-0.59887 1.0797-0.63211 0.06724 0.21654 0.44178 0.44417 0.65562 0.50632-1.2644 1.1083-1.3041 2.0172-1.1932 2.45 0.53387-0.86363 1.1594-1.0245 1.4634-1.0013 0.2146 0.53986 0.64125 0.76435 1.2656 0.83443l0.02965 1.5005 1.0686-1.1829c1.3075 0.6399 2.683 0.23751 3.654-0.49134 1.7914-1.3443 2.5389-3.9728 3.8689-3.7997 0.27839 0.03639 0.53612 0.31374 0.40299 0.71328 0.32931 0.07967 0.6429-0.05197 0.8807-0.33545 0.52324-0.62343 0.84821-1.8652 1.8248-3.3265 0.62388-0.93387 2.1226-1.9456 2.5508-2.8715-0.69681 0.4593-1.5106 0.31448-1.6229-0.0912 1.226-0.64125 2.3303-1.3902 2.7881-3.1514-0.6712 0.31029-1.284 0.54256-1.955 0.46394 0.56068-1.1879 0.75102-2.4145 0.21789-3.2116-1.7067 2.5012-3.7489 2.0847-4.5748 1.5037-0.64364-0.45271-1.257-1.1348-1.3069-2.7272-0.01303-0.41707 0.08821-1.0808 0.26746-1.7021 0.1791-0.62133 0.37828-1.1124 0.38547-1.6799 2.5231 1.4531 4.5022 1.8912 5.9261 1.8283 2.6667-0.11801 4.395-2.234 4.3012-4.9398-0.04583-1.3243-0.60591-2.6044-1.5959-3.868-1.1199-1.4294-2.7046-2.8095-3.7521-4.2394-0.54855-0.74907-0.9159-1.5917-1.0697-2.3582-0.24754-1.2338-0.0614-2.6535 1.2527-3.8454 1.4126 0.81691 2.7429 1.1449 4.0083 1.0489 1.2958-0.09839 2.3236-0.87247 3.3217-1.694 0.45001-0.37049 0.92204-0.75791 1.8782-0.65158-0.31493-0.3663-0.89254-0.76165-1.7619-0.71942 2.0416-2.4766 2.8627-5.5719 1.7327-7.7356-0.18495 1.2463-0.60037 1.5479-0.9749 1.805-0.49733 0.34144-0.89688 0.40464-1.6172 0.78321 0.37154-0.72571 0.3344-1.2627 0.09285-2.0907-0.88235 2.2827-2.0274 1.7357-3.6392 3.4057 0.18959-0.76375 0.21355-1.3815-0.07338-2.0867-0.09959 0.69516-0.51096 1.2245-0.91889 1.5255-1.4576 1.0751-3.2796 1.3268-2.9257 4.7999-1.8682 1.4824-2.5491 3.2395-2.4169 4.9937 0.10962 1.4549 0.69711 2.7881 1.641 4.0405 1.0052 1.3331 2.3953 2.5749 3.3814 3.7743 1.0797 1.3133 2.0952 3.6218 0.91709 5.2698-0.76794 1.0742-2.9797 1.6945-7.6438-1.2305-0.2432-2.497-2.1577-5.0654-2.5636-7.3505-0.1523-0.85794-0.07607-1.5977 0.07982-2.3773 0.13762-0.68782 0.35028-1.4068 0.33874-2.2653 0.79894 0.66536 1.7147 0.82514 2.3967 0.56652-0.54286-0.20741-1.0023-0.8801-0.99032-1.7291 0.01902-1.3243 0.77228-2.6694 0.05571-4.1639 0.60066 0.43069 1.2596 0.68632 2.0061 0.35836-1.6769-1.1119-0.14481-2.5446-0.94675-4.3859 0.58973 0.29067 1.4418 0.28977 2.0605-0.0614-1.9878-0.45301-0.97086-3.0063-2.6673-4.6554 0.73305 0.0313 1.3348-0.31688 1.6885-0.86917-1.7851 0.29606-2.6965-2.1169-4.2141-3.4117-1.4255-1.2163-3.179-1.654-5.2276-1.2659-0.02591-0.30086 0.46319-0.74757 1.0595-1.0484-1.8632-0.7943-3.7811-0.20142-5.4111 1.2606 0.07158-0.62582-0.03205-1.2515-0.4858-1.8483-0.23047 1.3062-2.2224 2.1147-2.9207 3.1811-0.31733 0.4846-0.50632 1.0168-0.4882 1.6233-1.7756 1.2585-2.2677 1.1751-2.789 2.6963-0.88879 0.74054-1.9675 1.5103-2.6229 2.2508 0.02082 0.22733 0.11441 0.49883 0.16443 0.75566l0.51815-0.51006c-0.1839 0.47757-0.1541 0.94465 0.06709 1.3264 0.42201 0.7287 1.2657 1.1215 1.7533 1.4333-0.3016-0.91275-0.2152-1.1548 0.13852-1.3857 0.77573-0.50647 2.5806-0.32976 2.7405-0.08162 0.21714 0.3368-0.05421 1.9112-1.0382 2.3254-0.70909 0.29846-1.1819 0.08042-1.6949-0.46034" fill-rule="evenodd" fill="#ffe500"/><path id="AVFC" d="m50.363 4.9121c-2.0423 0-3.7738 0.56338-5.198 1.687-0.33006 0.26581-0.62807 0.56966-0.89014 0.90826-0.2751 0.34189-0.51785 0.72167-0.72496 1.1426-0.20067 0.42096-0.35926 0.87666-0.47577 1.3704-0.12295 0.4906-0.1845 1.0287-0.1845 1.6141 0 1.1648 0.23302 2.1491 0.6992 2.9593 0.43369 0.81032 0.99676 1.4812 1.6861 2.013 1.4275 0.9779 3.1137 1.4591 5.0588 1.4463 0.73799-0.01273 1.4339-0.10124 2.0813-0.26911 0.64394-0.14871 1.22-0.29112 1.7348-0.43354 0.30101-0.50632 0.53732-1.5034 0.70564-2.9877-0.0584-0.11067-0.17162-0.18674-0.33021-0.22149-0.16503-0.01273-0.29127 0.01902-0.37543 0.0918-0.23961 0.68677-0.65712 1.3324-1.2494 1.9401-0.30086 0.28798-0.66341 0.52534-1.0842 0.70265-0.43054 0.20576-0.93222 0.307-1.5083 0.307-1.1715 0-2.1879-0.50003-3.0521-1.5034-0.8867-0.98748-1.3463-2.4275-1.3691-4.3138 0.02276-1.8989 0.48565-3.3105 1.3885-4.2379 0.87726-0.89568 1.858-1.3451 2.9421-1.3451 1.8448 0.012579 3.0231 0.91784 3.5376 2.7188 0.09704 0.072631 0.22987 0.097939 0.3949 0.072631 0.15844-0.025309 0.26207-0.094945 0.31074-0.21205-0.158-1.3681-0.229-2.3523-0.219-2.96-0.289-0.0348-0.764-0.1266-1.434-0.2691-0.661-0.136-1.476-0.2088-2.444-0.2215m-14.738 1.9496c-0.01303-0.37349 0.01767-0.60336 0.10123-0.68992 0.0599-0.062148 0.23496-0.091799 0.52219-0.091799h1.6728c0.48311 0 0.87307 0.046125 1.1654 0.14871 0.3016 0.10618 0.51815 0.2721 0.66895 0.47487 0.17207 0.23077 0.36226 0.72466 0.55169 1.4874 0.12055 0.07293 0.26312 0.087006 0.43084 0.07293 0.13313-0.011086 0.22838-0.047622 0.28393-0.14886-0.0328-1.4685-0.04583-2.456-0.04583-2.9624-0.37858 0.038037-1.2338 0.057056-2.5654 0.057056h-4.2021c-0.4569 0-0.91395-0.01273-1.3741-0.01902-0.45046-0.00614-0.88774-0.012729-1.3087-0.038037-0.10138 0.050616-0.15035 0.152-0.15035 0.307 0 0.16787 0.03594 0.28813 0.11426 0.36091l0.37858 0.056907c0.43414 0.034743 0.70504 0.17401 0.8193 0.41467 0.09794 0.24365 0.14691 0.79445 0.14691 1.6521v7.0673c0 0.83233-0.04897 1.3706-0.14691 1.6142-0.11426 0.22792-0.38517 0.36705-0.8193 0.41452l-0.62987 0.09494c-0.07503 0.06649-0.11426 0.17416-0.11426 0.32287 0 0.15514 0.03924 0.27225 0.11426 0.34488 1.1423-0.03789 2.141-0.05691 2.993-0.05691 0.88115 0 1.8963 0.01902 3.0517 0.05691 0.07503-0.07263 0.11426-0.18974 0.11426-0.34488 0-0.14871-0.03924-0.25638-0.11426-0.32287l-0.69845-0.09494c-0.403-0.048-0.664-0.187-0.788-0.418-0.128-0.241-0.186-0.779-0.173-1.612v-2.5605c0-0.26581 0.0322-0.43429 0.10123-0.50317 0.04822-0.04807 0.19258-0.07278 0.43084-0.07278h1.6401c0.48625 0 0.82949 0.0581 1.015 0.19303 0.18015 0.13088 0.28648 0.43054 0.37528 0.87352l0.0915 0.4557c0.08476 0.07293 0.20861 0.09809 0.37214 0.09195 0.16278-0.0063 0.27734-0.03804 0.3362-0.11082-0.03609-0.59512-0.05241-1.2533-0.05241-1.975 0-0.73754 0.01632-1.4147 0.05241-2.0319-0.05885-0.098239-0.17312-0.14871-0.3362-0.14871-0.16323 0-0.28738 0.044177-0.37214 0.12969l-0.0915 0.4557c-0.08865 0.44297-0.19828 0.73544-0.37528 0.87052-0.18839 0.14331-0.52878 0.19603-1.015 0.19603h-1.6401c-0.23826 0-0.38187-0.02845-0.43084-0.12025-0.06844-0.0632-0.10123-0.2152-0.10123-0.4557zm-8.48 2.8959c0.64948-1.5224 1.1751-2.589 1.5765-3.1934 0.20247-0.37364 0.55154-0.59497 1.0445-0.6679l0.49269-0.094944c0.07518-0.072781 0.11426-0.18674 0.11426-0.34189-0.02606-0.155-0.07832-0.25638-0.15335-0.30685-0.54181 0.037887-1.1293 0.056907-1.7592 0.056907-0.6986 0-1.4752-0.019019-2.3336-0.056907-0.11756 0.050467-0.17641 0.14541-0.17641 0.28798-0.0099 0.155 0.01962 0.2754 0.09464 0.36076l0.55499 0.12969c0.22838 0.038187 0.37199 0.085509 0.43399 0.13927 0.04897 0.050767 0.07503 0.11396 0.07503 0.18674 0 0.098239-0.062 0.32931-0.18599 0.68692-0.36884 1.0507-0.86828 2.3767-1.4981 3.9719l-0.70489 1.7819c-0.24155 0.60126-0.44073 1.0697-0.60066 1.4116-0.13044-0.30385-0.32961-0.7913-0.59392-1.4685l-1.667-4.2759c-0.229-0.5824-0.412-1.0571-0.555-1.421-0.134-0.3704-0.203-0.5952-0.203-0.6679-0.013-0.1678 0.144-0.288 0.474-0.364l0.57131-0.11082c0.062-0.098089 0.09464-0.21834 0.09464-0.36076 0-0.12355-0.03939-0.22164-0.11097-0.28798-1.0935 0.037887-2.0432 0.056907-2.8528 0.056907-0.87127 0-1.7297-0.019019-2.5752-0.056907-0.07503 0.050467-0.12714 0.13912-0.15979 0.26896-0.02621 0.13613 0.0031 0.26267 0.08805 0.37978l0.52549 0.12969c0.42096 0.063346 0.71807 0.19633 0.89104 0.39895 0.16638 0.19303 0.41766 0.75012 0.75716 1.671l3.0746 7.7321c0.29052 0.78486 0.55484 1.5065 0.79639 2.1617 0.11097 0.10438 0.28079 0.15829 0.50916 0.15829 0.29052 0 0.51246-0.05391 0.66596-0.15829 0.37858-0.99377 1.0182-2.6111 1.9191-4.8519zm-17.024 2.6934c-0.22837 0.01258-0.37528-0.02845-0.43728-0.12025-0.078472-0.06319-0.065294-0.2152 0.039086-0.45585l0.47008-1.4209c0.30355-0.92743 0.56143-1.6269 0.78007-2.0985 0.17956 0.459 0.40793 1.1236 0.68542 1.9971l0.4897 1.5414c0.10752 0.24051 0.12714 0.39236 0.05855 0.4557-0.06529 0.06649-0.20891 0.10123-0.43728 0.10123zm1.7494 1.0001c0.32646 0 0.5517 0.01273 0.67569 0.03804 0.13059 0.04747 0.20561 0.152 0.23182 0.30385l0.50916 1.6332c0.24155 0.71208 0.36226 1.1425 0.36226 1.2912 0 0.05391-0.02621 0.11396-0.07518 0.17416-0.062 0.0632-0.20561 0.11396-0.43399 0.14871l-0.61369 0.09494c-0.08476 0.0918-0.1207 0.20576-0.11097 0.34189 0 0.14242 0.05227 0.25323 0.1502 0.32586 0.81916-0.03789 1.6743-0.05691 2.5653-0.05691 1.0119 0 1.9844 0.01902 2.9181 0.05691 0.08805-0.07263 0.13373-0.19618 0.13373-0.36076-0.01303-0.14871-0.05211-0.25324-0.11426-0.307l-0.72466-0.11082c-0.32631-0.0632-0.56457-0.22149-0.71133-0.47472-0.09464-0.14242-0.17641-0.31328-0.25144-0.50946-0.08491-0.19318-0.18929-0.4274-0.30685-0.70579l-2.574-7.4532c-0.444-1.2692-0.731-2.1331-0.862-2.5984-0.058-0.2469-0.205-0.3703-0.434-0.3703-0.023 0.0253-0.182 0.1836-0.473 0.4715-0.313 0.2912-0.705 0.516-1.175 0.6678 0.013 0.478-0.235 1.2819-0.7408 2.4118l-1.7038 4.6268c-0.4831 1.317-0.8748 2.333-1.1783 3.042-0.1533 0.354-0.3231 0.595-0.5091 0.725-0.1893 0.123-0.4081 0.196-0.6464 0.221l-0.51231 0.05706c-0.062148 0.0918-0.088055 0.20576-0.075176 0.34189 0 0.14242 0.045674 0.25323 0.13388 0.32586 0.77019-0.02531 1.423-0.04418 1.9517-0.05691 0.80942 0.01273 1.5504 0.0316 2.2227 0.05691 0.088206-0.0632 0.13059-0.17716 0.13059-0.34488 0-0.14886-0.029351-0.25638-0.0912-0.32287l-0.57461-0.09494c-0.26761-0.06005-0.44073-0.11711-0.52878-0.16458-0.10438-0.03804-0.15649-0.0918-0.15649-0.15829-0.013179-0.11067 0.032496-0.33859 0.13703-0.67719l0.70489-2.2092c0.04897-0.18045 0.11756-0.29442 0.20561-0.34189 0.058704-0.02531 0.19917-0.03804 0.41452-0.03804z" fill-rule="evenodd" fill="#7b003a"/></svg>
